<?xml version="1.0" encoding="UTF-8"?><svg xmlns="http://www.w3.org/2000/svg" viewBox="0 0 70 70"><defs><style>.cls-1{fill:#ee574d;stroke:#fff;stroke-miterlimit:10;stroke-width:.89px;}.cls-2{fill:#fdeeed;}.cls-3{fill:none;}</style></defs><g id="Layer_1"><rect class="cls-2" x="0" width="70" height="70"/><g><g><circle class="cls-1" cx="38.18" cy="20.95" r="5.36"/><path class="cls-1" d="M38.18,26.3c-3.93,0-7.14,3.21-7.14,7.14v12.14c0,.2,.16,.36,.36,.36h13.92v-12.5c0-3.93-3.21-7.14-7.14-7.14Z"/></g><g><circle class="cls-1" cx="22.89" cy="23.95" r="5.36"/><path class="cls-1" d="M22.89,29.3c-3.93,0-7.14,3.21-7.14,7.14v12.14c0,.2,.16,.36,.36,.36h13.92v-12.5c0-3.93-3.21-7.14-7.14-7.14Z"/></g><g><circle class="cls-1" cx="47.11" cy="26.73" r="5.36"/><path class="cls-1" d="M47.11,32.09c-3.93,0-7.14,3.21-7.14,7.14v12.14c0,.2,.16,.36,.36,.36h13.92v-12.5c0-3.93-3.21-7.14-7.14-7.14Z"/></g><g><circle class="cls-1" cx="31.14" cy="29.41" r="5.36"/><path class="cls-1" d="M31.14,34.77c-3.93,0-7.14,3.21-7.14,7.14v12.14c0,.2,.16,.36,.36,.36h13.92v-12.5c0-3.93-3.21-7.14-7.14-7.14Z"/></g></g></g><g id="Layer_2"><rect class="cls-3" x="47" y="6" width="13" height="11" rx="5.5" ry="5.5"/></g></svg>