<svg width="37" height="37" viewBox="0 0 37 37" fill="none" xmlns="http://www.w3.org/2000/svg">
<path d="M23.32 1.70999H13.44C11.7666 1.70999 10.41 3.06657 10.41 4.73999V14.94C10.41 16.6134 11.7666 17.97 13.44 17.97H23.32C24.9934 17.97 26.35 16.6134 26.35 14.94V4.73999C26.35 3.06657 24.9934 1.70999 23.32 1.70999Z" stroke="#02808A" stroke-width="1" stroke-miterlimit="10"/>
<path d="M13.84 19.61H3.96001C2.28658 19.61 0.929993 20.9666 0.929993 22.64V32.84C0.929993 34.5134 2.28658 35.87 3.96001 35.87H13.84C15.5134 35.87 16.87 34.5134 16.87 32.84V22.64C16.87 20.9666 15.5134 19.61 13.84 19.61Z" stroke="#02808A" stroke-width="1" stroke-miterlimit="10"/>
<path d="M32.35 19.97H22.47C20.7966 19.97 19.44 21.3266 19.44 23V33.2C19.44 34.8734 20.7966 36.23 22.47 36.23H32.35C34.0234 36.23 35.38 34.8734 35.38 33.2V23C35.38 21.3266 34.0234 19.97 32.35 19.97Z" stroke="#02808A" stroke-width="1" stroke-miterlimit="10"/>
<path d="M14.93 13.58L18.43 6.34999L22.15 13.58" stroke="#02808A" stroke-width="1" stroke-miterlimit="10"/>
<path d="M20.91 11.17H16.1" stroke="#02808A" stroke-width="1" stroke-miterlimit="10"/>
<path d="M11.06 27.74C11.06 27.74 14.87 24.61 11.06 23.45H6.09V31.84H11.06C11.06 31.84 14.16 29.9 11.06 27.74H6.09" stroke="#02808A" stroke-width="1" stroke-miterlimit="10"/>
<path d="M30.99 25C30.99 25 26.99 21.19 24.28 25.32C21.57 29.45 27.12 36.42 30.99 30.48" stroke="#02808A" stroke-width="1" stroke-miterlimit="10"/>
</svg>
