<?xml version="1.0" encoding="UTF-8" standalone="no"?>
<svg
   id="Layer_1"
   data-name="Layer 1"
   viewBox="0 0 93 75"
   version="1.1"
   sodipodi:docname="IEPs.svg"
   inkscape:version="1.2.1 (9c6d41e410, 2022-07-14)"
   xmlns:inkscape="http://www.inkscape.org/namespaces/inkscape"
   xmlns:sodipodi="http://sodipodi.sourceforge.net/DTD/sodipodi-0.dtd"
   xmlns="http://www.w3.org/2000/svg"
   xmlns:svg="http://www.w3.org/2000/svg"
   xmlns:rdf="http://www.w3.org/1999/02/22-rdf-syntax-ns#"
   xmlns:cc="http://creativecommons.org/ns#"
   xmlns:dc="http://purl.org/dc/elements/1.1/">
  <sodipodi:namedview
     id="namedview26"
     pagecolor="#ffffff"
     bordercolor="#999999"
     borderopacity="1"
     inkscape:showpageshadow="0"
     inkscape:pageopacity="0"
     inkscape:pagecheckerboard="0"
     inkscape:deskcolor="#d1d1d1"
     showgrid="false"
     inkscape:zoom="13.397849"
     inkscape:cx="38.17777"
     inkscape:cy="37.468701"
     inkscape:window-width="2560"
     inkscape:window-height="1377"
     inkscape:window-x="-8"
     inkscape:window-y="-8"
     inkscape:window-maximized="1"
     inkscape:current-layer="Layer_1" />
  <defs
     id="defs7">
    <style
       id="style2">.cls-1{fill:none;}.cls-2{clip-path:url(#clip-path);}.cls-3{fill:#fff;}.cls-4{fill:#b9cd32;}</style>
    <clipPath
       id="clip-path">
      <rect
         class="cls-1"
         x="0.35"
         y="-0.17"
         width="92.43"
         height="74.27"
         id="rect4" />
    </clipPath>
  </defs>
  <title
     id="title9">Artboard 1</title>
  <g
     class="cls-2"
     clip-path="url(#clip-path)"
     id="g23">
    <path
       id="path13"
       style="fill:#02808a;fill-opacity:1"
       class="cls-3"
       d="M 65.210938 -0.0390625 L 63.410156 0.009765625 L 61.220703 0.009765625 A 3.31 3.31 0 0 0 60.679688 0.0703125 A 7.36 7.36 0 0 1 58.759766 0.30078125 L 57.279297 0.30078125 L 56.779297 0.30078125 C 56.459297 0.30078125 56.129297 0.40039063 55.779297 0.40039062 L 49.140625 0.40039062 A 1.7 1.7 0 0 0 48.589844 0.40039062 A 4.13 4.13 0 0 1 47.279297 0.50976562 L 45.800781 0.50976562 A 4.21 4.21 0 0 0 45.300781 0.50976562 A 7.34 7.34 0 0 1 44.480469 0.59960938 L 39.25 0.59960938 A 1.62 1.62 0 0 0 38.710938 0.59960938 A 4.61 4.61 0 0 1 37.279297 0.7109375 L 34.419922 0.7109375 A 5.09 5.09 0 0 0 33.869141 0.7109375 C 33.559141 0.7109375 33.249453 0.79054691 32.939453 0.81054688 A 8 8 0 0 0 31.740234 0.81054688 A 6.26 6.26 0 0 1 30.529297 0.91992188 A 2 2 0 0 0 29.929688 0.91992188 C 29.099688 1.169921 28.240153 0.91945397 27.410156 1.1894531 C 26.350159 1.1894531 25.300231 1.3609378 24.240234 1.4609375 C 23.420237 1.5309372 22.589528 1.5796094 21.769531 1.5996094 C 19.869537 1.6696091 17.960775 1.5996094 16.050781 1.5996094 A 1.19 1.19 0 0 1 15.789062 1.5507812 A 1.2 1.2 0 0 1 16.339844 1.4609375 L 20.470703 1.4609375 A 1.68 1.68 0 0 0 21.019531 1.4609375 A 4.45 4.45 0 0 1 22.330078 1.3398438 A 1.61 1.61 0 0 0 22.769531 1.3398438 C 23.569528 1.1298444 24.379925 1.2703119 25.169922 1.0703125 L 25.339844 1.0703125 L 25.550781 0.93945312 A 5.78 5.78 0 0 0 24 1.140625 A 2.56 2.56 0 0 1 23.449219 1.1894531 L 20.929688 1.3496094 L 20.769531 1.3496094 A 7.34 7.34 0 0 1 19.839844 1.4492188 L 12.640625 1.4492188 L 12.029297 1.4492188 C 12.029297 1.4492188 12.029219 1.5090625 11.949219 1.5390625 C 11.869219 1.5690625 12.039609 1.7603912 12.099609 1.9003906 L 11.609375 2.0996094 C 11.609375 2.2696088 11.690703 2.4007818 11.720703 2.5507812 A 1.67 1.67 0 0 0 11.369141 3.8496094 C 10.659141 3.8996091 9.2201532 4.0305469 8.1601562 4.0605469 C 8.8101544 3.9205472 10.160706 3.8399997 10.970703 3.75 A 19.5 19.5 0 0 0 8.5 3.859375 A 5.62 5.62 0 0 1 9.3203125 3.859375 A 16.53 16.53 0 0 1 6.2695312 4.0898438 C 6.3495312 3.9998438 5.99953 3.9999216 5.5195312 3.9199219 L 4.6601562 3.9199219 L 3.3007812 3.9199219 L 3.3007812 4.6503906 L 3.3007812 5.2695312 A 3.09 3.09 0 0 1 3.1894531 5.9394531 C 3.3294528 8.1594465 3.1294534 10.349462 3.1894531 12.939453 C 3.4894522 12.019456 3.1897665 13.689297 3.5097656 13.529297 A 4.45 4.45 0 0 1 3.5097656 14.419922 L 3.3300781 16.25 C 3.2400784 16.68 3.2594531 15.670469 3.1894531 15.730469 C 3.1894531 17.050463 3.0704685 16.280159 2.9804688 17.160156 C 3.0904682 16.980156 3.1396091 17.619141 3.0996094 18.369141 L 3.2402344 17.310547 C 3.4002338 19.150541 2.9806256 18.899769 3.140625 20.759766 L 3 20.140625 A 34.73 34.73 0 0 0 3.2402344 24.589844 C 3.2402344 24.759844 3.1196094 24.979841 3.0996094 24.589844 L 3.0996094 26.820312 L 2.8691406 26.890625 L 3.109375 27.150391 L 3.109375 27.300781 L 2.6894531 27.439453 C 2.6894531 27.679453 2.8694525 27.880078 2.6894531 28.080078 A 1.52 1.52 0 0 0 2.4394531 29.439453 L 2.8691406 29.699219 L 2.4609375 30 A 2.51 2.51 0 0 0 2.4609375 30.599609 A 1.78 1.78 0 0 0 2.6503906 31.080078 C 2.5103912 31.210078 2.3900003 31.340315 2.5 31.570312 A 1.92 1.92 0 0 1 2.6699219 32.669922 C 2.6199219 33.189919 2.8392197 33.529375 3.1992188 33.609375 L 3.1992188 34.240234 L 3.1191406 33.759766 L 3.1191406 34.619141 C 2.8491415 34.689141 2.5903116 34.769375 2.3203125 34.859375 A 3 3 0 0 0 0.98046875 35.609375 A 0.87 0.87 0 0 1 0.6796875 36.339844 C 0.6796875 36.519844 0.82968705 36.700625 0.6796875 36.890625 A 1.63 1.63 0 0 0 0.40039062 38.150391 L 0.7109375 38.470703 C 0.46093825 38.900703 0.14906367 39.319378 0.5390625 39.859375 L 0.34960938 40.220703 C 0.42960914 40.430703 0.51007834 40.620547 0.58007812 40.810547 A 1.88 1.88 0 0 1 0.58007812 41.519531 C 0.58007812 41.979531 0.85039156 42.519531 1.1503906 42.519531 L 3 42.519531 C 3 44.669525 3.1995315 46.340944 3.2695312 48.460938 C 3.0295321 49.950932 3.1690622 53.460397 3.0390625 55.900391 C 3.0390625 55.620391 3.1492188 55.799844 3.1992188 56.089844 A 1.15 1.15 0 0 0 3 56.900391 C 3 56.950391 2.9994531 57.019844 2.9394531 57.089844 A 2.94 2.94 0 0 0 2.8691406 58.650391 A 0.54 0.54 0 0 1 2.8691406 58.980469 A 1.62 1.62 0 0 0 2.7890625 59.769531 A 0.89 0.89 0 0 1 2.7890625 60.050781 A 1.35 1.35 0 0 0 2.9394531 60.939453 A 0.83 0.83 0 0 1 3.0292969 61.560547 A 1.33 1.33 0 0 0 3.109375 62.400391 L 3.109375 62.460938 A 35.6 35.6 0 0 1 3.109375 67.699219 C 3.1693747 68.269216 3.1702344 68.969065 3.2402344 69.539062 L 3.0996094 69.539062 L 3.0996094 71.099609 L 7.109375 71.099609 L 6.7109375 71.199219 C 7.8109342 71.199219 8.099378 70.789297 9.109375 70.779297 L 9.4199219 70.990234 C 11.339916 70.990234 13.279928 71.170234 15.169922 70.990234 C 15.169922 70.990234 15.079531 71.079844 14.769531 71.089844 C 15.359531 71.089844 16.640628 71.159844 17.390625 71.089844 A 3 3 0 0 1 17.619141 71.349609 L 17.310547 71.630859 C 17.520547 71.870859 17.780237 71.689844 17.990234 71.839844 C 17.820237 71.979844 17.570781 71.840938 17.550781 72.210938 L 17.550781 72.269531 L 18 72.269531 C 18 72.269531 18.000547 72.330625 18.060547 72.390625 L 17.679688 72.619141 L 17.810547 72.890625 C 17.730547 73.000625 17.539297 72.889688 17.529297 73.179688 L 17.869141 73.330078 L 17.869141 73.779297 A 2.68 2.68 0 0 0 18.220703 73.779297 L 22.019531 73.779297 A 3.29 3.29 0 0 0 22.460938 73.779297 C 22.680935 73.779297 22.889375 73.709453 23.109375 73.689453 L 25.25 73.519531 L 25.359375 73.519531 C 26.049372 73.429531 26.739688 73.329531 27.429688 73.269531 C 28.119685 73.209531 28.890862 73.149609 29.630859 73.099609 L 29.839844 73.099609 L 30.5 73.019531 L 32.910156 72.859375 L 33.130859 72.859375 A 5.51 5.51 0 0 1 33.839844 72.769531 L 38.130859 72.769531 L 38.679688 72.769531 C 39.009685 72.769531 39.329688 72.859141 39.679688 72.869141 A 8.79 8.79 0 0 1 40.939453 72.869141 C 41.79945 73.059138 42.659534 72.929612 43.519531 73.099609 C 44.129531 73.219609 44.760862 73.100237 45.380859 73.240234 C 46.000859 73.380234 46.909688 73.240625 47.679688 73.390625 C 48.449685 73.540625 49.100315 73.389297 49.820312 73.529297 C 50.540312 73.669297 51.459065 73.529453 52.289062 73.689453 C 53.119062 73.849453 53.709925 73.750315 54.419922 73.820312 C 55.419919 73.910312 56.419925 73.890234 57.419922 73.990234 A 11 11 0 0 0 58.570312 73.990234 L 59.230469 73.990234 A 8.58 8.58 0 0 0 60.099609 74.089844 L 66.710938 74.089844 A 9.69 9.69 0 0 0 69.710938 73.630859 A 0.37 0.37 0 0 0 70.009766 73.369141 A 1.55 1.55 0 0 1 70.210938 73.050781 C 70.110938 72.870781 69.910078 73.160156 69.830078 72.910156 C 70.060078 72.610159 70.289375 72.310156 70.609375 71.910156 C 70.339375 71.990156 70.179531 72.040315 70.019531 72.070312 C 69.859531 72.100312 69.850312 72.070312 69.820312 72.070312 C 69.690315 71.830315 69.530859 71.900703 69.380859 71.970703 A 6.36 6.36 0 0 1 67.150391 72.300781 C 64.760397 72.350781 62.380228 72.300781 59.990234 72.300781 A 4 4 0 0 1 59.5 72.300781 C 59.19 72.300781 58.880312 72.219219 58.570312 72.199219 A 8.52 8.52 0 0 1 57.140625 72.199219 A 13.4 13.4 0 0 0 54.949219 72.080078 L 54.400391 72.080078 C 54.130391 72.080078 53.850078 72.000234 53.580078 71.990234 A 7.26 7.26 0 0 1 52.259766 71.990234 A 10.56 10.56 0 0 0 50.400391 71.880859 L 49.789062 71.880859 C 49.499065 71.880859 49.209922 71.789297 48.919922 71.779297 A 6.61 6.61 0 0 1 47.660156 71.779297 A 12 12 0 0 0 45.660156 71.660156 A 4 4 0 0 1 45.169922 71.660156 C 44.859922 71.660156 44.550234 71.570547 44.240234 71.560547 L 41.240234 71.390625 L 41.179688 71.390625 A 6 6 0 0 0 39.470703 71 A 4.91 4.91 0 0 1 38.919922 71 A 7.9 7.9 0 0 0 38.099609 70.910156 L 37.429688 70.910156 L 37.160156 70.820312 L 36.699219 70.820312 L 36.640625 70.820312 L 36.820312 70.759766 L 38.310547 70.759766 A 8.22 8.22 0 0 1 39.699219 71 C 40.239216 71 40.850938 70.999453 41.460938 70.939453 A 10.28 10.28 0 0 0 43.300781 71 L 43.460938 71 C 43.750935 71 44.040078 71.079609 44.330078 71.099609 A 6.11 6.11 0 0 1 45.380859 71.099609 A 9.39 9.39 0 0 0 47.289062 71.230469 A 3.15 3.15 0 0 1 47.730469 71.230469 C 48.060466 71.230469 48.390469 71.320078 48.730469 71.330078 A 6.29 6.29 0 0 1 49.880859 71.330078 A 11.18 11.18 0 0 0 51.960938 71.460938 A 3.13 3.13 0 0 1 52.400391 71.460938 C 52.670388 71.460938 52.950703 71.540781 53.220703 71.550781 A 8.52 8.52 0 0 1 54.650391 71.550781 A 11.62 11.62 0 0 0 56.509766 71.669922 C 56.879763 71.669922 57.239375 71.749297 57.609375 71.779297 L 58.039062 71.779297 A 11.73 11.73 0 0 1 60.619141 71.919922 A 1.22 1.22 0 0 0 60.949219 71.919922 C 62.999213 71.849922 65.059381 72.030547 67.109375 71.810547 A 19.73 19.73 0 0 0 70.109375 71.150391 A 2 2 0 0 0 70.429688 70.970703 A 0.74 0.74 0 0 0 69.990234 70.970703 C 69.850237 70.970703 69.710547 71.170703 69.560547 70.970703 A 4.23 4.23 0 0 0 70.029297 70.720703 A 4.5 4.5 0 0 0 70.400391 70.439453 L 70.570312 70.539062 L 71.730469 70.369141 C 73.380463 70.239141 74.579928 70.74 76.669922 70.5 L 76.400391 70.400391 A 12.41 12.41 0 0 1 78.640625 70.460938 A 1 1 0 0 1 79.179688 70.400391 L 79.179688 70.480469 L 81.019531 70.349609 C 82.449528 70.349609 80.800865 70.659688 82.880859 70.679688 C 83.650859 70.679688 85.079062 70.450625 84.789062 70.390625 C 84.499065 70.330625 83.990703 70.339766 83.970703 70.259766 L 84.679688 70.259766 L 84.789062 70.259766 L 84.789062 70.109375 A 0.12 0.12 0 0 0 84.789062 69.939453 L 84.789062 68.169922 A 0.86 0.86 0 0 0 84.929688 67.759766 L 84.789062 67.689453 L 84.789062 67.179688 A 0.5 0.5 0 0 0 84.980469 67.060547 A 0.4 0.4 0 0 0 84.980469 66.929688 L 84.830078 66.660156 L 84.970703 66.380859 C 84.890703 66.270859 84.82 66.160781 84.75 66.050781 L 84.75 65.519531 L 84.859375 65.429688 L 84.859375 64.869141 A 0.78 0.78 0 0 0 84.710938 64.710938 L 84.710938 64.179688 L 84.710938 62.140625 L 84.710938 62.050781 L 84.710938 61.890625 L 84.710938 60.810547 A 0.76 0.76 0 0 1 84.779297 61.150391 C 84.879297 60.370391 84.699297 60.459294 84.779297 59.779297 L 84.720703 59.019531 C 84.720703 59.139531 84.839844 58.959219 84.839844 59.199219 C 84.928737 57.944837 84.6991 57.142027 84.837891 56.640625 C 84.830836 55.388529 84.727478 55.904486 84.630859 55.740234 L 84.630859 54.849609 L 84.890625 54.189453 L 85 54 C 85 53.8 85.000078 53.410469 85.080078 53.480469 C 84.980078 52.750469 85.009922 53.609685 84.919922 53.179688 C 85.049922 52.239688 84.849844 50.569375 85.089844 50.359375 C 84.979844 50.019375 84.999685 51.229528 84.929688 50.269531 L 89.789062 50.269531 A 10.4 10.4 0 0 0 91.550781 50.160156 A 1.33 1.33 0 0 0 92.439453 49.599609 C 92.329453 49.159612 92.579922 48.809919 92.669922 48.419922 C 92.513264 48.135979 92.271647 48.174131 92.064453 47.988281 C 92.324944 47.927489 92.593643 47.973943 92.759766 47.660156 A 2 2 0 0 0 92.390625 46.410156 A 1.4 1.4 0 0 0 92.679688 45.410156 L 92.390625 45.169922 L 92.509766 44.740234 C 92.369766 44.510237 91.999609 44.540312 92.099609 44.070312 C 92.189609 43.910315 92.440703 44.009453 92.470703 43.689453 L 92.179688 43.289062 A 0.72 0.72 0 0 0 91.949219 43.119141 C 91.699219 43.059141 91.439453 43.000935 91.189453 42.960938 C 90.519456 42.850938 89.83945 42.770859 89.189453 42.630859 C 88.019456 42.390862 86.849919 42.089609 85.669922 41.849609 L 85.109375 41.75 C 85.109375 41.060003 85.159453 40.259997 85.189453 39.75 A 8.5 8.5 0 0 1 85 37.539062 C 85.11 37.539062 85.159219 37.719456 85.199219 38.189453 L 85.199219 37.380859 A 3.79 3.79 0 0 1 85.089844 36.380859 L 85.230469 36.580078 C 85.230469 35.810081 85.140859 35.020856 85.130859 34.130859 L 85.550781 34.130859 A 4.87 4.87 0 0 1 86.210938 34.130859 A 6.54 6.54 0 0 0 88.890625 34.130859 C 89.300625 34.050859 89.460547 33.860078 89.560547 33.330078 A 1.78 1.78 0 0 1 89.699219 32.789062 A 1.24 1.24 0 0 0 89.859375 32.050781 C 89.859375 31.790784 89.960469 31.539297 89.980469 31.279297 A 1.33 1.33 0 0 0 89.880859 30.800781 C 89.830859 30.640781 89.759453 30.500078 89.689453 30.330078 C 89.769453 30.040078 89.849453 29.739216 89.939453 29.449219 A 1.58 1.58 0 0 1 89.740234 28.890625 A 0.51 0.51 0 0 0 89.470703 28.339844 C 89.470703 28.339844 89.470625 28.220156 89.390625 28.160156 C 89.510625 28.010156 89.619766 27.870935 89.759766 27.710938 A 2.8 2.8 0 0 1 89.519531 27.349609 A 0.89 0.89 0 0 0 88.609375 26.830078 A 3.38 3.38 0 0 1 88.060547 26.830078 L 85.820312 26.560547 L 85.419922 26.5 L 86.179688 26.259766 A 0.77 0.77 0 0 0 86.669922 25.619141 A 3.45 3.45 0 0 1 86.910156 24.830078 A 4.23 4.23 0 0 0 87.060547 23.929688 L 87.060547 23.869141 A 1.22 1.22 0 0 0 87 23 A 2.75 2.75 0 0 1 86.839844 22.660156 A 2 2 0 0 0 87.089844 21.580078 L 86.839844 21.310547 L 86.910156 20.980469 A 1.06 1.06 0 0 1 86.490234 20.339844 L 86.800781 19.949219 A 3.12 3.12 0 0 0 86.480469 19.5 A 1 1 0 0 0 86.099609 19.240234 A 1 1 0 0 0 85.720703 19.240234 L 85.240234 19.240234 A 1.44 1.44 0 0 1 85.949219 19.320312 A 0.35 0.35 0 0 1 85.740234 19.390625 L 85.050781 19.390625 L 85.050781 19.300781 L 85.240234 19.300781 L 85.240234 19.240234 L 85.089844 19.240234 C 85.089844 18.560237 85.090234 17.899216 84.990234 17.449219 C 84.890234 16.999219 85.080625 16.700078 85.140625 16.830078 A 11.89 11.89 0 0 1 85.140625 14.730469 C 85.220625 15.550466 85.209219 14.440081 85.199219 15.580078 A 12 12 0 0 0 85.199219 13.109375 C 85.319219 13.509375 85.360312 12.310781 85.320312 11.800781 L 85.230469 12.550781 L 85.230469 10.970703 L 85.400391 11.25 C 85.600388 9.0600066 85.050391 7.3008543 85.400391 5.6308594 C 85.290391 5.0508612 85.319685 6.8207797 85.179688 6.3007812 C 85.179688 5.9407824 85.179531 5.5704676 85.269531 5.2304688 C 85.269531 4.7004703 85.370391 4.2298426 85.400391 3.8398438 L 84.759766 3.8398438 L 83.640625 3.8398438 C 83.430625 3.8398438 83.269375 3.8399222 83.109375 3.9199219 A 4.53 4.53 0 0 1 81.720703 4.0195312 C 81.900703 4.0795312 82.079997 4.2407815 81 4.3007812 C 79.920003 4.3607812 79.760391 4.0499999 80.400391 4 L 80.740234 4 C 81.070234 4 81.499609 3.9508591 81.099609 3.8808594 L 81 3.8691406 C 80.5 3.8091409 79.109453 3.8207028 79.439453 3.7207031 C 78.679456 3.7807031 79.109922 3.8196094 79.669922 3.8496094 C 78.379925 3.7596097 77.670075 3.8490622 76.330078 3.7890625 C 76.540078 3.7890625 76.729531 3.890625 76.519531 3.890625 C 74.569537 3.8206253 75.659838 3.9992969 74.339844 4.0292969 C 73.589844 3.9392972 74.609294 3.8106253 73.279297 3.890625 C 72.4693 3.8306253 73.109688 3.7296874 73.429688 3.6796875 A 18.53 18.53 0 0 1 70.429688 3.5898438 L 70.070312 3.5898438 L 70.429688 3.7109375 A 2.21 2.21 0 0 1 69.75 3.640625 C 69.36 3.7106247 70.039294 3.8294534 69.279297 3.9394531 A 8.84 8.84 0 0 1 67.580078 3.8496094 C 69.150075 3.8496094 67.41024 3.6901562 68.740234 3.6601562 A 7.46 7.46 0 0 1 67.949219 3.6601562 C 66.449222 3.5201568 67.2407 3.8300781 65.720703 3.8300781 L 65.720703 3.5292969 A 1.26 1.26 0 0 0 65.720703 3.0195312 A 3.61 3.61 0 0 1 65.630859 1.3203125 A 0.56 0.56 0 0 0 65.630859 1.1992188 C 65.500862 1.1992188 65.400234 1.4607809 65.240234 1.3007812 C 65.320234 1.1707818 65.400703 1.0403903 65.470703 0.90039062 C 65.540703 0.76039105 65.590703 0.71960901 65.470703 0.59960938 A 2.53 2.53 0 0 1 65.099609 0.91015625 A 0.21 0.21 0 0 1 64.849609 0.91015625 C 64.759609 0.82015652 64.849609 0.69960907 64.849609 0.59960938 C 64.849609 0.49960965 65.080938 0.19093681 65.210938 -0.0390625 z M 84.837891 56.640625 C 84.838138 56.684444 84.839844 56.691881 84.839844 56.740234 L 84.839844 56.619141 C 84.837999 56.625288 84.839618 56.634383 84.837891 56.640625 z M 64.839844 0.1796875 C 64.839844 0.22968735 64.749453 0.31007819 64.689453 0.33007812 A 3.63 3.63 0 0 1 64.050781 0.4609375 L 61.460938 0.4609375 A 11.45 11.45 0 0 0 59.060547 0.72070312 A 2.69 2.69 0 0 1 58.570312 0.72070312 L 56.910156 0.72070312 A 4.08 4.08 0 0 0 55.710938 0.83984375 A 2 2 0 0 1 55.109375 0.83984375 L 49.220703 0.83984375 C 48.910703 0.83984375 48.599062 0.90945322 48.289062 0.93945312 L 47.689453 0.93945312 A 8.06 8.06 0 0 0 46.544922 1.0117188 A 7.43 7.43 0 0 0 47.050781 0.80078125 L 47.710938 0.80078125 L 54.529297 0.80078125 A 7.34 7.34 0 0 0 55.460938 0.69921875 L 55.960938 0.69921875 A 9.09 9.09 0 0 0 57.429688 0.5 A 9.91 9.91 0 0 1 59 0.4609375 A 3.44 3.44 0 0 0 60.119141 0.34960938 A 1.62 1.62 0 0 1 60.609375 0.34960938 L 62.759766 0.34960938 A 5.64 5.64 0 0 0 64.839844 0.1796875 z M 65.007812 1.1875 C 65.085312 1.185 65.165234 1.2042185 65.240234 1.1992188 C 64.990237 1.4992179 64.989062 1.5005463 64.789062 1.3105469 C 64.854062 1.2155472 64.930315 1.19 65.007812 1.1875 z M 30.03125 1.5195312 A 4.93 4.93 0 0 0 29 1.7597656 A 1.83 1.83 0 0 1 28.669922 1.7597656 A 5 5 0 0 0 27.240234 1.8808594 A 3 3 0 0 1 26.640625 1.8808594 L 25.580078 2 C 25.000081 2.0699997 24.410078 2.0006253 23.830078 2.140625 A 9.4 9.4 0 0 1 22.070312 2.140625 L 22.070312 2.0703125 L 22.490234 2.0703125 L 23.580078 2 L 24.019531 2 L 24.830078 1.9003906 A 1 1 0 0 1 25 1.9003906 L 27.349609 1.7402344 L 28.279297 1.6308594 A 3.25 3.25 0 0 1 28.720703 1.6308594 A 5.66 5.66 0 0 0 30.03125 1.5195312 z M 34.419922 15.701172 C 37.742416 15.699922 42.649153 15.715 49.119141 15.75 A 0.48 0.48 0 0 1 49.359375 15.810547 L 50.740234 16.560547 A 0.49 0.49 0 0 1 51 17 L 51 19.509766 L 51.1875 19.449219 A 0.44 0.44 0 0 0 51.220703 19.419922 C 51.216837 19.428758 51.212908 19.434701 51.208984 19.443359 L 51.220703 19.439453 L 51.203125 19.453125 C 51.137326 19.596252 51.064456 19.720139 51 19.839844 L 51 20.919922 L 51.160156 20.919922 L 51 21 L 51 21.289062 L 51.310547 21.210938 A 3 3 0 0 0 51 21.519531 L 51 22.179688 L 51 23.660156 A 0.56 0.56 0 0 1 50.830078 24.039062 A 0.52 0.52 0 0 1 50.429688 24.160156 L 45.429688 23.529297 L 43 23.529297 L 35.349609 24.109375 L 35.25 26.509766 L 35.130859 32.359375 L 50.630859 32.490234 A 0.47 0.47 0 0 1 50.980469 32.640625 A 0.46 0.46 0 0 1 51.119141 33 L 50.949219 37.470703 C 50.979219 37.440703 51.050781 37.380859 51.050781 37.380859 A 1.63 1.63 0 0 1 50.939453 37.550781 L 50.869141 39.419922 A 0.54 0.54 0 0 1 50.359375 39.900391 L 41.859375 39.650391 L 39.060547 40.019531 L 35.720703 40.019531 L 35.130859 40.699219 L 35.839844 52.359375 L 37.25 52.359375 L 38.410156 52.050781 A 5.81 5.81 0 0 0 37.589844 52.369141 L 37.730469 52.369141 C 38.120467 52.259141 38.410703 52.149297 38.470703 52.029297 C 38.410703 52.149297 38.329766 52.260625 38.259766 52.390625 L 48.640625 52.679688 L 48.779297 52.679688 L 50.650391 53.300781 A 0.5 0.5 0 0 1 51 53.800781 L 50.820312 56.369141 L 51.119141 56.289062 A 5.81 5.81 0 0 1 50.75 57.779297 C 50.78 57.749297 50.849609 57.689453 50.849609 57.689453 L 50.75 57.880859 L 50.75 58.970703 A 0.51 0.51 0 0 1 50.25 59.449219 L 28.5 59.080078 A 0.51 0.51 0 0 1 28.019531 58.679688 L 27.839844 58.679688 L 28 58.470703 L 27.640625 56.669922 L 27.169922 56.789062 C 27.319922 56.639064 27.459611 56.509375 27.599609 56.359375 L 27.369141 54.359375 L 27.369141 52.689453 L 27.140625 52.75 L 27.380859 52.509766 L 27.380859 51.099609 C 27.160861 51.149609 27.170861 50.769531 27.380859 50.519531 L 27.599609 42.519531 C 27.439611 42.559531 27.459611 42.289375 27.599609 42.109375 L 27.699219 38.230469 C 27.519219 38.280469 27.519219 38.089219 27.699219 37.949219 L 27.699219 36.539062 L 27.509766 36.539062 L 27.699219 36.380859 L 27.699219 35.859375 L 27.699219 34.710938 C 27.549219 34.750936 27.459219 34.689531 27.699219 34.519531 L 27.699219 32.150391 L 27.550781 32.150391 L 27.658203 32.085938 C 27.656953 32.077188 27.669219 32.060547 27.699219 32.060547 L 27.699219 30.550781 C 27.389219 30.650781 27.229219 30.240389 27.699219 29.650391 L 27.699219 28 L 27.699219 27.769531 C 27.549219 27.809531 27.539219 27.670547 27.699219 27.560547 L 27.560547 23.339844 L 27.099609 23.460938 L 27.560547 23.310547 L 27.560547 23.210938 A 1.7 1.7 0 0 0 27.039062 23.480469 L 27.560547 23.039062 L 27.560547 21.939453 L 27.230469 22.029297 C 27.330469 21.909297 27.450781 21.799686 27.550781 21.679688 L 27.5 20.150391 L 27.5 18.810547 C 27.14 18.900547 27.02 17.800859 27.5 17.630859 L 27.5 16.630859 A 0.49 0.49 0 0 1 27.869141 16.130859 L 29.230469 15.75 C 29.360469 15.72 31.097428 15.702422 34.419922 15.701172 z M 51.310547 21.210938 A 1.73 1.73 0 0 0 51 21.349609 L 51 21.429688 A 0.8 0.8 0 0 0 51.310547 21.210938 z M 65.339844 15.810547 L 70.279297 16.179688 A 0.62 0.62 0 0 1 70.509766 16.25 L 73.380859 18 L 75.490234 19.630859 L 75.640625 19.630859 L 75.550781 19.720703 L 77.310547 21.140625 A 0.43 0.43 0 0 1 77.460938 21.339844 L 77.960938 22.580078 L 78.199219 22.519531 L 78.009766 22.699219 L 78.410156 23.699219 L 78.519531 23.699219 L 78.429688 23.779297 L 79.330078 26 A 11 11 0 0 1 80.259766 30.470703 A 18.94 18.94 0 0 1 78.839844 34.740234 A 0.53 0.53 0 0 1 78.779297 34.839844 L 75.150391 39.220703 C 75.070391 39.310703 73.679996 40.729766 70 41.509766 A 39.55 39.55 0 0 1 63.880859 42.460938 L 62.259766 42.460938 L 62.699219 50.460938 L 62.710938 50.460938 L 62.710938 50.519531 A 0.33 0.33 0 0 0 62.830078 50.410156 C 62.800078 50.500156 62.720703 50.589453 62.720703 50.689453 L 62.859375 53.279297 A 43.23 43.23 0 0 1 62.759766 58.279297 L 62.759766 59.390625 A 0.51 0.51 0 0 1 62.259766 59.880859 L 55.259766 60.009766 A 0.51 0.51 0 0 1 54.900391 59.859375 A 0.48 0.48 0 0 1 54.759766 59.490234 L 54.509766 59.560547 A 2 2 0 0 1 54.800781 58.349609 L 54.800781 57.939453 L 54.599609 58 L 54.880859 57.800781 L 54.970703 55.220703 L 54.580078 55.320312 L 54.990234 54.820312 L 54.990234 53.320312 L 54.689453 53.400391 C 54.789453 53.270391 54.9 53.14 55 53 L 55.160156 49.830078 L 54.839844 49.910156 C 54.939844 49.730156 55.059922 49.570625 55.169922 49.390625 L 55.25 47.150391 L 55.095703 47.150391 A 0.56 0.56 0 0 0 55.060547 47.179688 C 55.067567 47.168656 55.073068 47.160869 55.080078 47.150391 L 55.060547 47.150391 L 55.099609 47.123047 C 55.155581 47.042516 55.211525 46.971026 55.259766 46.890625 L 55.259766 45.630859 L 55.189453 44.910156 C 55.079453 44.940156 55.079453 44.839844 55.189453 44.839844 L 55.189453 44.769531 C 55.069453 44.839531 55.089453 44.779922 55.189453 44.669922 L 55.050781 43.050781 C 54.520782 42.980781 54.529688 42.61914 54.929688 41.619141 L 54.929688 41.320312 L 55 39.560547 C 54.76 39.620547 54.78 39.34039 55 39.150391 L 55 37.960938 C 54.78 38.010937 54.79 37.719297 55 37.529297 L 55.449219 34.880859 C 55.209219 34.940859 55.219219 34.289453 55.449219 33.939453 L 55.449219 33.529297 C 55.169219 33.599297 55.189219 33.209218 55.449219 32.949219 L 55.609375 28.509766 L 55.25 28.609375 L 55.630859 28.130859 L 55.630859 27.130859 C 55.530859 27.130859 55.38086 26.340859 55.630859 26.130859 L 55.630859 25.130859 C 55.47086 25.170859 55.47086 25.000859 55.630859 24.880859 L 55.630859 23.490234 C 55.31086 23.600234 55.32086 22.959609 55.630859 22.599609 L 55.630859 22.310547 L 55.220703 22.419922 C 55.360703 22.229922 55.500625 22.060859 55.640625 21.880859 L 55.640625 21.359375 C 55.280625 21.409375 54.830938 21.439375 54.960938 21.359375 C 54.810938 21.419375 55.299922 20.869765 55.669922 20.509766 L 55.669922 20.380859 C 55.359922 20.460859 55.230938 20.379766 55.460938 20.259766 C 55.130938 20.349766 55.369219 19.840234 55.699219 19.490234 L 55.699219 19.199219 L 54.839844 19.429688 L 55.400391 18.929688 L 54.970703 19.039062 L 55.119141 18.939453 C 55.029141 18.939453 55.840468 18.279453 55.480469 17.939453 A 0.76 0.76 0 0 0 55.320312 18.050781 L 55.460938 17.910156 A 0.89 0.89 0 0 1 55.712891 17.779297 L 55.570312 17.779297 L 55.730469 17.710938 L 55.730469 17.769531 A 0.89 0.89 0 0 1 55.75 17.759766 L 55.75 16.910156 A 0.51 0.51 0 0 1 56.210938 16.429688 L 65.339844 15.810547 z M 55.730469 17.769531 A 0.89 0.89 0 0 0 55.712891 17.779297 L 55.730469 17.779297 L 55.730469 17.769531 z M 22.759766 16.029297 A 0.5 0.5 0 0 1 23.259766 16.509766 L 23.320312 18.509766 L 23.539062 18.509766 L 23.599609 18.509766 C 23.789609 18.459766 23.560859 18.829219 23.380859 18.949219 L 23.320312 19 L 23.330078 20.679688 L 23.570312 22.109375 A 0.49 0.49 0 0 1 23.189453 22.679688 L 21.830078 22.970703 L 21.830078 23.449219 L 21.689453 35.310547 L 21.689453 36.839844 C 21.889453 36.779844 21.889453 37.009922 21.689453 37.169922 L 21.560547 47.640625 C 21.710547 47.600625 21.710547 47.849766 21.560547 48.009766 L 21.560547 49.310547 C 21.720547 49.270547 21.710547 49.500156 21.560547 49.660156 L 21.560547 50.820312 C 21.960544 50.720315 21.960544 51.580081 21.560547 52.080078 L 21.560547 53.330078 L 23.359375 53.529297 A 0.5 0.5 0 0 1 23.810547 54.009766 L 23.810547 54.820312 C 24.080547 54.730315 24.100547 55.469922 23.810547 55.919922 L 23.810547 56.339844 L 23.820312 56.390625 C 24.193613 56.292388 23.46897 57.571041 24.087891 57.910156 C 24.145611 57.886709 24.231391 57.854854 24.119141 57.929688 C 24.107152 57.924222 24.098998 57.916242 24.087891 57.910156 C 24.06848 57.918041 24.039062 57.929688 24.039062 57.929688 L 23.859375 58.009766 L 23.859375 58.759766 A 0.49 0.49 0 0 1 23.380859 59.269531 L 11.5 59.650391 A 0.52 0.52 0 0 1 11.150391 59.509766 A 0.49 0.49 0 0 1 11 59.160156 L 10.869141 54.929688 A 0.49 0.49 0 0 1 11.289062 54.429688 L 13.869141 54 L 13.800781 31.939453 C 13.710781 31.969453 13.700781 31.919375 13.800781 31.859375 L 13.800781 31.810547 C 13.680781 31.870547 13.700781 31.789922 13.800781 31.669922 L 13.800781 30.259766 L 13.609375 30.259766 L 13.800781 30.160156 L 13.800781 30.109375 C 13.720781 30.159375 13.740781 30.099531 13.800781 30.019531 L 13.800781 23.019531 L 10.279297 22.910156 A 0.46 0.46 0 0 1 9.9199219 22.740234 A 0.5 0.5 0 0 1 9.8007812 22.369141 L 10.029297 19.75 L 10.029297 19.650391 C 9.889297 19.710391 9.919297 19.660547 10.029297 19.560547 L 10.119141 18.619141 L 9.9804688 18.619141 C 9.8304691 18.669141 9.9193756 18.590469 10.109375 18.480469 L 10.269531 16.609375 A 0.49 0.49 0 0 1 10.759766 16.150391 L 22.759766 16.029297 z M 29.449219 16.740234 L 28.509766 17 L 28.519531 17.289062 A 4 4 0 0 1 29.580078 17.060547 C 30.320076 17.020547 30.320313 17.049766 30.320312 17.259766 L 32.119141 16.769531 C 31.949141 17.179531 31.779609 17.59 31.599609 18 L 33.529297 17.490234 C 33.479297 17.600234 33.369141 17.689064 33.369141 17.789062 L 35.269531 17.279297 C 35.049531 17.629297 34.829609 17.949297 34.599609 18.279297 A 4.8 4.8 0 0 1 35.439453 18.089844 L 37.810547 17.449219 A 5.22 5.22 0 0 1 39 17.189453 L 40.640625 16.740234 L 29.449219 16.740234 z M 32.119141 16.769531 A 3.63 3.63 0 0 0 31.380859 17.130859 C 31.770859 17.030859 32.059141 16.909531 32.119141 16.769531 z M 40.970703 16.75 L 40.890625 16.820312 L 41 16.75 L 40.970703 16.75 z M 41.029297 16.75 C 40.839297 17.21 40.639686 17.65008 40.429688 18.080078 A 5 5 0 0 1 41.119141 18 L 43 17.449219 L 42.150391 18.449219 L 42.339844 18.320312 A 3.12 3.12 0 0 1 43.560547 17.990234 L 45.820312 17.390625 L 45.640625 17.619141 L 45.820312 17.619141 L 48.230469 16.980469 C 48.060469 17.480467 47.879686 18.000469 47.679688 18.480469 L 48.119141 18.410156 L 50 17.910156 L 50 17.320312 L 49.029297 16.75 L 41.029297 16.75 z M 48.230469 16.980469 L 47.949219 17.179688 C 48.099219 17.119688 48.230469 17.060469 48.230469 16.980469 z M 65.330078 16.779297 L 59.019531 17.220703 A 0.55 0.55 0 0 1 58.869141 17.429688 L 59.689453 17.210938 L 59.419922 17.449219 L 60.669922 17.119141 C 60.409922 17.32914 60.169453 17.530235 59.939453 17.740234 L 60.599609 17.669922 L 62.369141 17.199219 C 61.789141 17.759218 61.239218 18.329922 60.699219 18.919922 C 61.129218 18.629922 61.580547 18.350078 62.060547 18.080078 A 3.56 3.56 0 0 1 63.220703 17.769531 L 63.449219 17.710938 C 63.679219 17.520938 63.910156 17.330625 64.160156 17.140625 A 2.55 2.55 0 0 1 65.369141 16.789062 L 65.330078 16.779297 z M 68.150391 16.990234 L 67.490234 17.660156 A 2.7 2.7 0 0 1 67.900391 17.599609 L 69.710938 17.109375 L 68.150391 16.990234 z M 20.449219 17.019531 L 19.449219 17.769531 A 6.21 6.21 0 0 1 20.769531 17.449219 L 22.240234 17.060547 L 22.230469 17.019531 L 20.449219 17.019531 z M 13.740234 17.060547 L 11.169922 17.089844 L 11.099609 17.859375 A 4.69 4.69 0 0 1 11.769531 17.689453 L 12.330078 17.429688 A 3.68 3.68 0 0 1 13.330078 17.169922 L 13.740234 17.060547 z M 69.890625 17.109375 L 69.720703 17.240234 L 69.900391 17.119141 L 69.890625 17.109375 z M 18.820312 17.119141 L 18.240234 17.560547 L 18.820312 17.490234 L 18.820312 17.509766 L 20.25 17.119141 L 18.820312 17.119141 z M 69.929688 17.130859 C 69.689688 17.380859 69.439219 17.60961 69.199219 17.849609 L 69.310547 17.849609 L 70.650391 17.490234 L 70.089844 17.130859 L 69.929688 17.130859 z M 16.550781 17.160156 L 16.060547 17.570312 A 4.06 4.06 0 0 1 17.5 17.230469 L 17.5 17.240234 L 17.800781 17.160156 L 16.550781 17.160156 z M 15.220703 17.169922 L 14.800781 17.529297 L 14.890625 17.529297 L 16.220703 17.169922 L 15.220703 17.169922 z M 22.259766 17.269531 A 23.32 23.32 0 0 0 20.259766 18.490234 A 7.54 7.54 0 0 1 21.259766 18.289062 L 22.259766 18.009766 L 22.259766 17.269531 z M 71 17.699219 A 16.11 16.11 0 0 1 69.619141 19.119141 A 6.35 6.35 0 0 1 70.400391 19 L 70.349609 19.039062 L 72.349609 18.519531 L 71 17.699219 z M 22.300781 18.179688 C 21.820784 18.459685 21.350156 18.750547 20.910156 19.060547 L 21.259766 18.990234 A 3.11 3.11 0 0 1 21.720703 18.890625 L 21.699219 18.890625 L 22.300781 18.730469 L 22.300781 18.179688 z M 11.099609 18.369141 L 11.080078 18.640625 L 11.400391 18.369141 L 11.099609 18.369141 z M 50 18.529297 C 49.75 18.999295 49.519531 19.52 49.269531 20 L 50 19.800781 L 50 18.529297 z M 72.369141 18.539062 A 17.21 17.21 0 0 1 70.919922 19.730469 L 70.460938 20.169922 A 5.17 5.17 0 0 1 71.689453 19.949219 L 73.519531 19.460938 A 11.23 11.23 0 0 0 72.349609 20.460938 A 3.6 3.6 0 0 1 73.919922 20.109375 L 74.300781 20 L 72.810547 18.810547 L 72.369141 18.539062 z M 11.019531 19.369141 L 11.009766 19.419922 L 11.130859 19.369141 L 11.019531 19.369141 z M 11.439453 19.369141 L 10.980469 19.490234 L 10.980469 19.759766 L 11.460938 19.369141 L 11.439453 19.369141 z M 22.349609 19.650391 L 21.640625 20.179688 L 22.050781 20.070312 L 19.400391 22.550781 L 21.050781 22.109375 A 0.42 0.42 0 0 1 21.269531 22 L 22.550781 21.699219 L 22.380859 20.699219 L 22.349609 19.650391 z M 29.234375 19.75 L 28.630859 19.910156 L 28.630859 20.599609 C 28.838596 20.322629 29.045999 20.036873 29.234375 19.75 z M 12.900391 19.759766 L 10.900391 20.300781 L 10.759766 21.939453 L 14.279297 22.029297 A 0.49 0.49 0 0 1 14.769531 22.519531 L 14.769531 24.619141 L 17 22.529297 L 15.869141 22.839844 L 16 22.730469 L 14.820312 23.039062 C 15.260312 22.629065 15.700391 22.250625 16.150391 21.890625 L 14.830078 22.25 C 15.220078 21.85 15.61 21.490625 16 21.140625 L 13.789062 21.779297 C 14.249062 21.349297 14.709688 20.950312 15.179688 20.570312 L 12.660156 21.240234 L 13.660156 20.470703 L 11.320312 21.099609 L 13.070312 19.759766 L 12.900391 19.759766 z M 11.330078 20.039062 L 10.919922 20.140625 L 10.919922 20.210938 C 11.069922 20.160938 11.199844 20.099062 11.339844 20.039062 L 11.330078 20.039062 z M 74.800781 20.410156 C 74.460782 20.780156 74.130781 21.160547 73.800781 21.560547 L 74.179688 21.509766 L 74.150391 21.509766 L 75.660156 21.109375 L 74.800781 20.410156 z M 43.570312 20.710938 C 43.190314 21.060936 42.819453 21.419064 42.439453 21.789062 A 2.71 2.71 0 0 1 40.830078 22.220703 L 38.970703 22.720703 L 39.150391 22.480469 A 5.28 5.28 0 0 1 38.150391 22.669922 L 36.910156 23 L 43 22.529297 L 44.75 22.539062 C 44.93 22.299064 45.109531 22.060547 45.269531 21.810547 L 44.689453 21.890625 L 42.570312 22.460938 A 16.53 16.53 0 0 0 43.570312 20.710938 z M 32.890625 21.080078 C 32.457292 21.386744 32.037526 21.720078 31.630859 22.080078 L 31.630859 22.169922 A 1.63 1.63 0 0 1 31.048828 22.439453 C 31.197385 22.402122 31.338845 22.390625 31.470703 22.390625 L 31.800781 22.300781 L 31.550781 22.380859 A 2 2 0 0 1 32.359375 22.449219 A 11.13 11.13 0 0 1 32.890625 21.080078 z M 75.910156 21.269531 A 10.41 10.41 0 0 0 74.810547 22.560547 L 75 22.560547 L 76.689453 22.119141 L 76.580078 21.810547 L 75.910156 21.269531 z M 63.140625 21.419922 L 61.960938 21.730469 C 61.970937 22.180468 62.029297 22.690079 62.029297 23.080078 L 62.429688 22.980469 L 62.429688 22.849609 L 62.919922 22.849609 L 63.349609 22.730469 L 63.25 22.839844 L 65.640625 22.769531 C 65.830625 22.489532 66.009219 22.210937 66.199219 21.960938 L 63.800781 22.599609 C 63.900781 22.44961 63.999609 22.329687 64.099609 22.179688 L 62.480469 22.619141 C 62.690469 22.189141 62.910625 21.799921 63.140625 21.419922 z M 63.800781 22.599609 C 64.140781 22.46961 64.44 22.319687 64.75 22.179688 A 1.75 1.75 0 0 0 63.800781 22.599609 z M 29.169922 21.560547 L 29.189453 21.570312 L 28.710938 21.699219 L 28.710938 22.330078 L 29.349609 21.560547 L 29.169922 21.560547 z M 46.369141 22.259766 L 45.449219 22.509766 L 45.580078 22.560547 L 45.990234 22.560547 C 46.130234 22.460547 46.249141 22.359766 46.369141 22.259766 z M 76.75 22.259766 A 8.76 8.76 0 0 0 75.929688 23.050781 L 76.439453 23 L 76.990234 22.849609 L 76.75 22.259766 z M 46.839844 22.279297 A 3.5 3.5 0 0 0 46.029297 22.589844 L 46.070312 22.599609 C 46.330312 22.499609 46.589844 22.399297 46.839844 22.279297 z M 47.259766 22.289062 L 46.109375 22.599609 L 46.740234 22.669922 L 47.070312 22.480469 C 47.140312 22.420469 47.189766 22.349062 47.259766 22.289062 z M 68 22.349609 L 66.259766 22.830078 L 67.689453 22.830078 L 67.679688 22.779297 A 4.8 4.8 0 0 1 68 22.349609 z M 20.919922 22.369141 L 20.720703 22.490234 L 20.890625 22.419922 L 20.919922 22.419922 L 20.919922 22.369141 z M 66.650391 22.5 A 4.12 4.12 0 0 0 65.740234 22.779297 L 65.970703 22.779297 L 65.970703 22.769531 L 66.650391 22.5 z M 20.869141 22.539062 C 20.499141 22.989062 20.13 23.429375 19.75 23.859375 L 20.070312 23.859375 L 20.869141 23.619141 L 20.869141 22.539062 z M 50 22.539062 C 49.63 22.699062 49.270156 22.87 48.910156 23 L 50.080078 23.060547 L 50 22.539062 z M 70.240234 22.570312 L 68.640625 23 L 69.619141 23.380859 C 69.81914 23.10086 70.030235 22.830312 70.240234 22.570312 z M 34.509766 22.789062 L 34 22.859375 L 32.679688 23.189453 A 3.41 3.41 0 0 1 32.279297 24.089844 C 32.609297 24.019844 33.239064 23.729609 33.539062 23.849609 C 34.129062 24.089609 33.799686 24.650236 33.179688 25.240234 L 33.279297 25.240234 L 33.679688 25.130859 L 34.310547 25 L 34.449219 23.529297 L 34.460938 23.630859 A 0.42 0.42 0 0 1 34.460938 23.470703 L 33.759766 23.650391 C 34.029764 23.370391 34.259766 23.079062 34.509766 22.789062 z M 68.779297 22.919922 L 68.400391 23 L 68.490234 23 L 68.490234 23.029297 L 68.779297 22.919922 z M 28.710938 23 L 28.710938 23.070312 L 28.919922 23 L 28.710938 23 z M 28.789062 23.109375 L 28.859375 25.039062 C 29.549373 23.959066 29.99906 23.289375 28.789062 23.109375 z M 56.759766 23.179688 L 56.460938 23.25 L 56.460938 23.339844 L 56.820312 23.210938 L 56.759766 23.179688 z M 71.509766 23.210938 L 70 23.619141 L 70.984375 23.994141 C 71.153123 23.726131 71.321166 23.459095 71.509766 23.210938 z M 56.880859 23.300781 L 56.429688 23.410156 L 56.429688 24.009766 C 56.729687 23.729766 56.940859 23.470781 56.880859 23.300781 z M 70.419922 23.380859 A 4.24 4.24 0 0 0 69.769531 23.570312 L 69.880859 23.570312 L 69.880859 23.609375 L 70.419922 23.380859 z M 77.289062 23.460938 A 7.34 7.34 0 0 0 76.730469 24.150391 L 77.490234 23.949219 L 77.289062 23.460938 z M 67.800781 23.779297 L 63.330078 23.890625 L 63.009766 26.099609 L 63.009766 26.869141 L 63.460938 26.740234 C 63.300938 26.830234 63.16 26.92 63 27 A 1.07 1.07 0 0 0 63.460938 26.75 L 63 27.310547 L 62.900391 31.160156 L 62.890625 31.189453 L 62.890625 32.259766 A 9.18 9.18 0 0 1 63.75 35.929688 C 68.939995 36.389687 71.050313 33.760625 71.320312 33.390625 L 71.580078 32.740234 L 70.5 33.029297 L 72.130859 31.359375 L 72.289062 30.970703 L 71.394531 31.210938 A 0.76 0.76 0 0 0 71.289062 31.320312 A 14.94 14.94 0 0 1 71.375 31.216797 L 71.289062 31.240234 L 71.474609 31.095703 A 14.94 14.94 0 0 1 72.560547 29.789062 L 71.779297 30 L 72.560547 29 L 72.330078 27.640625 L 71.992188 27.734375 A 1.18 1.18 0 0 0 71.939453 27.769531 L 71.964844 27.742188 L 71.939453 27.75 L 71.984375 27.722656 L 72.289062 27.410156 L 72.169922 26.830078 L 70.460938 24.779297 L 67.800781 23.779297 z M 62.349609 23.849609 C 61.80961 24.019609 61.330546 24.199844 60.810547 24.339844 L 60.730469 24.339844 C 60.72823 24.350289 60.723341 24.35891 60.720703 24.369141 L 60.759766 24.349609 C 60.759766 24.373574 60.737476 24.397911 60.705078 24.421875 C 60.671901 24.526932 60.630859 24.625601 60.630859 24.720703 L 61.900391 24.380859 C 61.650391 24.870859 61.400625 25.32 61.140625 25.75 L 62.140625 25.490234 L 62.349609 23.849609 z M 60.705078 24.421875 C 60.710641 24.404261 60.716005 24.387361 60.720703 24.369141 L 60.289062 24.589844 C 60.478183 24.533808 60.629321 24.477911 60.705078 24.421875 z M 72.019531 23.949219 C 71.759532 24.009219 71.510781 24.060859 71.300781 24.130859 L 71.390625 24.240234 A 6 6 0 0 0 72.019531 23.949219 z M 72.339844 24.029297 L 71.339844 24.300781 L 71.740234 24.810547 C 71.940234 24.550547 72.119844 24.269297 72.339844 24.029297 z M 20.849609 24.369141 L 20.230469 24.960938 L 20.839844 24.789062 L 20.849609 24.369141 z M 16.619141 24.460938 L 14.769531 24.949219 L 14.769531 26.570312 C 15.429531 25.880315 16.059688 25.170935 16.679688 24.460938 L 16.619141 24.460938 z M 77.730469 24.550781 L 76.730469 25.550781 L 78 25.210938 L 77.730469 24.550781 z M 56.769531 24.630859 L 56.480469 24.710938 L 56.470703 25.009766 L 56.839844 24.630859 L 56.769531 24.630859 z M 73.509766 24.710938 L 72.285156 25.029297 A 5.66 5.66 0 0 1 72.105469 25.099609 L 72.75 25.869141 A 8.62 8.62 0 0 1 73.509766 24.710938 z M 72.105469 25.099609 L 72.089844 25.080078 L 72.285156 25.029297 A 5.66 5.66 0 0 0 73 24.75 A 8.14 8.14 0 0 0 71.919922 25 L 72 25.140625 A 5.66 5.66 0 0 0 72.105469 25.099609 z M 30 24.720703 A 2.52 2.52 0 0 0 29.677734 24.800781 L 29.789062 24.800781 L 30 24.720703 z M 30.169922 24.75 L 29.351562 24.96875 C 29.186572 25.03366 29.018069 25.097128 28.861328 25.164062 L 28.910156 26.75 C 29.990154 25.930002 31.05992 24.89 30.169922 24.75 z M 28.861328 25.164062 L 28.861328 25.158203 A 2.52 2.52 0 0 0 28.820312 25.179688 C 28.833304 25.17412 28.848293 25.169629 28.861328 25.164062 z M 28.861328 25.158203 A 2.52 2.52 0 0 1 29.072266 25.042969 L 28.859375 25.099609 L 28.861328 25.158203 z M 29.072266 25.042969 L 29.351562 24.96875 C 29.468587 24.92271 29.57655 24.873606 29.699219 24.830078 L 29.658203 24.806641 A 2.52 2.52 0 0 0 29.072266 25.042969 z M 20.839844 25.089844 A 24.27 24.27 0 0 0 18.470703 27.480469 L 20.259766 27 L 18.689453 29 L 19.300781 28.919922 L 20.810547 28.519531 L 20.839844 25.089844 z M 78 25.259766 L 77.859375 25.339844 L 78.009766 25.339844 L 78 25.259766 z M 34.380859 25.449219 A 29.66 29.66 0 0 1 32.380859 27.810547 A 3.67 3.67 0 0 1 33.490234 27.539062 C 33.860234 27.599062 34.119064 27.599609 34.289062 27.599609 L 34.289062 26.509766 L 34.380859 25.449219 z M 78.060547 25.460938 L 76.779297 27.070312 L 78.470703 26.619141 C 78.020704 27.00914 77.56914 27.360938 77.119141 27.710938 L 76.740234 28.050781 L 78.330078 27.630859 L 77.330078 28.679688 L 77.849609 28.630859 L 77.810547 28.650391 L 79.050781 28.310547 A 16.34 16.34 0 0 0 78.410156 26.310547 L 78.060547 25.460938 z M 62.140625 25.509766 L 62.029297 25.589844 L 62.130859 25.589844 L 62.140625 25.509766 z M 62 25.849609 A 15.63 15.63 0 0 1 61.189453 27.339844 L 62 27.130859 L 62 26 L 62 25.849609 z M 73.630859 26.099609 L 73 26.269531 L 73.169922 26.369141 L 73.169922 26.570312 L 73.630859 26.099609 z M 16 26.650391 L 14.759766 27 L 14.789062 28.710938 C 15.149062 28.284271 15.520391 27.8738 15.900391 27.480469 L 14.830078 27.759766 L 16 26.650391 z M 85.160156 26.699219 L 85.339844 26.699219 C 86.099841 26.899219 86.880628 26.759219 87.640625 26.949219 L 87.669922 27 A 4.87 4.87 0 0 1 89.009766 27.259766 A 1.15 1.15 0 0 1 88.349609 27.259766 C 88.239609 27.259766 88.129531 27.179922 88.019531 27.169922 C 87.369534 27.109922 86.709531 27.079766 86.019531 27.009766 L 85.160156 26.900391 L 85.160156 26.699219 z M 56.410156 26.759766 L 56.410156 26.830078 A 0.46 0.46 0 0 1 56.480469 26.759766 L 56.410156 26.759766 z M 73.960938 27.240234 L 73.339844 27.410156 L 73.439453 27.910156 L 73.960938 27.240234 z M 29.640625 27.390625 L 29.240234 27.439453 L 28.869141 27.539062 L 28.869141 28 L 28.890625 28.390625 L 29.640625 27.390625 z M 56.630859 28.029297 L 56.349609 28.099609 L 56.349609 28.400391 L 56.640625 28.029297 L 56.630859 28.029297 z M 34.240234 28.089844 C 34.100236 28.289844 33.890859 28.549688 33.630859 28.929688 A 6.49 6.49 0 0 1 32.769531 29.929688 L 34.220703 29.539062 L 34.240234 28.089844 z M 57.429688 28.699219 L 56.310547 29 L 56.269531 30.169922 A 14.38 14.38 0 0 0 57.429688 28.699219 z M 79.140625 28.710938 L 78.240234 29.580078 L 79.240234 29.320312 A 6 6 0 0 0 79.140625 28.710938 z M 20.820312 28.869141 A 23.23 23.23 0 0 0 19.269531 30.630859 L 20.800781 30.220703 L 20.820312 28.869141 z M 61.939453 29.009766 C 61.729453 29.309765 61.530312 29.610391 61.320312 29.900391 A 15.26 15.26 0 0 1 60.650391 31.699219 L 60.900391 31.699219 L 61.939453 31.410156 L 61.939453 29.009766 z M 79.300781 29.609375 C 78.490782 30.239374 77.699218 30.909376 76.949219 31.609375 L 78.279297 31.25 C 77.669297 31.769999 77.100781 32.30961 76.550781 32.849609 L 76.820312 32.849609 L 78.75 32.330078 A 10.69 10.69 0 0 0 79.289062 30.330078 L 79.300781 30.289062 A 3.06 3.06 0 0 0 79.300781 29.609375 z M 34.220703 29.640625 L 33.820312 29.830078 A 3.14 3.14 0 0 0 34.220703 29.699219 L 34.220703 29.640625 z M 15.279297 29.789062 L 14.759766 29.929688 L 14.759766 30.410156 L 15.279297 29.789062 z M 34.179688 30 A 25.67 25.67 0 0 1 32.339844 32.029297 L 32.660156 31.939453 L 33.369141 31.75 L 33.390625 31.779297 L 33.939453 31.630859 L 33.839844 31.679688 L 34.179688 31.609375 L 34.179688 30 z M 29.869141 30.160156 A 4.86 4.86 0 0 1 28.869141 30.320312 L 28.869141 31.160156 C 29.209139 30.850158 29.559141 30.500156 29.869141 30.160156 z M 57.380859 30.310547 L 56.259766 30.599609 L 56.230469 31.820312 C 56.720468 31.310313 57.200157 30.830546 57.660156 30.310547 L 57.380859 30.310547 z M 20.779297 30.589844 L 19.320312 32.490234 L 19.339844 32.490234 L 20.779297 32.099609 L 20.779297 30.589844 z M 16 31.269531 L 14.839844 31.589844 L 14.839844 32.849609 C 15.209841 32.269612 15.59 31.779531 16 31.269531 z M 29.869141 31.640625 L 29.900391 31.650391 L 28.900391 31.919922 L 28.900391 32.919922 C 29.310389 32.499922 29.709844 32.080625 30.089844 31.640625 L 29.869141 31.640625 z M 34.140625 32.089844 C 33.830625 32.309844 33.530703 32.509219 33.220703 32.699219 L 34.109375 32.470703 A 7.87 7.87 0 0 0 33.039062 32.820312 L 32.880859 32.910156 A 6.1 6.1 0 0 0 34.130859 32.560547 L 34.140625 32.089844 z M 78.640625 32.539062 A 26.75 26.75 0 0 1 76 34.929688 L 76.210938 34.929688 L 77.759766 34.519531 L 77.939453 34.269531 C 78.029453 34.069531 78.340625 33.359062 78.640625 32.539062 z M 20.75 32.589844 C 20.38 33.059841 20.019922 33.52 19.669922 34 L 20.75 33.789062 L 20.75 32.589844 z M 61.939453 32.630859 A 25.15 25.15 0 0 1 60.380859 34.630859 L 60.429688 34.599609 L 61.539062 34.300781 A 13.76 13.76 0 0 1 59.539062 37.080078 L 60.240234 36.900391 L 59.859375 37.220703 A 7 7 0 0 1 60.619141 37.089844 L 62.75 36.519531 L 62.75 36.380859 A 8.19 8.19 0 0 0 61.939453 32.630859 z M 34.070312 32.699219 A 7.85 7.85 0 0 1 33.070312 34.050781 L 35.300781 33.449219 L 34.800781 34 L 35.179688 33.960938 L 37.179688 33.439453 C 37.159688 33.639453 37.099609 33.81 37.099609 34 A 3 3 0 0 1 38.519531 33.560547 A 0.63 0.63 0 0 1 38.880859 34.039062 L 39.169922 34.039062 L 41.220703 33.490234 C 41.160703 33.860234 41.089531 34.170236 41.019531 34.490234 L 42.119141 34.189453 L 42.419922 34.089844 C 42.689922 34.019844 44.089922 33.440625 44.419922 33.640625 A 0.7 0.7 0 0 1 44.699219 34.419922 L 47.130859 33.769531 A 5.65 5.65 0 0 1 47 34.390625 C 47.22 34.320625 47.59 34.239922 48 34.169922 L 50.099609 33.599609 L 50.099609 33.509766 L 34.570312 33.369141 A 0.53 0.53 0 0 1 34.210938 33.220703 A 0.54 0.54 0 0 1 34.070312 32.859375 L 34.070312 32.699219 z M 16.199219 32.970703 L 14.800781 33.339844 L 14.800781 34.800781 L 16.199219 32.970703 z M 29.669922 33.230469 L 28.900391 33.439453 L 28.900391 33.820312 L 29.669922 33.230469 z M 29 33.269531 L 29 33.349609 L 29.169922 33.269531 L 29 33.269531 z M 72.339844 33.539062 L 72.259766 33.759766 L 72.480469 33.539062 L 72.339844 33.539062 z M 50.080078 34.089844 A 8.37 8.37 0 0 1 49.679688 35.460938 L 50.080078 35.359375 L 50.080078 34.089844 z M 30.25 34.130859 C 30.04 34.180859 29.829375 34.25 29.609375 34.25 L 28.900391 34.439453 L 29 35.570312 A 9.34 9.34 0 0 0 30.25 34.130859 z M 20.710938 34.279297 C 20.400938 34.759294 20.060935 35.269766 19.710938 35.759766 L 20 35.759766 L 19.990234 35.730469 L 20.710938 35.539062 L 20.710938 34.279297 z M 56.160156 34.470703 L 56.160156 34.630859 A 1.62 1.62 0 0 0 56.248047 34.470703 L 56.160156 34.470703 z M 16.5 34.560547 L 14.769531 35.029297 L 14.789062 41.25 C 15.389062 40.640003 16.010628 40.060234 16.640625 39.490234 L 15.099609 39.900391 A 11.27 11.27 0 0 1 16.419922 37.970703 L 15.140625 38.310547 L 16.359375 36.550781 L 14.810547 36.960938 C 15.350544 36.130938 15.920003 35.340544 16.5 34.560547 z M 15.130859 34.769531 A 1.64 1.64 0 0 0 14.800781 34.910156 L 14.800781 34.960938 L 15.130859 34.769531 z M 70.910156 35.169922 A 8.66 8.66 0 0 1 68.410156 36.419922 L 68.580078 36.419922 L 70.5 35.910156 L 69.976562 36.369141 L 70.060547 36.369141 L 70.939453 36.130859 C 71.119453 35.91086 71.310235 35.700234 71.490234 35.490234 L 70.330078 35.800781 C 70.520078 35.580781 70.720156 35.379922 70.910156 35.169922 z M 56.880859 35.570312 L 56.039062 35.789062 L 56.039062 36.519531 C 56.339062 36.209532 56.630157 35.890312 56.910156 35.570312 L 56.880859 35.570312 z M 30.289062 35.929688 L 29.589844 36.029297 L 28.900391 36.220703 L 28.869141 37.109375 L 29.130859 36.929688 C 29.530859 36.639688 29.919064 36.289686 30.289062 35.929688 z M 50 36.070312 A 3.93 3.93 0 0 0 49.779297 37.759766 L 49.779297 37.779297 L 49.929688 37.779297 L 50 36.070312 z M 20.699219 36.109375 A 10.19 10.19 0 0 0 19.699219 37.259766 C 19.889219 37.219766 20.100781 37.169922 20.300781 37.169922 L 20.269531 37.220703 L 20.699219 37.109375 L 20.699219 36.109375 z M 32.050781 36.5 C 31.650783 36.813333 31.229062 37.113724 30.789062 37.400391 A 3.8 3.8 0 0 1 29.25 37.810547 L 29.339844 37.890625 L 28.939453 38 L 28.800781 39.800781 C 29.240781 39.240783 29.750236 38.680859 30.240234 38.130859 A 1.94 1.94 0 0 1 31.509766 37.710938 L 31.609375 37.570312 A 8.55 8.55 0 0 1 32.050781 36.5 z M 62.830078 36.529297 L 62.640625 36.689453 A 0.49 0.49 0 0 0 62.830078 36.539062 L 62.830078 36.529297 z M 62.810547 36.640625 C 62.470547 37.230624 62.150547 37.79961 61.810547 38.349609 L 63.919922 37.779297 C 63.719922 38.169296 63.530312 38.509844 63.320312 38.839844 L 64.320312 38.570312 C 64.760312 38.290313 65.209454 38.019531 65.689453 37.769531 A 0.79 0.79 0 0 1 65.910156 37.689453 L 65.990234 37.640625 C 66.290234 37.370625 66.630235 37.099843 66.990234 36.839844 L 67.189453 36.740234 A 12.78 12.78 0 0 1 64.929688 36.949219 A 14.53 14.53 0 0 1 63.240234 36.849609 L 62.810547 36.849609 L 62.810547 36.640625 z M 63.919922 37.779297 C 63.749922 37.869297 63.609219 37.970547 63.449219 38.060547 C 63.679219 37.980547 63.859922 37.899297 63.919922 37.779297 z M 45.789062 37.289062 L 44.640625 37.599609 L 44.640625 37.539062 L 44 37.539062 L 42.820312 37.830078 C 42.710314 37.980078 42.590469 38.109766 42.480469 38.259766 C 42.336597 38.436123 42.097623 38.547716 41.8125 38.619141 L 46.410156 38.810547 A 1.32 1.32 0 0 1 46.349609 38.300781 L 44.789062 38.720703 A 10.6 10.6 0 0 1 45.789062 37.289062 z M 56.140625 37.599609 L 56.029297 37.660156 L 56.029297 38.099609 C 56.189297 37.93961 56.350235 37.769609 56.490234 37.599609 L 56.140625 37.599609 z M 36.349609 37.949219 L 35.509766 38.169922 L 35.449219 38.269531 C 35.249219 38.569531 34.519295 38.650938 33.779297 38.710938 L 32.779297 38.980469 L 32.619141 39.099609 C 32.339141 39.589609 32.060234 40.059297 31.740234 40.529297 L 33.630859 40.029297 A 5.49 5.49 0 0 0 32.630859 40.390625 C 33.210859 40.250625 33.699219 40.11 33.699219 40 A 18.19 18.19 0 0 1 32.619141 43 L 34.140625 42.619141 A 9 9 0 0 1 33.259766 45.140625 L 34.330078 44.859375 A 29.5 29.5 0 0 1 32.519531 47.720703 L 34.179688 47.269531 C 34.049688 47.339531 33.940312 47.43 33.820312 47.5 C 33.969512 47.44778 34.095531 47.394508 34.150391 47.333984 A 9.73 9.73 0 0 1 33 49.550781 L 34.539062 49.150391 A 8.1 8.1 0 0 1 33.660156 51.150391 L 34.75 50.859375 L 34.119141 40.529297 A 0.47 0.47 0 0 1 34.25 40.169922 L 35.119141 39.169922 A 0.5 0.5 0 0 1 35.5 39 L 36.240234 39.060547 C 36.410234 38.690547 36.570938 38.319217 36.710938 37.949219 L 36.349609 37.949219 z M 34.539062 49.150391 L 33.919922 49.449219 C 34.269922 49.349219 34.539062 49.250391 34.539062 49.150391 z M 34.140625 42.619141 A 2 2 0 0 0 33.820312 42.800781 C 34.010312 42.730781 34.140625 42.669141 34.140625 42.619141 z M 20.720703 37.960938 C 20.190706 38.420935 19.689453 38.879375 19.189453 39.359375 L 19.289062 39.359375 L 20.699219 38.980469 L 20.720703 37.960938 z M 39.599609 38.269531 C 39.379611 38.589531 38.64992 38.660703 37.919922 38.720703 L 36.919922 39 L 39 39 L 39.119141 38.970703 C 39.241063 38.81068 39.422943 38.537942 39.599609 38.269531 z M 49.910156 38.419922 A 8.18 8.18 0 0 1 48.519531 38.820312 L 49.910156 38.859375 L 49.910156 38.419922 z M 41.101562 38.716797 C 40.96845 38.724244 40.834443 38.730469 40.699219 38.730469 L 40.410156 38.810547 L 41.101562 38.716797 z M 69.550781 39.320312 A 3.58 3.58 0 0 1 68.099609 39.619141 L 66.740234 39.990234 A 10.31 10.31 0 0 1 65.400391 40.789062 A 3.21 3.21 0 0 1 64.560547 41.019531 L 63.269531 41.359375 L 63.890625 41.359375 A 41.46 41.46 0 0 0 69.001953 40.644531 L 69.550781 39.320312 z M 20.669922 39.580078 C 19.919925 40.370075 19.199997 41.170003 18.5 42 L 20.640625 41.490234 L 20.669922 39.580078 z M 56.880859 39.589844 L 55.880859 39.859375 L 55.880859 40.640625 C 56.200859 40.330625 56.54086 39.980625 56.880859 39.640625 L 56.880859 39.589844 z M 72.25 39.800781 L 71.849609 39.890625 L 69.070312 40.630859 A 41.46 41.46 0 0 0 69.789062 40.5 L 69.810547 40.539062 A 15.38 15.38 0 0 0 72.25 39.800781 z M 69.609375 40.339844 C 69.286625 40.427867 69.062458 40.526069 69.005859 40.642578 A 41.46 41.46 0 0 0 69.017578 40.640625 L 69.609375 40.339844 z M 60.220703 41.490234 L 58.220703 42.019531 C 58.360703 41.869531 58.46961 41.720078 58.599609 41.580078 L 58.109375 41.580078 L 58 41.580078 L 58.019531 41.650391 C 57.939531 41.97039 57.990078 42.230781 58.330078 42.300781 L 59.435547 42.011719 L 60.160156 41.759766 L 60.115234 41.832031 L 60.199219 41.810547 L 60.380859 41.490234 L 60.220703 41.490234 z M 60.115234 41.832031 L 59.435547 42.011719 L 59.320312 42.050781 C 59.600312 41.990781 59.86961 41.929375 60.099609 41.859375 L 60.115234 41.832031 z M 16.220703 41.5 L 14.800781 41.880859 L 14.800781 43.210938 C 15.260781 42.650938 15.730938 42.100544 16.210938 41.560547 L 16.220703 41.5 z M 20.640625 41.599609 L 20.300781 41.759766 A 2.31 2.31 0 0 0 20.640625 41.660156 L 20.640625 41.599609 z M 61.269531 41.849609 L 60.490234 42.060547 L 60.349609 42.300781 L 60.509766 42.300781 L 60.580078 42.300781 C 60.810078 42.250781 61.100781 42.190859 61.300781 42.130859 L 61.269531 41.849609 z M 20.640625 42 L 19.460938 43.560547 L 20.619141 43.240234 L 20.640625 42 z M 29.890625 42.089844 L 29.25 42.169922 L 28.820312 42.279297 L 28.75 44.839844 A 21.24 21.24 0 0 0 29.890625 42.089844 z M 61.339844 42.640625 C 61.249844 42.890625 61.160547 43.11961 61.060547 43.349609 L 61.369141 43.259766 L 61.339844 42.640625 z M 57.179688 42.779297 C 56.819688 42.859297 56.499687 42.94 56.179688 43 L 56.160156 43 L 56 43 L 56.130859 43.919922 A 6.88 6.88 0 0 1 56.759766 43.550781 A 5.54 5.54 0 0 0 57.179688 42.779297 z M 17 43.080078 L 14.820312 43.660156 L 14.820312 45.880859 L 17 43.080078 z M 20.640625 43.259766 L 20.519531 43.349609 A 0.5 0.5 0 0 0 20.640625 43.269531 L 20.640625 43.259766 z M 61.369141 43.300781 L 61.279297 43.359375 L 61.369141 43.359375 L 61.369141 43.300781 z M 15.130859 43.400391 L 14.810547 43.490234 L 14.810547 43.550781 L 15.130859 43.400391 z M 20.619141 43.439453 L 19.130859 45.439453 L 20.599609 45.050781 L 20.619141 43.439453 z M 61.390625 43.759766 A 11.83 11.83 0 0 1 60.740234 45.519531 L 61.480469 45.320312 L 61.390625 43.759766 z M 57.589844 44.230469 L 56.210938 44.599609 L 56.289062 45.570312 A 8.17 8.17 0 0 1 57.419922 44.570312 A 3.59 3.59 0 0 0 57.589844 44.230469 z M 20.609375 45.199219 C 20.169375 45.689216 19.779922 46.160862 19.419922 46.630859 L 19.429688 46.630859 L 20.609375 46.320312 L 20.609375 45.199219 z M 16.25 45.589844 L 14.859375 45.960938 L 14.839844 47.5 L 16.25 45.589844 z M 15.080078 45.75 A 0.73 0.73 0 0 0 14.859375 45.910156 L 14.859375 45.919922 L 15.080078 45.75 z M 29.789062 45.869141 L 28.669922 46.169922 L 28.669922 48.039062 C 29.08992 47.309064 29.530625 46.609139 29.890625 45.869141 L 29.839844 45.869141 L 29.789062 45.869141 z M 61.490234 46.150391 C 61.340235 46.53039 61.179765 46.890235 61.009766 47.240234 L 61.539062 47.099609 L 61.490234 46.150391 z M 57.210938 46.550781 L 56.210938 46.810547 L 56.199219 47.939453 C 56.379219 47.739453 56.569531 47.55914 56.769531 47.369141 A 9.27 9.27 0 0 0 57.210938 46.550781 z M 20.599609 46.699219 L 19.599609 48.029297 L 20.060547 47.980469 L 20.089844 47.980469 L 20.599609 47.839844 L 20.599609 46.699219 z M 61.580078 47.550781 A 9.4 9.4 0 0 1 60.960938 49.169922 L 61.130859 49.169922 A 16.3 16.3 0 0 1 60.330078 51.013672 L 61.75 50.640625 L 61.580078 47.550781 z M 15.869141 47.689453 L 14.869141 47.960938 L 14.869141 49.240234 A 17.29 17.29 0 0 1 15.869141 47.689453 z M 28.900391 48.900391 L 28.640625 48.970703 L 28.630859 49.25 L 28.900391 48.900391 z M 20.570312 49.029297 C 20.390315 49.239297 20.189763 49.440391 20.009766 49.650391 L 20.550781 49.509766 L 20.570312 49.029297 z M 56.759766 49.310547 L 56.089844 49.539062 L 56.089844 50.310547 A 8.45 8.45 0 0 1 56.759766 49.310547 z M 15.689453 49.630859 L 14.859375 49.849609 L 14.859375 50.769531 L 15.689453 49.630859 z M 57.320312 50.359375 L 56.070312 50.699219 L 56.039062 51.669922 C 56.439062 51.219922 56.870313 50.789375 57.320312 50.359375 z M 16.619141 50.539062 L 14.869141 51.009766 L 14.869141 52.640625 C 15.449138 51.920628 16.029141 51.229062 16.619141 50.539062 z M 20.550781 50.589844 L 20.039062 51.109375 L 20.240234 51.109375 L 20.550781 51.019531 L 20.550781 50.589844 z M 29.410156 50.699219 A 4 4 0 0 1 28.910156 50.759766 L 28.589844 50.849609 L 28.570312 51.609375 L 28.779297 51.449219 A 8.93 8.93 0 0 0 29.410156 50.699219 z M 15.150391 50.769531 A 1.1 1.1 0 0 0 14.859375 50.890625 L 14.859375 50.939453 L 15.150391 50.769531 z M 34.759766 50.919922 L 34.160156 51.189453 A 3.57 3.57 0 0 0 34.759766 51 L 34.759766 50.919922 z M 34.740234 51.330078 A 8.69 8.69 0 0 1 34.019531 52.550781 L 34.769531 52.349609 C 34.639531 52.629609 34.499375 52.890158 34.359375 53.160156 C 34.529375 53.090156 34.689141 53.020936 34.869141 52.960938 A 0.83 0.83 0 0 1 34.869141 52.810547 L 34.740234 51.330078 z M 30.240234 52.089844 A 5 5 0 0 1 29.240234 52.25 L 28.550781 52.439453 L 28.5 54.339844 L 28.650391 55.529297 C 29.080389 55.139297 29.520469 54.760389 29.980469 54.400391 A 11.7 11.7 0 0 0 30.710938 53.400391 L 30.599609 53.400391 L 28.650391 53.919922 A 7.25 7.25 0 0 1 29.769531 52.769531 A 5.46 5.46 0 0 0 30.240234 52.089844 z M 61.859375 52.519531 A 12.67 12.67 0 0 1 61.039062 53.839844 L 61.240234 53.839844 C 61.040235 54.129843 60.660234 54.530469 60.240234 54.980469 C 60.020235 55.240468 59.790781 55.5 59.550781 55.75 L 60.410156 55.519531 L 60.740234 55.410156 A 11.88 11.88 0 0 1 61.890625 55.029297 L 61.890625 53.269531 L 61.859375 52.519531 z M 16.140625 52.619141 L 14.869141 52.960938 L 14.869141 53.900391 L 16.140625 52.619141 z M 56.283203 52.929688 L 56 53 L 55.970703 53.380859 A 5.36 5.36 0 0 0 56.283203 52.929688 z M 20.470703 53.169922 C 20.130703 53.529922 19.760859 53.890237 19.380859 54.240234 L 19.570312 54.240234 L 20.480469 54 L 20.580078 54 L 20.550781 53.970703 A 0.5 0.5 0 0 1 20.470703 53.699219 L 20.470703 53.169922 z M 37.710938 53.349609 C 37.610938 53.509609 37.520156 53.680078 37.410156 53.830078 A 2.55 2.55 0 0 1 38.650391 53.589844 L 38.660156 53.589844 C 39.260156 53.789844 39.259217 54.269844 38.949219 54.839844 L 39.240234 54.769531 L 39.580078 54.460938 A 3.81 3.81 0 0 1 41 54.070312 L 43.060547 53.509766 C 43.010547 53.809764 42.950625 54.060547 42.890625 54.310547 L 45.410156 53.640625 L 45.410156 53.919922 L 45.910156 53.830078 L 46.769531 53.599609 L 37.710938 53.349609 z M 43.060547 53.509766 L 42.900391 53.660156 C 42.990391 53.610156 43.060547 53.569766 43.060547 53.509766 z M 17.660156 53.5 A 4.13 4.13 0 0 1 16.660156 53.740234 L 14.919922 54.199219 L 14.919922 54.400391 A 0.49 0.49 0 0 1 14.5 54.890625 L 11.990234 55.320312 L 11.990234 56.419922 A 2.92 2.92 0 0 1 12.990234 56.130859 L 13.609375 55.619141 A 2.66 2.66 0 0 1 14.609375 55.330078 A 9.85 9.85 0 0 1 15.470703 54.759766 A 3.62 3.62 0 0 1 16.470703 54.490234 L 16.839844 54.390625 C 17.119841 54.100625 17.390159 53.8 17.660156 53.5 z M 49.25 53.939453 A 6.36 6.36 0 0 1 49.150391 55.550781 L 49.919922 55.339844 L 49.980469 54.179688 L 49.25 53.939453 z M 20.949219 54.230469 C 20.699219 54.420469 20.439219 54.620315 20.199219 54.820312 L 20.699219 54.689453 L 20.070312 55.689453 C 20.240312 55.629453 20.419612 55.630859 20.599609 55.630859 L 21.5 55.390625 A 2.39 2.39 0 0 1 22.179688 55.199219 L 22.609375 55.089844 L 22.609375 55.150391 L 22.830078 55.089844 L 22.830078 54.480469 L 21 54.230469 L 20.949219 54.230469 z M 57.740234 54.550781 A 4.14 4.14 0 0 1 56.310547 54.820312 L 55.929688 54.919922 L 55.869141 56.710938 C 56.26914 56.290938 56.669844 55.870937 57.089844 55.460938 C 57.319844 55.160938 57.540235 54.860781 57.740234 54.550781 z M 29.339844 56.230469 L 28.740234 56.390625 L 28.859375 57.470703 C 29.169375 57.060705 29.460236 56.650467 29.740234 56.230469 L 29.339844 56.230469 z M 61.800781 56.589844 L 61.730469 56.679688 L 61.800781 56.660156 L 61.800781 56.589844 z M 44.859375 57.349609 L 43.070312 57.830078 L 43.320312 57.400391 L 42.759766 57.470703 L 40.759766 58 C 40.859766 57.84 40.939531 57.690781 41.019531 57.550781 A 3.4 3.4 0 0 1 39.529297 57.859375 L 39.570312 57.730469 L 37.880859 58.189453 L 45 58.310547 A 9.12 9.12 0 0 0 45.449219 57.349609 L 44.859375 57.349609 z M 33.820312 57.480469 C 33.680314 57.590469 33.560156 57.700547 33.410156 57.810547 L 33.410156 57.820312 A 2 2 0 0 1 32.570312 58.130859 L 33.160156 58.130859 C 33.380156 57.900861 33.600314 57.690469 33.820312 57.480469 z M 38.25 57.619141 A 5.34 5.34 0 0 1 37.25 57.820312 L 37.210938 57.859375 L 35.769531 58.240234 L 37.769531 58.240234 C 37.949531 58.020236 38.1 57.819139 38.25 57.619141 z M 12.761719 57.648438 L 11.980469 57.859375 L 11.980469 58.429688 C 12.237892 58.162361 12.494587 57.905862 12.761719 57.648438 z M 19.810547 57.669922 L 18.390625 58.050781 A 3.24 3.24 0 0 1 17.910156 58.179688 L 17.800781 58.179688 L 17.699219 58.179688 L 17.699219 58.220703 L 16.630859 58.509766 L 19.320312 58.419922 L 19.810547 57.669922 z M 46.833984 57.898438 L 45.169922 58.339844 L 46.529297 58.339844 L 46.833984 57.898438 z M 14.179688 58.169922 L 12.789062 58.550781 L 12.929688 58.439453 A 0.64 0.64 0 0 0 12.800781 58.539062 A 0.34 0.34 0 0 1 12.880859 58.449219 L 12.199219 58.650391 L 13.859375 58.599609 L 14.240234 58.169922 L 14.179688 58.169922 z M 15.449219 58.300781 L 14.589844 58.529297 L 15.310547 58.529297 L 15.449219 58.320312 L 15.449219 58.300781 z M 20.599609 58.3125 L 20.310547 58.380859 L 20.599609 58.380859 L 20.599609 58.3125 z M 61.779297 58.810547 L 61.339844 58.919922 L 61.779297 58.910156 L 61.779297 58.810547 z M 58.119141 70.669922 L 58.419922 70.669922 L 58.419922 70.769531 L 58.119141 70.769531 L 58.119141 70.669922 z M 43.839844 70.820312 A 1.48 1.48 0 0 1 44.259766 70.890625 L 43.269531 70.880859 L 43.839844 70.820312 z M 68 70.900391 L 68 71 L 62 71 A 48.33 48.33 0 0 1 68 70.900391 z M 45.189453 70.960938 A 2.45 2.45 0 0 1 45.570312 70.960938 L 45.949219 70.960938 L 46.380859 70.960938 L 46.380859 71 L 46.179688 71 L 46.189453 71.050781 A 3.33 3.33 0 0 1 45.189453 70.960938 z M 49.699219 71.119141 L 51 71.119141 A 1.18 1.18 0 0 1 51.259766 71.220703 L 49.699219 71.230469 L 49.699219 71.119141 z M 27.320312 71.210938 L 27.730469 71.210938 L 27.730469 71.259766 L 27.330078 71.259766 L 27.320312 71.300781 L 27.320312 71.210938 z M 36.029297 71.210938 L 36.460938 71.210938 C 36.320938 71.410935 36.179297 71.290935 36.029297 71.210938 z M 26.330078 71.359375 L 26.669922 71.359375 L 26.669922 71.429688 L 26.330078 71.429688 L 26.330078 71.359375 z M 38.890625 71.369141 L 40.130859 71.369141 A 0.34 0.34 0 0 1 40.130859 71.470703 L 39.089844 71.470703 A 0.26 0.26 0 0 1 38.890625 71.369141 z M 41.080078 71.480469 L 42.080078 71.480469 A 1.63 1.63 0 0 1 40.900391 71.550781 A 0.58 0.58 0 0 1 41.070312 71.490234 L 41.080078 71.480469 z M 57.060547 71.599609 L 57.800781 71.599609 L 57.800781 71.660156 A 2.45 2.45 0 0 1 57.419922 71.660156 L 57.429688 71.689453 L 57.060547 71.689453 L 57.060547 71.599609 z M 35.460938 71.720703 C 35.830935 71.710703 36.459456 71.720703 36.939453 71.720703 C 37.139453 71.720703 37.339065 71.789062 37.539062 71.789062 L 39.25 71.789062 L 39.199219 71.769531 A 4.19 4.19 0 0 1 40.509766 71.890625 A 1.2 1.2 0 0 0 40.890625 71.890625 A 5.63 5.63 0 0 1 42.419922 72.019531 A 2.08 2.08 0 0 0 43.029297 72.019531 A 6.09 6.09 0 0 1 44.230469 72.130859 A 7.37 7.37 0 0 0 45.380859 72.130859 C 45.770859 72.130859 46.149297 72.220234 46.529297 72.240234 C 46.909294 72.260234 47.270862 72.240234 47.630859 72.240234 C 47.990859 72.240234 48.360703 72.319609 48.720703 72.349609 C 49.080703 72.379609 49.570237 72.349609 49.990234 72.349609 L 50.990234 72.460938 L 51.589844 72.460938 A 7.89 7.89 0 0 1 53.400391 72.589844 A 4 4 0 0 0 54.169922 72.589844 A 9 9 0 0 1 55.810547 72.699219 A 5.89 5.89 0 0 0 57.070312 72.699219 A 4.11 4.11 0 0 1 58.279297 72.810547 A 2.47 2.47 0 0 0 58.830078 72.810547 A 10.07 10.07 0 0 1 61.019531 72.939453 A 2 2 0 0 0 61.509766 72.939453 L 67.169922 72.939453 L 67.169922 73.089844 L 59.970703 73.089844 A 8.58 8.58 0 0 1 59.099609 72.990234 L 58.550781 72.990234 A 13.89 13.89 0 0 1 56.550781 72.880859 A 9.12 9.12 0 0 0 55.070312 72.880859 C 54.780315 72.880859 54.489216 72.809297 54.199219 72.779297 L 53.589844 72.779297 A 10.57 10.57 0 0 1 51.730469 72.660156 A 8.29 8.29 0 0 0 50.410156 72.660156 C 50.080159 72.660156 49.760156 72.590781 49.410156 72.550781 L 48.910156 72.550781 A 9.7 9.7 0 0 1 46.830078 72.419922 A 4.3 4.3 0 0 0 45.949219 72.419922 C 45.639219 72.419922 45.329531 72.340312 45.019531 72.320312 C 44.709534 72.300315 44.359531 72.320312 44.019531 72.320312 C 43.679534 72.320312 43.430625 72.250703 43.140625 72.220703 L 42.980469 72.220703 L 40.460938 72.060547 A 4.49 4.49 0 0 1 39.199219 71.939453 A 2 2 0 0 0 38.650391 71.939453 L 32.919922 71.939453 A 0.89 0.89 0 0 1 32.400391 71.820312 L 32.720703 71.820312 L 34.369141 71.820312 C 34.729138 71.820312 35.090938 71.730703 35.460938 71.720703 z M 44.849609 71.789062 L 46.369141 71.820312 L 46.369141 71.890625 A 1.52 1.52 0 0 1 46.160156 71.890625 L 44.849609 71.890625 L 44.849609 71.789062 z M 47.160156 71.890625 L 48.640625 71.890625 A 3.19 3.19 0 0 1 47 72 A 0.87 0.87 0 0 1 47.169922 71.929688 L 47.160156 71.890625 z M 49.25 72.039062 L 49.259766 72.060547 L 50.679688 72.060547 A 0.22 0.22 0 0 1 50.880859 72.179688 L 50.619141 72.179688 L 49.25 72.179688 A 0.71 0.71 0 0 0 49.25 72.039062 z M 38.560547 72.330078 L 38.589844 72.330078 L 39.589844 72.330078 A 0.28 0.28 0 0 1 39.730469 72.419922 A 2.44 2.44 0 0 1 38.560547 72.330078 z M 26.550781 72.365234 C 26.640781 72.365234 26.750703 72.400703 26.970703 72.470703 L 26.25 72.470703 C 26.39 72.400703 26.460781 72.365234 26.550781 72.365234 z M 44.728516 72.763672 C 44.807266 72.759922 44.879219 72.779531 44.949219 72.769531 A 2.78 2.78 0 0 1 45.449219 72.769531 L 45.929688 72.769531 L 45.929688 72.839844 A 0.35 0.35 0 0 1 45.800781 72.839844 L 45.800781 72.900391 L 44.470703 72.900391 C 44.565703 72.795391 44.649766 72.767422 44.728516 72.763672 z M 47.640625 72.996094 A 3.81 3.81 0 0 1 48.099609 73 C 47.959612 73.13 47.790859 73.079844 47.630859 73.089844 L 47.640625 72.996094 z M 51.230469 73.25 L 52.599609 73.25 C 52.599609 73.25 52.690234 73.249609 52.740234 73.349609 L 51.230469 73.349609 L 51.230469 73.25 z M 53.550781 73.390625 L 55 73.390625 A 0.29 0.29 0 0 1 55.210938 73.490234 A 0.78 0.78 0 0 1 55 73.490234 L 54.970703 73.529297 L 53.550781 73.529297 L 53.550781 73.390625 z M 55.980469 73.490234 L 56 73.490234 L 57.699219 73.490234 A 2.91 2.91 0 0 1 55.980469 73.490234 z " />
  </g>
  <metadata
     id="metadata2968">
    <rdf:RDF>
      <cc:Work
         rdf:about="">
        <dc:title>Artboard 1</dc:title>
      </cc:Work>
    </rdf:RDF>
  </metadata>
</svg>
