<?xml version="1.0" encoding="UTF-8"?><svg id="Layer_1" xmlns="http://www.w3.org/2000/svg" viewBox="0 0 37.5 37.5"><defs><style>.cls-1,.cls-2{stroke-width:1px;}.cls-1,.cls-2,.cls-3{fill:none;stroke:#02808A;stroke-miterlimit:10;}.cls-2{stroke-linecap:round;}.cls-3{stroke-width:1px;}</style></defs><circle class="cls-3" cx="18.75" cy="18.75" r="17.5"/><circle class="cls-1" cx="18.25" cy="18.25" r="2"/><line class="cls-2" x1="13.75" y1="15.75" x2="16.75" y2="16.75"/><line class="cls-2" x1="23.75" y1="7.75" x2="13.75" y2="15.75"/><line class="cls-2" x1="23.17" y1="20.34" x2="20.51" y2="18.63"/><line class="cls-2" x1="23.75" y1="7.75" x2="23.17" y2="20.34"/><line class="cls-2" x1="13.06" y1="17.23" x2="15.67" y2="19.02"/><line class="cls-2" x1="12.7" y1="30.03" x2="13.06" y2="17.23"/><line class="cls-2" x1="22.4" y1="21.98" x2="18.75" y2="20.75"/><line class="cls-2" x1="12.7" y1="30.03" x2="22.4" y2="21.98"/><polygon class="cls-2" points="19.93 15.05 19.94 15.48 19.95 15.91 19.57 15.7 19.19 15.5 19.56 15.27 19.93 15.05"/><polygon class="cls-2" points="16.42 21.65 16.42 21.22 16.43 20.79 16.8 21.01 17.17 21.23 16.79 21.44 16.42 21.65"/></svg>