<svg width="43" height="36" viewBox="0 0 43 36" fill="none" xmlns="http://www.w3.org/2000/svg">
<path d="M42.2481 10.639C38.9249 7.25936 35.5997 3.88081 32.2754 0.50119C32.1766 0.400688 32.0809 0.29591 31.9757 0.202893C31.675 -0.0611899 31.3532 -0.075089 31.0724 0.206101C29.8483 1.43564 28.6315 2.67266 27.4211 3.91716C27.113 4.2347 27.1266 4.56508 27.4127 4.90507C27.5273 5.04192 27.6546 5.16808 27.8018 5.32739C25.3504 6.16133 23.0505 7.16742 21.1807 9.01814C19.414 7.53414 17.3517 6.69057 15.2211 5.93147C15.2926 5.84593 15.3252 5.80103 15.3631 5.7604C15.9825 5.10286 15.9825 4.9179 15.3599 4.28496C14.3009 3.20831 13.243 2.13166 12.184 1.05608C11.6129 0.476599 11.3574 0.47446 10.7927 1.04967C8.41598 3.46491 6.03823 5.88228 3.66154 8.29859C3.64787 8.30928 3.63525 8.32104 3.62158 8.33387C3.23458 8.7038 0.590773 11.4034 0.226908 11.7969C-0.0654463 12.1112 -0.0801692 12.4459 0.211133 12.7463C1.41946 13.9929 2.6362 15.23 3.86135 16.4584C4.18526 16.7835 4.51442 16.7557 4.86356 16.436C4.98134 16.3269 5.09492 16.2147 5.23374 16.081C5.28421 16.2104 5.31156 16.2745 5.33469 16.3408C6.02036 18.3476 6.82486 20.2925 8.13835 21.9796C8.2025 22.0619 8.16464 22.2971 8.09313 22.4073C6.99417 24.1136 7.86387 26.315 9.82306 26.7502C10.0755 26.8058 10.3394 26.809 10.6149 26.8379C10.6002 27.7124 10.8516 28.4651 11.4489 29.0671C12.0431 29.6669 12.7929 29.8967 13.6258 29.8807C13.6058 30.7809 13.8666 31.5283 14.4639 32.1302C15.0591 32.7311 15.8121 32.9492 16.6271 32.946C16.5703 35.4671 19.2026 36.8965 21.2123 35.3334C22.1598 36.053 23.1883 36.2283 24.2694 35.6702C25.3504 35.1121 25.7721 34.1338 25.7942 32.9578C27.7376 32.8027 28.4917 32.0329 28.8166 29.9106C30.9399 29.5696 31.3794 29.1227 31.8274 26.8475C34.6132 26.392 35.4871 24.6611 34.1768 22.1464C35.9698 20.2807 36.9405 17.9349 37.7671 15.4812C37.8586 15.5507 37.9038 15.5796 37.9427 15.617C38.6063 16.2435 38.7756 16.2393 39.4276 15.5764C40.3867 14.6013 41.3489 13.6284 42.3038 12.6479C42.5488 12.3967 42.7686 12.1208 43 11.8557V11.4291C42.7497 11.165 42.5026 10.8988 42.2481 10.639ZM4.36403 15.0108C3.4712 14.1031 2.55522 13.1718 1.62243 12.2256C1.69709 12.1454 1.8012 12.0332 1.90637 11.923C1.99365 11.8322 3.55322 10.2455 4.21365 9.56982C4.25992 9.52813 4.3083 9.48215 4.35772 9.4319C6.62399 7.12893 8.88921 4.82488 11.1555 2.52191C11.2606 2.41499 11.3721 2.31449 11.411 2.27707C12.3575 3.22007 13.2819 4.14062 14.1779 5.03337C10.901 8.36595 7.60832 11.7124 4.36403 15.0108ZM11.2817 25.1668C11.043 25.3742 10.6949 25.4501 10.5266 25.5271C9.77364 25.4811 9.31618 25.2213 9.04906 24.6782C8.78405 24.1372 8.79982 23.5737 9.18262 23.1172C9.64218 22.5676 10.148 22.0491 10.6875 21.5808C11.2743 21.0719 12.1303 21.1788 12.6562 21.7487C13.1578 22.2939 13.2041 23.1653 12.7087 23.7309C12.2639 24.2387 11.7896 24.7263 11.2817 25.1668ZM14.4524 28.1091C13.8014 28.7346 12.898 28.7292 12.3123 28.1123C11.7455 27.5168 11.757 26.6048 12.3564 25.9665C12.7718 25.526 13.1914 25.0855 13.6415 24.6835C14.1022 24.2729 14.649 24.2045 15.2053 24.4739C15.7743 24.7487 16.0592 25.2245 16.0645 26.0809C15.9793 26.2466 15.8542 26.6144 15.627 26.8956C15.2726 27.3318 14.8583 27.7199 14.4524 28.1091ZM17.1898 31.3733C16.6292 31.8394 15.7858 31.6854 15.2937 31.137C14.811 30.5981 14.7447 29.7791 15.2137 29.2253C15.667 28.6897 16.1665 28.1861 16.6934 27.7242C16.93 27.5168 17.2823 27.4462 17.4453 27.3746C18.1888 27.4216 18.6326 27.6772 18.9018 28.1978C19.171 28.7196 19.1837 29.2788 18.8156 29.7225C18.3234 30.3169 17.7808 30.8814 17.1898 31.3733ZM21.7328 32.9235C21.2964 33.4196 20.8295 33.8933 20.3405 34.3359C19.7789 34.8438 18.9344 34.8021 18.3918 34.2889C17.8428 33.7714 17.7177 32.9075 18.1983 32.3227C18.6694 31.7475 19.212 31.2268 19.7684 30.735C19.9818 30.5457 20.3184 30.5019 20.4719 30.442C21.2343 30.4848 21.6907 30.767 21.9484 31.3348C22.2071 31.9046 22.1387 32.4606 21.7328 32.9235ZM33.3954 24.6268C33.1504 25.1785 32.5709 25.5923 31.9841 25.4907C31.6098 25.4266 31.2112 25.232 30.9241 24.9786C30.3015 24.4301 29.7442 23.8057 29.1605 23.2123C29.0816 23.1321 29.0049 23.0477 28.9207 22.9739C28.6021 22.6927 28.233 22.6831 27.9827 22.944C27.7282 23.2102 27.7303 23.5823 28.0289 23.8955C28.6725 24.5702 29.3519 25.2085 29.9745 25.9002C30.2069 26.1589 30.4067 26.5086 30.4771 26.8475C30.616 27.5104 30.2763 28.1102 29.7073 28.4063C29.1363 28.7036 28.4927 28.6223 28.0006 28.1444C27.3633 27.5253 26.7491 26.8817 26.1255 26.2488C26.0361 26.1589 25.9509 26.0627 25.8531 25.9836C25.5629 25.7505 25.2064 25.7537 24.9803 25.9996C24.7216 26.283 24.7205 26.592 24.9603 26.8838C25.1306 27.0902 25.3273 27.2741 25.5145 27.4655C26.0371 28 26.5735 28.5218 27.0814 29.0713C27.6367 29.6722 27.644 30.5372 27.1308 31.122C26.5924 31.7357 25.77 31.8063 25.0907 31.2963C25.0349 31.2546 24.9824 31.2075 24.9245 31.1658C24.6374 30.9584 24.3409 30.9467 24.0864 31.199C23.8161 31.4673 23.8161 31.7881 24.0517 32.081C24.3367 32.436 24.5365 32.8198 24.4923 33.286C24.3672 34.6288 22.9338 35.0276 22.1577 34.3755C23.1041 33.4816 23.6636 32.4253 23.2125 31.0889C22.7624 29.7556 21.7696 29.1644 20.3646 29.1515C20.3783 28.3101 20.1606 27.5446 19.5696 26.9426C18.9786 26.3396 18.2498 26.0552 17.3591 26.1087C17.358 25.2437 17.1456 24.4643 16.5367 23.8549C15.9383 23.2562 15.2022 22.9942 14.3546 23.0316C14.3188 21.6343 13.773 20.5993 12.4564 20.1331C11.1345 19.6649 10.0902 20.208 9.19524 21.2119C8.31081 20.131 7.70297 18.9357 7.20134 17.6848C6.89637 16.9235 6.6587 16.1345 6.3716 15.3647C6.28011 15.1188 6.30956 14.9563 6.49885 14.7649C8.98807 12.247 11.4668 9.71951 13.957 7.2027C14.0538 7.10541 14.2568 7.01773 14.3714 7.05409C16.4094 7.69024 18.3855 8.46645 20.0975 9.80611C20.1417 9.84032 20.1827 9.87881 20.2647 9.94938C20.1575 10.0638 20.0586 10.1728 19.9556 10.2776C18.947 11.304 17.928 12.3197 16.9321 13.3579C15.4987 14.8504 15.831 17.0925 17.6262 17.9617C18.6336 18.4492 19.6338 18.3423 20.4982 17.6195C21.269 16.9759 22.0189 16.3301 23.0095 16.0489C24.0737 15.7453 25.1327 15.7357 26.1928 16.0372C26.3179 16.0735 26.4399 16.1655 26.5335 16.2606C28.6936 18.4503 30.8505 20.6421 33.0042 22.8381C33.5385 23.3823 33.6668 24.0174 33.3954 24.6268ZM36.6839 14.5842C35.9667 16.9139 35.1127 19.1762 33.4564 21.0206C33.3933 21.0922 33.3155 21.1499 33.2272 21.229C32.3154 20.3021 31.4163 19.3869 30.5182 18.4727C29.5191 17.457 28.5001 16.4595 27.5294 15.4171C27.1277 14.9841 26.6618 14.7745 26.116 14.6697C23.7972 14.226 21.7297 14.7168 19.9829 16.3847C19.5875 16.7621 19.1532 17.0048 18.5884 16.9192C17.4705 16.7492 16.9384 15.4695 17.602 14.5404C17.643 14.4826 17.6851 14.4249 17.7345 14.3757C19.2794 12.8072 20.8053 11.2206 22.3743 9.67888C23.6331 8.44186 25.1979 7.7052 26.809 7.07012C27.3938 6.83918 27.9921 6.64139 28.5937 6.45856C28.7178 6.42007 28.9302 6.46925 29.0206 6.56013C31.5424 9.10581 34.0548 11.6611 36.5619 14.2218C36.6439 14.3051 36.7144 14.4837 36.6839 14.5842ZM38.6767 14.4035C35.4072 11.0773 32.1082 7.72124 28.8282 4.38332C29.7042 3.49057 30.6118 2.56681 31.4846 1.67941L41.3321 11.691C40.4635 12.5784 39.5506 13.5108 38.6767 14.4035Z" stroke-width="2" fill="white"/>
</svg>
