<svg width="66" height="76" viewBox="0 0 66 76" fill="none" xmlns="http://www.w3.org/2000/svg">
<path d="M24 75.0002L19.5 73.0915L15 75.0002V65.0002H24V75.0002Z" fill="black" stroke="black" stroke-miterlimit="10" stroke-linecap="square"/>
<path d="M63.1045 72.2236H8.37045C4.63371 72.2236 1.60449 69.1943 1.60449 65.4576M1.60449 65.4576V7.66159C1.60449 4.25872 4.36306 1.50015 7.76593 1.50015H58.3164C64.1045 1.50015 64.413 1.00022 64.413 2.5001V60.4232C64.413 60.9743 63.9972 61.4214 63.4461 61.423C56.3962 61.4439 13.0311 61.5685 7.76599 61.5002C1.60449 61.4202 1.60449 65.4576 1.60449 65.4576Z" stroke="black" stroke-width="2.5" stroke-miterlimit="10" stroke-linecap="round"/>
<path d="M2 65.0002H61" stroke="black" stroke-width="1.5" stroke-linecap="round"/>
<path d="M2 68.0002H61" stroke="black" stroke-width="1.5" stroke-linecap="round"/>
<path d="M8 7V55.5" stroke="black" stroke-width="1.5" stroke-linecap="round"/>
</svg>
