<?xml version="1.0" encoding="UTF-8" standalone="no"?>
<!-- Created with Inkscape (http://www.inkscape.org/) -->

<svg
   width="14.075653mm"
   height="18.533936mm"
   viewBox="0 0 14.075653 18.533936"
   version="1.1"
   id="svg5"
   xml:space="preserve"
   xmlns="http://www.w3.org/2000/svg"
   xmlns:svg="http://www.w3.org/2000/svg"><defs
     id="defs2"><linearGradient
       id="linearGradient3988"><stop
         style="stop-color:#f1736a;stop-opacity:1;"
         offset="0"
         id="stop3986" /></linearGradient></defs><g
     id="layer1"
     transform="translate(-152.28949,-174.83967)"><ellipse
       style="display:none;fill:#ffffff;fill-opacity:1;stroke:#ffffff;stroke-width:1.55318;stroke-linecap:round;stroke-linejoin:round;stroke-dasharray:none;stroke-opacity:1"
       id="path8915"
       cx="156.23645"
       cy="193.14584"
       rx="2.5257344"
       ry="1.7650574" /><rect
       style="fill:#b7b7b7;fill-opacity:1;stroke:#ffffff;stroke-width:1.776;stroke-linecap:round;stroke-linejoin:round;stroke-dasharray:none;stroke-opacity:0.5"
       id="rect8860"
       width="1.0539633"
       height="4.5232596"
       x="211.77217"
       y="123.15253"
       transform="rotate(19.897051)" /><rect
       style="fill:#b7b7b7;fill-opacity:1;stroke:#9d9d9d;stroke-width:0.176153;stroke-linecap:round;stroke-linejoin:round;stroke-dasharray:none;stroke-opacity:1"
       id="rect4068"
       width="1.0539633"
       height="4.5232596"
       x="211.77217"
       y="123.15253"
       transform="rotate(19.897051)" /><path
       id="path8857"
       style="fill:#f1736a;fill-opacity:1;stroke:#ffffff;stroke-width:2.9;stroke-linecap:round;stroke-linejoin:round;stroke-dasharray:none;stroke-opacity:0.5"
       d="m 159.64969,176.29053 a 3.5688925,1.488764 19.018353 0 0 -1.51412,0.66198 3.5688925,1.488764 19.018353 0 0 1.19166,1.75028 l -2.39469,5.30097 c -1.26314,0.16031 -2.42008,0.85992 -3.19309,1.95233 2.06366,1.72465 4.55013,2.58504 8.43721,3.0577 0.001,-0.025 0.002,-0.0499 0.003,-0.0749 -1e-4,-1.34158 -0.50179,-2.55878 -1.31671,-3.45301 l 1.66191,-5.60018 a 3.5688925,1.488764 19.018353 0 0 2.35852,-0.6072 3.5688925,1.488764 19.018353 0 0 -2.88872,-2.57038 3.5688925,1.488764 19.018353 0 0 -2.34507,-0.41755 z" /><path
       id="path456"
       style="fill:#f1736a;fill-opacity:1;stroke:#f1736a;stroke-width:1;stroke-linecap:round;stroke-linejoin:round;stroke-dasharray:none;stroke-opacity:1"
       d="m 159.64969,176.29053 a 3.5688925,1.488764 19.018353 0 0 -1.51412,0.66198 3.5688925,1.488764 19.018353 0 0 1.19166,1.75028 l -2.39469,5.30097 c -1.26314,0.16031 -2.42008,0.85992 -3.19309,1.95233 2.06366,1.72465 4.55013,2.58504 8.43721,3.0577 0.001,-0.025 0.002,-0.0499 0.003,-0.0749 -1e-4,-1.34158 -0.50179,-2.55878 -1.31671,-3.45301 l 1.66191,-5.60018 a 3.5688925,1.488764 19.018353 0 0 2.35852,-0.6072 3.5688925,1.488764 19.018353 0 0 -2.88872,-2.57038 3.5688925,1.488764 19.018353 0 0 -2.34507,-0.41755 z" /></g></svg>
