<?xml version="1.0" encoding="UTF-8" standalone="no"?>
<svg
   id="Layer_2"
   data-name="Layer 2"
   width="596.86999512"
   height="841.89001465"
   viewBox="0 0 596.86999512 841.89001465"
   version="1.1"
   sodipodi:docname="achtergrond.svg"
   inkscape:version="1.2.1 (9c6d41e410, 2022-07-14)"
   xmlns:inkscape="http://www.inkscape.org/namespaces/inkscape"
   xmlns:sodipodi="http://sodipodi.sourceforge.net/DTD/sodipodi-0.dtd"
   xmlns="http://www.w3.org/2000/svg"
   xmlns:svg="http://www.w3.org/2000/svg">
  <defs
     id="defs204" />
  <sodipodi:namedview
     id="namedview202"
     pagecolor="#ffffff"
     bordercolor="#999999"
     borderopacity="1"
     inkscape:showpageshadow="0"
     inkscape:pageopacity="0"
     inkscape:pagecheckerboard="0"
     inkscape:deskcolor="#d1d1d1"
     showgrid="false"
     inkscape:zoom="1"
     inkscape:cx="670.5"
     inkscape:cy="464"
     inkscape:window-width="2560"
     inkscape:window-height="1377"
     inkscape:window-x="-8"
     inkscape:window-y="-8"
     inkscape:window-maximized="1"
     inkscape:current-layer="Layer_2" />
  <g
     id="Achtergrond"
     transform="matrix(1.0024478,0,0,1,-1.4609986,0)">
    <g
       id="g198">
      <rect
         x="1.5899658"
         width="595.28003"
         height="841.89001"
         fill="#2fbace"
         id="rect2"
         y="0" />
      <g
         id="g8">
        <path
           d="m 391.41998,639.39001 v 202.5 H 1.5899658 v -53.73004 c 0.6099854,-1 1.2199707,-2.01001 1.8200073,-3.02997 0.5100098,-0.84002 1.0100098,-1.67999 1.5200196,-2.53002 0.049988,-0.09 0.099976,-0.16999 0.1599731,-0.26001 0.01001,-0.02 0.02002,-0.04 0.039978,-0.06 C 52.389954,703.09998 112.55994,589.94 145.91998,581.39001 c 17.07001,-4.38 44.33997,24 58,43 l 0.12,-0.14001 c 13.16998,-16.54999 63.10998,-79.29999 107.38,-92.85999 26.65998,-8.17004 45.63996,20.62995 59.26001,52.01996 9.06,20.88001 15.75,42.91999 20.73999,55.98004 z"
           fill="#28acc1"
           id="path4" />
        <path
           d="M 596.87,575.82996 V 841.89001 H 254.41998 c 3.01996,-8.84002 6.46997,-18.38 10.28998,-28.48004 4.39002,-11.61999 9.28003,-23.98999 14.57001,-36.89001 0.17999,-0.44 0.35998,-0.87 0.53998,-1.31 0.73004,-1.78998 1.48004,-3.57996 2.23004,-5.38995 0.69,-1.67005 1.38995,-3.35004 2.09997,-5.03003 0.53003,-1.27002 1.06,-2.53998 1.59998,-3.82001 0.26001,-0.63 0.53003,-1.26996 0.80005,-1.89996 0.19995,-0.47003 0.39996,-0.93 0.58996,-1.40003 0.23005,-0.53998 0.46003,-1.08001 0.69001,-1.63 0.25,-0.58997 0.51001,-1.19 0.77002,-1.78998 1.08996,-2.58002 2.20996,-5.17999 3.33996,-7.79004 0.36005,-0.85998 0.74005,-1.71997 1.11005,-2.57996 4.57001,-10.55999 9.33996,-21.34002 14.26996,-32.23999 19.41003,-42.86004 41.33001,-87.58001 63.36004,-128.23004 44.93,-82.89001 90.29999,-148.82 115.73999,-147.51996 47.76001,2.44996 91.43,92.28998 110.45002,139.93995 z"
           fill="#24a8bd"
           id="path6" />
      </g>
      <g
         id="g192">
        <circle
           cx="553.58698"
           cy="698.30835"
           r="1"
           fill="#aadb7e"
           id="circle10" />
        <path
           d="m 298.35898,710.51337 c -40.357,-3.47205 -110.049,38.00897 -139.851,59.18396 L 84.586975,804.41834 C 237.92297,814.93933 548.492,827.14435 564.07599,791.79236 c 19.479,-44.19 -155.33502,-46.95202 -179.30902,-44.97998 -23.97501,1.97296 -35.96201,-31.95904 -86.40799,-36.29901 z"
           fill="#91d163"
           id="path12" />
        <path
           d="M 596.87,714.65997 V 841.89001 H 1.5899658 v -56.96002 c 0,-1.64032 0,-0.80999 0,-0.80999 1.0999756,-0.51001 2.2199707,-1.02002 3.3400269,-1.52002 0.099976,-0.05 0.1900024,-0.09 0.289978,-0.13001 h 0.01001 c 0.019959,-0.02 0.039978,-0.03 0.059997,-0.03 1.4699708,-0.67004 2.959961,-1.34002 4.4699708,-2.02002 h 0.01001 c 0.030029,-0.01 0.039978,-0.02 0.070007,-0.03 C 26.459961,772.98999 45.23999,765.21997 64.589966,758.12 c 1.659973,-0.60999 3.330017,-1.21003 5,-1.81 40.010014,-14.35999 81.820004,-25.48004 111.450014,-24.21002 0.05,0 0.09,0 0.14001,0.01 h 0.01 c 1.44,0.06 2.86005,0.15002 4.24005,0.28002 h 0.04 c 0.67999,0.06 1.34998,0.12995 2.01001,0.20997 h 0.01 c 0.07,0.01 0.12,0.01 0.17999,0.02 h 0.01 c 1.14997,0.14001 2.26996,0.28997 3.37,0.46997 0.06,0.01 0.10998,0.02 0.15997,0.03 0.51001,0.09 1.01001,0.16998 1.51001,0.27001 0.03,0 0.05,0.01 0.08,0.02 h 0.01 c 0.37005,0.07 0.74005,0.14002 1.11004,0.22003 0.13001,0.02 0.25,0.05 0.38001,0.08 0.81,0.17004 1.59997,0.36005 2.38,0.57001 0.18,0.04 0.34998,0.09 0.52997,0.14001 0.46002,0.12 0.91998,0.25 1.38001,0.39002 3.65997,1.09997 7.32,2.31 10.97998,3.58996 24.48004,8.61005 48.96002,20.91004 72.48004,31.42005 0.69995,0.29999 1.39996,0.61999 2.09997,0.91998 1,0.45001 2,0.89001 2.98999,1.32001 1.89002,0.82 3.77002,1.63 5.64002,2.42999 0.04,0.01 0.06,0.03 0.1,0.04 h 0.01 c 1.09003,0.46002 2.16999,0.91003 3.25,1.36004 0.14002,0.06 0.29004,0.12 0.44001,0.18 12.14001,5.00995 23.95001,9.19995 35.30999,11.76996 0.82001,0.19 1.63001,0.36999 2.45002,0.54003 h 0.01 c 2.48999,0.51996 4.95001,0.94996 7.39001,1.29999 1.67999,0.22998 3.34998,0.43 5.00995,0.57001 9.55005,0.87 18.69,0.23999 27.34003,-2.44 5.05999,-1.56 10.90002,-4.09003 17.33001,-7.35004 4.83988,-2.46 10.02988,-5.33 15.46988,-8.52 1.48005,-0.86004 2.98005,-1.75 4.5,-2.66003 0.34003,-0.20001 0.66999,-0.39997 1.01001,-0.60999 2.01001,-1.21002 4.03998,-2.46002 6.10999,-3.73999 1.94,-1.20001 3.91003,-2.44 5.90002,-3.70001 1.41999,-0.89001 2.84998,-1.79999 4.27997,-2.71997 1.92005,-1.23004 3.84003,-2.48004 5.79004,-3.74005 0.89996,-0.57996 1.79999,-1.15997 2.70996,-1.75995 2.67005,-1.74005 5.36005,-3.51001 8.07001,-5.29004 h 0.03 c 38.64996,-25.52997 80.34997,-54.63 105.20996,-62.45996 0.03,-0.01 0.05,-0.02 0.07,-0.03 h 0.01 c 1.67999,-0.52997 3.29004,-0.96002 4.80999,-1.27997 h 0.01 c 0.02,-0.01 0.03,-0.01 0.05,-0.01 1.04004,-0.22003 2.04004,-0.39001 3,-0.51001 0.05,-0.01 0.10999,-0.02 0.16004,-0.02 0.82,-0.1 1.60998,-0.15997 2.36999,-0.16998 0.08,-0.01 0.14996,-0.01 0.21997,0 1.02002,-0.02 1.97003,0.04 2.85999,0.17999 0.02,0 0.04,0 0.0601,0.01 0.30999,0.04 0.59997,0.1 0.88995,0.16999 h 0.01 l 0.01,0.01 c 0.90997,0.20001 1.73999,0.5 2.5,0.89001 0.19,0.1 0.38,0.20001 0.56,0.31 0.14001,0.08 0.28003,0.16998 0.41998,0.26001 8.89001,5.55999 18.95001,16.90997 28.36005,29.58996 z"
           fill="#86cb56"
           id="path14"
           sodipodi:nodetypes="cccsccccccccccccccccccccccccccccccccccccccccccccccccccccccccccccccccccccccccccc" />
        <path
           d="m 553.25897,682.04236 -3.17199,3.76599 7.30798,1.01099 9.31103,-0.17401 -2.11901,-3.83698 -2.12098,2.45398 -2.37902,-3.21997 -3.35303,3.10297 z"
           fill="#86cb56"
           id="path16" />
        <path
           d="m 549.82495,686.08637 3.38605,-4.14099 3.52197,3.138 3.40198,-3.26703 2.58301,3.44702 1.86902,-2.45502 1.604,2.97303 1.85602,-1.78302 0.98797,2.31201"
           fill="none"
           stroke="#6ab04e"
           stroke-width="0.3"
           id="path18" />
        <rect
           x="411.38696"
           y="760.15833"
           width="7.125"
           height="51.299988"
           fill="#816b35"
           id="rect20" />
        <path
           d="m 401.41199,760.87036 c 0.56997,10.83002 7.362,12.58802 10.68698,12.11298 h 6.41299 c 7.41001,1.14002 10.68701,-7.59998 11.40003,-12.11298 h -4.27503 c 0,5.70002 -4.75,7.59998 -7.125,7.83802 -0.47497,-0.23804 -2.42297,-0.57001 -6.41299,0 -3.98999,0.56994 -5.93698,-4.98804 -6.41199,-7.83802 z"
           fill="#816b35"
           id="path22" />
        <path
           d="m 437.03699,747.33338 c 2.28,4.55999 -1.90003,9.97497 -4.27503,12.112 l -18.52499,-4.27503 c -3.08798,-15.20001 -8.12299,-47.59497 -3.56299,-55.57501 4.56,-7.97998 9.97501,-3.79999 12.11301,-0.71198 z"
           fill="#6ab04e"
           id="path24" />
        <path
           d="m 408.46597,703.47638 c 1.65399,-5.81006 9.888,-5.81006 11.542,0 l 14.26602,50.10797 c 1.091,3.831 -1.78601,7.64301 -5.77002,7.64301 h -28.534 c -3.98401,0 -6.86099,-3.81201 -5.76999,-7.64301 z"
           fill="#7cb853"
           id="path26" />
        <path
           d="m 414.94998,749.47034 c 0.71201,0.71301 2.422,1.995 3.56198,1.42499 1.42502,-0.71198 4.27503,-4.987 2.85001,-8.54999 1.89999,1.90002 5.84302,4.27502 6.41299,-1.42499 0.57001,-5.70001 -2.61297,-7.59997 -4.27499,-7.83697 m -26.36301,18.52496 c 2.375,0.71204 7.26801,0.85504 7.83802,-4.27496 m 0,-5.70002 c 2.375,2.612 7.552,5.98499 9.26199,-1.42498 2.138,-9.263 -6.41199,-11.40003 -8.54999,-9.263 m 4.275,-17.81202 c 1.42498,4.27497 6.83999,5.70002 8.54998,0"
           fill="none"
           stroke="#6b9e45"
           stroke-width="0.3"
           id="path28" />
        <path
           d="m 407.82498,802.75836 -10.68802,6.59998 19.23801,4.95001 29.21201,-5.77502 -7.83701,-4.125 -3.56299,1.65002 -8.55002,-7.42499 -10.68698,11.54999 z"
           fill="#86cb56"
           id="path30" />
        <path
           d="m 399.27496,812.17035 7.83701,-9.97497 7.83801,7.83795 7.83701,-7.83795 5.69998,8.54998 3.56302,-5.70001 4.27499,7.125 4.275,-4.27502 2.13699,5.70001"
           fill="none"
           stroke="#6ab04e"
           stroke-width="0.5"
           id="path32" />
        <rect
           x="64.586975"
           y="743.30835"
           width="5"
           height="36"
           fill="#816b35"
           id="rect34" />
        <path
           d="m 57.586975,743.80835 c 0.400002,7.59998 5.166702,8.83301 7.5,8.5 h 4.5 c 5.199997,0.79999 7.5,-5.33301 8,-8.5 h -3 c 0,4 -3.333298,5.33301 -5,5.5 -0.333298,-0.16699 -1.699997,-0.40002 -4.5,0 -2.800003,0.40003 -4.166702,-3.5 -4.5,-5.5 z"
           fill="#816b35"
           id="path36" />
        <path
           d="m 82.586975,734.30835 c 1.599999,3.20001 -1.333,7 -3,8.5 l -13,-3 c -2.166702,-10.66699 -5.699997,-33.40002 -2.5,-39 3.199997,-5.59997 7,-2.66699 8.5,-0.5 z"
           fill="#6ab04e"
           id="path38" />
        <path
           d="m 62.739876,702.82038 c 1.102699,-3.87305 6.591499,-3.87305 7.694198,0 l 10.290902,36.143 c 0.726997,2.55396 -1.191399,5.09497 -3.847397,5.09497 H 56.296371 c -2.655998,0 -4.574394,-2.54101 -3.847099,-5.09497 z"
           fill="#7cb853"
           id="path40" />
        <path
           d="m 67.086975,735.80835 c 0.5,0.5 1.699997,1.40003 2.5,1 1,-0.5 3,-3.5 2,-6 1.333298,1.33301 4.099999,3 4.5,-1 0.400002,-4 -1.833298,-5.33301 -3,-5.5 m -18.5,13 c 1.666702,0.5 5.099999,0.59998 5.5,-3 m 0,-4 c 1.666702,1.83301 5.300003,4.20001 6.5,-1 1.5,-6.5 -4.5,-8 -6,-6.5 m 3,-12.5 c 1,3 4.800003,4 6,0"
           fill="none"
           stroke="#6b9e45"
           stroke-width="0.3"
           id="path42" />
        <path
           d="m 62.086975,773.20337 -7.5,4.63098 13.5,3.474 20.5,-4.05298 -5.5,-2.89404 -2.5,1.15802 -6,-5.211 -7.5,8.10498 z"
           fill="#86cb56"
           id="path44" />
        <path
           d="m 56.086975,779.80835 5.5,-7 5.5,5.5 5.5,-5.5 4,6 2.5,-4 3,5 3,-3 1.5,4"
           fill="none"
           stroke="#6ab04e"
           stroke-width="0.5"
           id="path46" />
        <rect
           x="284.15198"
           y="755.59137"
           width="2.9891357"
           height="21.521729"
           fill="#816b35"
           id="rect48" />
        <path
           d="m 279.96698,755.89032 c 0.23999,4.54303 3.08899,5.28003 4.48401,5.08106 h 2.68997 c 3.10901,0.47796 4.48401,-3.18805 4.78302,-5.08106 h -1.793 c 0,2.39106 -1.99301,3.18805 -2.99002,3.28803 -0.19897,-0.1 -1.01599,-0.23999 -2.68997,0 -1.67401,0.23901 -2.49103,-2.09302 -2.69,-3.28803 z"
           fill="#816b35"
           id="path50" />
        <path
           d="m 294.91296,750.21033 c 0.957,1.91303 -0.79699,4.185 -1.793,5.08203 l -7.772,-1.794 c -1.29498,-6.37702 -3.40799,-19.96698 -1.49499,-23.31501 1.91299,-3.34802 4.18499,-1.59399 5.082,-0.29901 z"
           fill="#6ab04e"
           id="path52" />
        <path
           d="m 283.42398,730.06433 c 0.552,-1.93701 3.29599,-1.93701 3.84699,0 l 6.67102,23.42701 c 0.36297,1.27801 -0.59601,2.54803 -1.92402,2.54803 h -13.33999 c -1.328,0 -2.288,-1.27002 -1.92401,-2.54803 z"
           fill="#7cb853"
           id="path54" />
        <path
           d="m 285.64697,751.10736 c 0.29901,0.29902 1.01599,0.83698 1.49399,0.59797 0.59802,-0.29895 1.79401,-2.09296 1.19602,-3.58698 0.79699,0.797 2.45098,1.79303 2.69,-0.59802 0.23898,-2.39099 -1.09601,-3.18799 -1.793,-3.28797 m -11.06,7.77198 c 0.996,0.29901 3.04898,0.35803 3.288,-1.79401 m 0,-2.39099 c 0.996,1.09601 3.16799,2.51099 3.88598,-0.59796 0.897,-3.88605 -2.68997,-4.78205 -3.58697,-3.88605 m 1.793,-7.47296 c 0.59799,1.79401 2.86999,2.39197 3.58697,0"
           fill="none"
           stroke="#6b9e45"
           stroke-width="0.3"
           id="path56" />
        <path
           d="m 282.65799,773.46234 -4.48401,2.76899 8.07098,2.07702 h 8.84202 l -2.5,-3.5 -1.5,2 -2,-3.34601 -3.44001,3.11499 z"
           fill="#86cb56"
           id="path58" />
        <path
           d="m 279.07098,777.41138 3.288,-4.185 3.28799,3.28894 3.288,-3.28894 2.39102,3.58698 1.49499,-2.39099 1.793,2.98901 1.79401,-1.79303 0.896,2.39099"
           fill="none"
           stroke="#6ab04e"
           stroke-width="0.3"
           id="path60" />
        <path
           d="m 208.81897,775.20935 -4.095,3.31702 8.26901,1.03296 8.771,-1.125 -2.92501,-3.15399 -1.23399,2.17499 -2.40901,-3.06397 -3.01599,3.52802 z"
           fill="#86cb56"
           id="path62" />
        <path
           d="m 205.76297,779.58338 2.729,-4.57001 3.68001,2.84296 2.84299,-3.67896 2.828,3.25299 1.17801,-2.56201 2.159,2.737 1.55099,-2.008 1.194,2.258"
           fill="none"
           stroke="#6ab04e"
           stroke-width="0.3"
           id="path64" />
        <path
           d="m 562.06396,734.40638 -4.09497,3.31695 8.26996,1.03302 8.77002,-1.12598 -2.92499,-3.15301 -1.23303,2.17499 -2.40997,-3.06397 -3.01599,3.52698 z"
           fill="#86cb56"
           id="path66" />
        <path
           d="m 559.00897,738.77936 2.72901,-4.56903 3.67901,2.84302 2.84296,-3.67999 2.82904,3.25396 1.17798,-2.56195 2.15899,2.73596 1.55103,-2.00695 1.19299,2.25799"
           fill="none"
           stroke="#6ab04e"
           stroke-width="0.3"
           id="path68" />
        <path
           d="m 480.97098,750.99836 -5.08301,1.93298 8.08401,3.31604 9.20002,1.44299 -2.07303,-3.77704 -1.86301,1.68 -1.57498,-3.54596 -4.05002,2.43701 z"
           fill="#86cb56"
           id="path70" />
        <path
           d="m 476.64297,754.21338 4.05301,-3.49103 2.92499,3.70099 3.91699,-2.62799 1.94602,3.84198 1.91598,-2.057 1.41504,3.169 2.13697,-1.43298 0.57202,2.448"
           fill="none"
           stroke="#6ab04e"
           stroke-width="0.3"
           id="path72" />
        <path
           d="m 183.69897,729.86035 -4.13899,3.482 7.12099,2.03497 8.776,1.08106 -2.05299,-3.78003 -1.73401,1.802 -1.57599,-3.565 -3.795,2.67102 z"
           fill="#86cb56"
           id="path74" />
        <path
           d="m 179.66997,733.61035 3.77501,-3.75201 2.862,3.66602 3.66499,-2.862 1.93501,3.85296 1.77599,-2.19098 1.414,3.18604 2,-1.56104 0.597,2.48304"
           fill="none"
           stroke="#6ab04e"
           stroke-width="0.3"
           id="path76" />
        <path
           d="m 299.23099,708.58637 -2.55701,2.151 4.39899,1.25696 5.42102,0.66803 -1.26801,-2.33503 -1.07101,1.11304 -0.974,-2.20202 -2.34399,1.65002 z"
           fill="#91d163"
           id="path78" />
        <path
           d="m 384.74997,745.50232 -1.72,2.86402 4.569,-0.23999 5.34399,-1.12897 -1.95797,-1.79602 -0.65101,1.401 -1.63601,-1.76703 -1.68201,2.32202 z"
           fill="#91d163"
           id="path80" />
        <polygon
           points="0.30999756,784.78998 0.13995361,784.77997 0,784.76001 1.5899658,782.88 2.0999756,782.27997 2.1099854,782.26996 3.3699951,780.77997 3.499939,780.63 5.1299439,782.27997 5.289978,782.44 6.1099853,783.26996 6.1299439,783.28998 6.6899414,783.85999 9.9799805,780.58997 12.129944,783.83997 12.249939,783.66998 13.47998,781.84998 13.509949,781.81 13.539978,781.76996 16.199951,785.14996 7.3699951,785.56 3.4099731,785.13 1.5899658,784.92999 "
           fill="#86cb56"
           id="polygon82"
           transform="translate(4)" />
        <path
           d="m 4.1585751,785.00135 3.0895996,-4.33301 3.4376013,3.13104 3.1313,-3.43805 2.555799,3.47205 1.3816,-2.45801 1.930702,2.90198 1.707996,-1.875 1.007202,2.34698"
           fill="none"
           stroke="#6ab04e"
           stroke-width="0.3"
           id="path84" />
        <ellipse
           cx="133.58698"
           cy="765.80835"
           rx="1"
           ry="1.5"
           fill="#6fb93c"
           id="ellipse86" />
        <ellipse
           cx="134.58698"
           cy="786.80835"
           rx="1"
           ry="1.5"
           fill="#6fb93c"
           id="ellipse88" />
        <ellipse
           cx="221.58698"
           cy="807.80835"
           rx="1"
           ry="1.5"
           fill="#6fb93c"
           id="ellipse90" />
        <circle
           cx="79.586975"
           cy="802.30835"
           r="1"
           fill="#6fb93c"
           id="circle92" />
        <circle
           cx="174.58698"
           cy="753.30835"
           r="1"
           fill="#6fb93c"
           id="circle94" />
        <circle
           cx="283.58698"
           cy="787.30835"
           r="1"
           fill="#6fb93c"
           id="circle96" />
        <circle
           cx="511.58698"
           cy="752.30835"
           r="1"
           fill="#6fb93c"
           id="circle98" />
        <ellipse
           cx="28.086975"
           cy="787.80835"
           rx="1.5"
           ry="0.5"
           fill="#6fb93c"
           id="ellipse100" />
        <ellipse
           cx="8.0869751"
           cy="799.80835"
           rx="1.5"
           ry="0.5"
           fill="#6fb93c"
           id="ellipse102" />
        <ellipse
           cx="66.086975"
           cy="790.80835"
           rx="1.5"
           ry="0.5"
           fill="#6fb93c"
           id="ellipse104" />
        <ellipse
           cx="123.08698"
           cy="744.80835"
           rx="1.5"
           ry="0.5"
           fill="#6fb93c"
           id="ellipse106" />
        <ellipse
           cx="101.08698"
           cy="758.80835"
           rx="1.5"
           ry="0.5"
           fill="#6fb93c"
           id="ellipse108" />
        <ellipse
           cx="217.08698"
           cy="763.80835"
           rx="1.5"
           ry="0.5"
           fill="#6fb93c"
           id="ellipse110" />
        <ellipse
           cx="194.08698"
           cy="783.80835"
           rx="1.5"
           ry="0.5"
           fill="#6fb93c"
           id="ellipse112" />
        <ellipse
           cx="324.08698"
           cy="802.80835"
           rx="1.5"
           ry="0.5"
           fill="#6fb93c"
           id="ellipse114" />
        <ellipse
           cx="400.08698"
           cy="809.80835"
           rx="1.5"
           ry="0.5"
           fill="#6fb93c"
           id="ellipse116" />
        <ellipse
           cx="392.08698"
           cy="785.80835"
           rx="1.5"
           ry="0.5"
           fill="#6fb93c"
           id="ellipse118" />
        <ellipse
           cx="563.08698"
           cy="738.80835"
           rx="1.5"
           ry="0.5"
           fill="#6fb93c"
           id="ellipse120" />
        <ellipse
           cx="568.08698"
           cy="719.80835"
           rx="1.5"
           ry="0.5"
           fill="#6fb93c"
           id="ellipse122" />
        <ellipse
           cx="572.08698"
           cy="736.80835"
           rx="1.5"
           ry="0.5"
           fill="#6fb93c"
           id="ellipse124" />
        <ellipse
           cx="427.08698"
           cy="776.80835"
           rx="1.5"
           ry="0.5"
           fill="#6fb93c"
           id="ellipse126" />
        <ellipse
           cx="469.08698"
           cy="777.80835"
           rx="1.5"
           ry="0.5"
           fill="#6fb93c"
           id="ellipse128" />
        <ellipse
           cx="539.08698"
           cy="725.80835"
           rx="1.5"
           ry="0.5"
           fill="#6fb93c"
           id="ellipse130" />
        <ellipse
           cx="312.08698"
           cy="789.80835"
           rx="1.5"
           ry="0.5"
           fill="#6fb93c"
           id="ellipse132" />
        <ellipse
           cx="151.08698"
           cy="763.30835"
           rx="0.5"
           ry="1"
           fill="#6fb93c"
           id="ellipse134" />
        <ellipse
           cx="47.086975"
           cy="798.30835"
           rx="0.5"
           ry="1"
           fill="#6fb93c"
           id="ellipse136" />
        <ellipse
           cx="46.086975"
           cy="767.30835"
           rx="0.5"
           ry="1"
           fill="#6fb93c"
           id="ellipse138" />
        <ellipse
           cx="223.08698"
           cy="793.30835"
           rx="0.5"
           ry="1"
           fill="#6fb93c"
           id="ellipse140" />
        <ellipse
           cx="512.08698"
           cy="779.30835"
           rx="0.5"
           ry="1"
           fill="#6fb93c"
           id="ellipse142" />
        <ellipse
           cx="274.08698"
           cy="801.30835"
           rx="0.5"
           ry="1"
           fill="#6fb93c"
           id="ellipse144" />
        <ellipse
           cx="256.08698"
           cy="774.30835"
           rx="0.5"
           ry="1"
           fill="#6fb93c"
           id="ellipse146" />
        <ellipse
           cx="187.08698"
           cy="802.30835"
           rx="0.5"
           ry="1"
           fill="#6fb93c"
           id="ellipse148" />
        <ellipse
           cx="109.08698"
           cy="792.30835"
           rx="0.5"
           ry="1"
           fill="#6fb93c"
           id="ellipse150" />
        <ellipse
           cx="121.08698"
           cy="796.30835"
           rx="0.5"
           ry="1"
           fill="#6fb93c"
           id="ellipse152" />
        <ellipse
           cx="155.08698"
           cy="742.30835"
           rx="0.5"
           ry="1"
           fill="#6fb93c"
           id="ellipse154" />
        <ellipse
           cx="198.08698"
           cy="751.30835"
           rx="0.5"
           ry="1"
           fill="#6fb93c"
           id="ellipse156" />
        <ellipse
           cx="350.08698"
           cy="798.30835"
           rx="0.5"
           ry="1"
           fill="#6fb93c"
           id="ellipse158" />
        <ellipse
           cx="489.08698"
           cy="771.30835"
           rx="0.5"
           ry="1"
           fill="#6fb93c"
           id="ellipse160" />
        <ellipse
           cx="435.08698"
           cy="791.30835"
           rx="0.5"
           ry="1"
           fill="#6fb93c"
           id="ellipse162" />
        <ellipse
           cx="474.08698"
           cy="758.30835"
           rx="0.5"
           ry="1"
           fill="#6fb93c"
           id="ellipse164" />
        <ellipse
           cx="494.08698"
           cy="718.30835"
           rx="0.5"
           ry="1"
           fill="#6fb93c"
           id="ellipse166" />
        <ellipse
           cx="458.08698"
           cy="744.30835"
           rx="0.5"
           ry="1"
           fill="#6fb93c"
           id="ellipse168" />
        <ellipse
           cx="550.08698"
           cy="776.30835"
           rx="0.5"
           ry="1"
           fill="#6fb93c"
           id="ellipse170" />
        <ellipse
           cx="154.08698"
           cy="792.30835"
           rx="0.5"
           ry="1"
           fill="#6fb93c"
           id="ellipse172" />
        <ellipse
           cx="298.08698"
           cy="809.30835"
           rx="0.5"
           ry="1"
           fill="#6fb93c"
           id="ellipse174" />
        <ellipse
           cx="194.08698"
           cy="769.30835"
           rx="0.5"
           ry="1"
           fill="#6fb93c"
           id="ellipse176" />
        <path
           d="m 109.62798,805.07434 h 4.42599 l 39.83101,-6.03497 v -15.28802 c -15.772,-7.40302 -24.81101,3.755 -27.35901,10.46002 -8.04599,-3.54004 -10.32599,2.81695 -10.45999,6.43799 -5.79401,0 -6.70601,2.95001 -6.438,4.42498 z"
           fill="#6ab04e"
           id="path178" />
        <path
           d="m 171.58698,805.27338 h -57.131 c 0.644,-2.89606 4.29199,-3.08405 6.035,-2.81604 0.644,-8.69 7.24199,-8.18097 10.461,-6.83997 9.01199,-18.66803 24.944,-13.276 28.16299,-8.44799 6.11501,-0.96601 6.303,6.30297 5.63201,10.05798 5.14999,-0.32202 6.70599,5.22998 6.84,8.04602 z"
           fill="#7cb853"
           id="path180" />
        <path
           d="M 596.87,768.78998 V 778.5 l -37.90003,-5.73999 -11.75,-1.78003 v -20.40997 c 0.77002,-0.36005 1.51001,-0.68 2.25,-0.97003 0.02,-0.01 0.03,-0.01 0.04,-0.02 19.65002,-7.79999 30.97003,6.33001 34.25,14.96002 7.86999,-3.46002 11.60004,0.16003 13.11005,4.25 z"
           fill="#6ab04e"
           id="path182" />
        <path
           d="M 596.87,776.01001 V 779.31 h -73.28003 c 0.17999,-3.76001 2.25,-11.18 9.13,-10.75 -0.40002,-2.23999 -0.57001,-5.41999 0.09,-8.14002 0.82,-3.34997 2.91003,-6 7.43005,-5.28998 1.45996,-2.19 4.88001,-4.46002 9.22998,-5.53002 0.02,-0.01 0.03,-0.01 0.04,-0.02 8.46002,-2.06995 20.40002,0.41003 28.34003,16.84002 1.54998,-0.65002 3.70001,-1.15997 5.83996,-0.97998 3.79004,0.29999 7.57001,2.70001 8.12,10.10999 1.28003,-0.20001 3.33001,-0.21002 5.06006,0.46002 z"
           fill="#7cb853"
           id="path184" />
        <path
           d="m 319.60797,798.19135 h 2.21201 l 19.91598,-3.01697 v -7.64502 c -7.88598,-3.70099 -12.405,1.87799 -13.67898,5.23102 -4.02399,-1.771 -5.16401,1.40796 -5.23099,3.21796 -2.89603,0 -3.35202,1.47503 -3.21802,2.21301 z"
           fill="#6ab04e"
           id="path186" />
        <path
           d="m 350.58698,798.29132 h -28.56501 c 0.32102,-1.44897 2.14499,-1.54296 3.017,-1.40796 0.32199,-4.346 3.621,-4.091 5.23001,-3.41998 4.50598,-9.33404 12.47299,-6.63904 14.082,-4.22503 3.05799,-0.48298 3.151,3.15197 2.81598,5.02899 2.57501,-0.16101 3.35303,2.61602 3.42002,4.02398 z"
           fill="#7cb853"
           id="path188" />
        <rect
           x="133.58698"
           y="768.30835"
           width="24"
           height="17"
           fill="none"
           id="rect190" />
      </g>
      <path
         d="m 120.08997,408.10999 c 0,11.46997 -9.29999,20.76001 -20.770024,20.76001 -0.409973,0 -0.809997,-0.04 -1.21997,-0.06 v 0.06 H 1.5899658 v -64.60004 c 2.2800293,-0.87995 4.7600098,-1.34998 7.3599854,-1.34998 0.2100219,0 0.4100342,0.03 0.6199951,0.03 3.2499997,-7.21002 10.4899907,-12.24005 18.9200437,-12.24005 5.719971,0 10.899964,2.31 14.649964,6.05005 3.760009,-3.74005 8.940002,-6.05005 14.660034,-6.05005 8.679992,0 16.109985,5.33002 19.209961,12.90003 1.670044,-0.44001 3.410034,-0.69001 5.220031,-0.69001 11.459961,0 20.76001,9.29999 20.76001,20.76001 0,1.34998 -0.14001,2.66999 -0.39001,3.95001 9.90997,1.57001 17.48999,10.13001 17.48999,20.47999 z"
         fill="#65c5d9"
         id="path194" />
      <path
         d="M 596.87,339.03998 V 404.94 h -90.24006 v -0.06 c -10.89996,-0.63 -19.53997,-9.64001 -19.53997,-20.70001 0,-10.35003 7.58001,-18.90002 17.47998,-20.47998 -0.25,-1.28003 -0.38001,-2.59002 -0.38001,-3.94 0,-11.47003 9.29004,-20.77002 20.76001,-20.77002 0.21002,0 0.41004,0.03 0.62,0.04 3.25,-7.21997 10.48999,-12.25 18.92004,-12.25 5.71997,0 10.89996,2.32001 14.64996,6.06 3.76001,-3.73999 8.94001,-6.06 14.66004,-6.06 8.67999,0 16.10998,5.34003 19.20996,12.90002 1.25,-0.32 2.53003,-0.54999 3.86005,-0.64001 z"
         fill="#65c5d9"
         id="path196" />
    </g>
  </g>
  <path
     d="m 246.01612,310.84067 c 0.2464,-1.27893 0.38562,-2.59625 0.38562,-3.94714 0,-11.46674 -9.29565,-20.76233 -20.76233,-20.76233 -1.80456,0 -3.54578,0.25415 -5.21503,0.68683 -3.10009,-7.56592 -10.52856,-12.89984 -19.21093,-12.89984 -5.72089,0 -10.90021,2.31494 -14.65546,6.0578 -3.75525,-3.74286 -8.93463,-6.0578 -14.65552,-6.0578 -8.42773,0 -15.66699,5.03021 -18.92053,12.24432 -0.20801,-0.006 -0.41101,-0.0313 -0.62048,-0.0313 -11.46674,0 -20.76233,9.29559 -20.76233,20.76233 0,1.35089 0.13922,2.66821 0.38562,3.94714 -9.90528,1.57502 -17.48462,10.13031 -17.48462,20.47882 0,11.05445 8.64618,20.06525 19.54132,20.70069 v 0.0615 h 1.21857 c 7.9e-4,0 0.002,1.2e-4 0.002,1.2e-4 7.9e-4,0 0.002,-1.2e-4 0.002,-1.2e-4 h 106.25152 v -0.0616 c 0.40662,0.0237 0.80945,0.0617 1.22199,0.0617 11.46667,0 20.76233,-9.29565 20.76233,-20.76233 0,-10.34851 -7.57941,-18.9038 -17.48462,-20.47882 z"
     fill="#65c5d9"
     id="path141" />
</svg>
