<svg width="36" height="38" viewBox="0 0 36 38" fill="none" xmlns="http://www.w3.org/2000/svg">
<path d="M22.25 28.5294L22.2521 26.4795C24.1853 25.5248 25.7376 23.9466 26.6569 22.0015C27.5762 20.0563 27.8084 17.8586 27.3158 15.7653C26.8231 13.672 25.6346 11.8063 23.9434 10.4713C22.2521 9.13627 20.1575 8.41045 18 8.41177C15.8426 8.41093 13.7484 9.13709 12.0575 10.4723C10.3666 11.8074 9.1785 13.6732 8.68614 15.7663C8.19377 17.8595 8.42613 20.057 9.34544 22.002C10.2648 23.9469 11.817 25.5249 13.75 26.4795V28.5294M22.25 28.5294C22.25 29.6527 22.2506 31.5242 22.2508 32.3249C22.2508 32.3249 19.1272 32.3249 18 32.3249C16.8728 32.3249 13.75 32.3249 13.75 32.3249C13.75 31.5 13.75 29.6527 13.75 28.5294M22.25 28.5294C22.2507 31.1863 22.2517 36.6 22.25 37H13.75V32.7647V28.5294M18 3.11765V1M28.625 7.35294L30.75 5.23529M7.375 7.35294L5.25 5.23529M28.625 26.4118L30.75 28.5294M7.375 26.4118L5.25 28.5294M3.125 15.8235H1M35 15.8235H32.875" stroke="#EE574D" stroke-width="1" stroke-linecap="round" stroke-linejoin="round"/>
</svg>
