<svg width="37" height="35" viewBox="0 0 37 35" fill="none" xmlns="http://www.w3.org/2000/svg">
<path d="M21.53 27.42C21.53 27.42 8.37998 8.01999 1.16998 6.65999C1.16998 6.65999 2.95997 0.0799881 8.90997 1.23999C8.90997 1.23999 17.96 16.68 28.12 19.09C28.12 19.09 21.2 20.11 21.54 28.33C21.88 36.55 31.65 33.36 31.65 33.36C31.65 33.36 37.65 29.68 34.31 25.09C30.97 20.5 27.34 22.57 26.86 24.7C26.38 26.83 26.52 28.91 28.26 29.25" stroke="#EE574D" stroke-width="1" stroke-miterlimit="10"/>
<path d="M17.61 12.41C17.61 12.41 22.55 9.56999 15.37 10.02C15.37 10.02 7.61003 17.51 13.15 24.02" stroke="#EE574D" stroke-width="1" stroke-miterlimit="10"/>
<path d="M11.16 18.03C11.16 18.03 6.32001 16.42 9.74001 15.13C13.16 13.84 11.54 16.29 11.54 16.29" stroke="#EE574D" stroke-width="1" stroke-miterlimit="10"/>
</svg>
