<svg width="35" height="37" viewBox="0 0 35 37" fill="none" xmlns="http://www.w3.org/2000/svg">
<path d="M27.1111 29V26.3333C27.1111 25.2288 26.2157 24.3333 25.1111 24.3333H9.66668C8.56211 24.3333 7.66668 25.2288 7.66668 26.3333V28.7222M27.1111 29V34C27.1111 35.1046 26.2157 36 25.1111 36H9.66668C8.56211 36 7.66668 35.1046 7.66668 34V28.7222M27.1111 29H30.3056H31.5C32.6046 29 33.5 28.1046 33.5 27V12.4444C33.5 11.3399 32.6046 10.4444 31.5 10.4444H30.7222H27.1111M7.66668 28.7222H3C1.89543 28.7222 1 27.8268 1 26.7222L1.00001 12.4444C1.00001 11.3399 1.89544 10.4444 3.00001 10.4444H7.66668M7.66668 10.4444V3C7.66668 1.89543 8.56211 1 9.66668 1H25.1111C26.2157 1 27.1111 1.89543 27.1111 3V10.4444M7.66668 10.4444H27.1111M22.6667 16.5556H27.1111" stroke="#EE574D" stroke-width="1" stroke-linecap="round"/>
</svg>
