<svg width="30" height="37" viewBox="0 0 30 37" fill="none" xmlns="http://www.w3.org/2000/svg">
<mask id="path-1-outside-1_366_16" maskUnits="userSpaceOnUse" x="0" y="0" width="30" height="37" fill="black">
<rect fill="#EE574D" width="30" height="37"/>
<path d="M27.2986 8.63213C25.9145 8.12526 24.455 8.85497 23.9506 10.3007C23.4865 11.6295 23.0171 12.9564 22.5485 14.2834C22.518 14.3702 22.4758 14.4533 22.439 14.5382C22.4246 14.5337 22.4094 14.5282 22.3941 14.5236V13.8752C22.3941 12.7135 22.4031 11.5509 22.386 10.3893C22.3959 10.3418 22.4013 10.2906 22.4013 10.2358C22.4058 9.40384 22.413 5.96539 22.3851 5.13523C22.3358 3.68405 21.1474 2.52602 19.7238 2.49223C19.0335 2.47579 18.4348 2.71416 17.8747 3.14339C17.8271 3.01188 17.7912 2.90777 17.7535 2.80548C17.3622 1.75157 16.3712 1.02827 15.2842 1.00087C13.7134 0.962511 12.4631 2.19999 12.4577 3.82926C12.4487 6.81381 12.455 9.79837 12.455 12.7838V13.1336C12.2575 12.5692 12.1193 11.9984 11.982 11.4276C11.6023 9.85956 11.2567 8.28235 10.8349 6.72614C10.4408 5.27313 8.97682 4.46854 7.53169 4.83659C6.16106 5.18546 5.21768 6.61198 5.53184 8.02207C5.87652 9.57097 7.003 13.6113 7.43834 15.2597C7.44283 15.3035 7.4509 15.3501 7.46257 15.3985C7.68338 16.3145 7.93561 17.2251 8.11064 18.1511C8.2749 19.0169 8.35658 19.8982 8.47417 20.7731C8.42659 20.7932 8.37902 20.8142 8.33235 20.8343C7.89701 20.3767 7.48142 19.8973 7.02365 19.4644C5.83882 18.3465 4.23661 18.11 2.78788 18.8342C0.595946 19.9292 0.537602 22.2836 1.97107 23.6061C3.04011 24.5924 4.02028 25.6783 5.04624 26.7121C6.3693 28.0454 7.3764 29.5852 8.0514 31.3542C8.43288 32.1277 9.72901 33.9771 10.1608 34.4109C10.1994 34.4493 10.2362 34.4858 10.273 34.5178C10.3187 34.5799 10.3798 34.6392 10.4552 34.6959C11.0817 35.1662 11.7675 35.5224 12.5205 35.7288C12.9182 35.8374 13.3248 35.9105 13.7278 36H20.0433C20.0945 35.9799 20.1438 35.9507 20.1968 35.9425C23.6211 35.4438 26.007 32.6611 26.0168 29.1459C26.0222 27.323 26.0222 25.5002 26.0168 23.6773C26.0105 21.7065 26.2323 19.7621 26.8319 17.8872C27.4566 15.93 28.1621 14.0003 28.8353 12.0596C29.3335 10.623 28.6674 9.13351 27.2986 8.63213ZM27.8776 11.7372C27.4476 12.9574 27.0383 14.1866 26.5778 15.3949C25.4549 18.3411 24.9182 21.3832 25.0025 24.5458C25.0438 26.06 25.0115 27.576 25.0097 29.0911C25.0043 32.4611 22.544 34.9707 19.24 34.9753C17.706 34.9771 16.172 34.9607 14.638 34.9799C13.3194 34.9954 12.1193 34.6575 11.0449 33.8684C11 33.8356 10.956 33.8082 10.912 33.7872C10.1051 32.9743 9.54231 31.8921 8.95169 30.8729C8.28747 29.2099 7.38897 27.6984 6.15208 26.4107C4.95468 25.1641 3.73305 23.9421 2.52937 22.701C1.79155 21.9412 1.82745 20.9156 2.59939 20.1968C3.69625 19.1767 5.30205 19.1968 6.39353 20.2662C7.12777 20.985 7.84136 21.7256 8.55854 22.4626C9.20571 23.1275 9.98393 23.5202 10.8968 23.6106C11.4192 23.6627 11.9488 23.6398 12.4721 23.6901C15.1738 23.9467 17.057 25.5659 17.6754 28.2473C17.8801 29.1377 17.9151 30.0692 18.0094 30.9843C18.0515 31.388 18.249 31.6118 18.5883 31.5652C18.8693 31.5259 19.0497 31.3076 19.0138 30.935C18.924 29.9843 18.8827 29.0199 18.6781 28.0938C18.214 25.9888 17.0893 24.3476 15.1379 23.3823C13.9459 22.7923 12.6713 22.5868 11.3564 22.606C10.7559 22.6142 10.1985 22.4709 9.71555 22.1083C9.60245 22.0234 9.50102 21.8425 9.49743 21.7028C9.44268 19.553 9.09261 17.4543 8.50469 15.3949C8.50558 15.3949 8.50469 15.393 8.50469 15.393C8.49391 15.3081 8.47506 15.214 8.44724 15.1108C8.04871 13.6177 6.93299 9.49699 6.53805 8.0038C6.38546 7.42388 6.50304 6.89235 6.87465 6.43207C7.31986 5.88228 7.90778 5.67132 8.58637 5.81744C9.32599 5.97817 9.76043 6.47956 9.93725 7.22113C10.369 9.02209 10.8025 10.8231 11.2334 12.624C11.5933 14.1254 11.9506 15.6278 12.3132 17.1447C12.2342 17.1703 12.1471 17.1703 12.1157 17.2132C11.9972 17.3757 11.8267 17.5429 11.8052 17.7237C11.7764 17.9675 11.9622 18.1694 12.2136 18.1794C12.7719 18.2013 13.332 18.2041 13.8894 18.1721C14.156 18.1566 14.2942 17.9392 14.2816 17.6625C14.27 17.3867 14.1174 17.2232 13.8445 17.1876C13.726 17.1721 13.6057 17.1657 13.463 17.1538V4.07949C13.463 3.95346 13.4594 3.82834 13.4666 3.70323C13.5115 2.89316 14.0599 2.24291 14.8453 2.06482C15.5787 1.8977 16.3757 2.25296 16.7025 2.96165C16.8443 3.26851 16.9134 3.63838 16.9143 3.97994C16.9286 8.25221 16.9233 12.5245 16.9233 16.7967C16.9233 16.9082 16.9134 17.0196 16.9071 17.162C16.7428 17.1721 16.6199 17.173 16.4987 17.1894C16.2438 17.2232 16.0921 17.3748 16.0705 17.636C16.0472 17.91 16.1675 18.1465 16.4341 18.163C17.013 18.1995 17.5956 18.1959 18.1745 18.1666C18.4249 18.1539 18.5955 17.9274 18.5452 17.6853C18.5084 17.5073 18.3451 17.2616 18.1952 17.2223C17.9286 17.1547 17.9295 17.0141 17.9295 16.8123C17.9322 13.0185 17.9304 9.22484 17.9349 5.43113C17.9349 5.21651 17.9483 4.99458 18.0031 4.7891C18.2338 3.93611 19.0317 3.41829 19.9105 3.53153C20.7183 3.63564 21.3646 4.36626 21.3816 5.22747C21.3969 6.00466 21.3915 9.25498 21.396 10.1591C21.3951 10.1664 21.3951 10.1737 21.3951 10.1801C21.3816 12.3793 21.3861 14.5775 21.3861 16.7766V17.1593C21.2416 17.1684 21.1312 17.1721 21.0226 17.1821C20.7291 17.2095 20.5181 17.4132 20.528 17.6808C20.5397 17.9675 20.6968 18.1721 20.9786 18.1849C21.5145 18.2077 22.0548 18.2178 22.588 18.1721C22.7379 18.1593 22.9506 17.9538 22.9874 17.7995C23.0242 17.6452 22.8869 17.4406 22.8052 17.2689C22.7783 17.2114 22.6867 17.1849 22.6221 17.1429C22.658 17.0388 22.6858 16.9529 22.7164 16.868C23.4416 14.8003 24.1687 12.7345 24.8912 10.6669C25.2162 9.73901 26.0797 9.28329 26.9432 9.59197C27.8075 9.90157 28.2043 10.8103 27.8776 11.7372Z" />
</mask>
<path d="M27.2986 8.63213C25.9145 8.12526 24.455 8.85497 23.9506 10.3007C23.4865 11.6295 23.0171 12.9564 22.5485 14.2834C22.518 14.3702 22.4758 14.4533 22.439 14.5382C22.4246 14.5337 22.4094 14.5282 22.3941 14.5236V13.8752C22.3941 12.7135 22.4031 11.5509 22.386 10.3893C22.3959 10.3418 22.4013 10.2906 22.4013 10.2358C22.4058 9.40384 22.413 5.96539 22.3851 5.13523C22.3358 3.68405 21.1474 2.52602 19.7238 2.49223C19.0335 2.47579 18.4348 2.71416 17.8747 3.14339C17.8271 3.01188 17.7912 2.90777 17.7535 2.80548C17.3622 1.75157 16.3712 1.02827 15.2842 1.00087C13.7134 0.962511 12.4631 2.19999 12.4577 3.82926C12.4487 6.81381 12.455 9.79837 12.455 12.7838V13.1336C12.2575 12.5692 12.1193 11.9984 11.982 11.4276C11.6023 9.85956 11.2567 8.28235 10.8349 6.72614C10.4408 5.27313 8.97682 4.46854 7.53169 4.83659C6.16106 5.18546 5.21768 6.61198 5.53184 8.02207C5.87652 9.57097 7.003 13.6113 7.43834 15.2597C7.44283 15.3035 7.4509 15.3501 7.46257 15.3985C7.68338 16.3145 7.93561 17.2251 8.11064 18.1511C8.2749 19.0169 8.35658 19.8982 8.47417 20.7731C8.42659 20.7932 8.37902 20.8142 8.33235 20.8343C7.89701 20.3767 7.48142 19.8973 7.02365 19.4644C5.83882 18.3465 4.23661 18.11 2.78788 18.8342C0.595946 19.9292 0.537602 22.2836 1.97107 23.6061C3.04011 24.5924 4.02028 25.6783 5.04624 26.7121C6.3693 28.0454 7.3764 29.5852 8.0514 31.3542C8.43288 32.1277 9.72901 33.9771 10.1608 34.4109C10.1994 34.4493 10.2362 34.4858 10.273 34.5178C10.3187 34.5799 10.3798 34.6392 10.4552 34.6959C11.0817 35.1662 11.7675 35.5224 12.5205 35.7288C12.9182 35.8374 13.3248 35.9105 13.7278 36H20.0433C20.0945 35.9799 20.1438 35.9507 20.1968 35.9425C23.6211 35.4438 26.007 32.6611 26.0168 29.1459C26.0222 27.323 26.0222 25.5002 26.0168 23.6773C26.0105 21.7065 26.2323 19.7621 26.8319 17.8872C27.4566 15.93 28.1621 14.0003 28.8353 12.0596C29.3335 10.623 28.6674 9.13351 27.2986 8.63213ZM27.8776 11.7372C27.4476 12.9574 27.0383 14.1866 26.5778 15.3949C25.4549 18.3411 24.9182 21.3832 25.0025 24.5458C25.0438 26.06 25.0115 27.576 25.0097 29.0911C25.0043 32.4611 22.544 34.9707 19.24 34.9753C17.706 34.9771 16.172 34.9607 14.638 34.9799C13.3194 34.9954 12.1193 34.6575 11.0449 33.8684C11 33.8356 10.956 33.8082 10.912 33.7872C10.1051 32.9743 9.54231 31.8921 8.95169 30.8729C8.28747 29.2099 7.38897 27.6984 6.15208 26.4107C4.95468 25.1641 3.73305 23.9421 2.52937 22.701C1.79155 21.9412 1.82745 20.9156 2.59939 20.1968C3.69625 19.1767 5.30205 19.1968 6.39353 20.2662C7.12777 20.985 7.84136 21.7256 8.55854 22.4626C9.20571 23.1275 9.98393 23.5202 10.8968 23.6106C11.4192 23.6627 11.9488 23.6398 12.4721 23.6901C15.1738 23.9467 17.057 25.5659 17.6754 28.2473C17.8801 29.1377 17.9151 30.0692 18.0094 30.9843C18.0515 31.388 18.249 31.6118 18.5883 31.5652C18.8693 31.5259 19.0497 31.3076 19.0138 30.935C18.924 29.9843 18.8827 29.0199 18.6781 28.0938C18.214 25.9888 17.0893 24.3476 15.1379 23.3823C13.9459 22.7923 12.6713 22.5868 11.3564 22.606C10.7559 22.6142 10.1985 22.4709 9.71555 22.1083C9.60245 22.0234 9.50102 21.8425 9.49743 21.7028C9.44268 19.553 9.09261 17.4543 8.50469 15.3949C8.50558 15.3949 8.50469 15.393 8.50469 15.393C8.49391 15.3081 8.47506 15.214 8.44724 15.1108C8.04871 13.6177 6.93299 9.49699 6.53805 8.0038C6.38546 7.42388 6.50304 6.89235 6.87465 6.43207C7.31986 5.88228 7.90778 5.67132 8.58637 5.81744C9.32599 5.97817 9.76043 6.47956 9.93725 7.22113C10.369 9.02209 10.8025 10.8231 11.2334 12.624C11.5933 14.1254 11.9506 15.6278 12.3132 17.1447C12.2342 17.1703 12.1471 17.1703 12.1157 17.2132C11.9972 17.3757 11.8267 17.5429 11.8052 17.7237C11.7764 17.9675 11.9622 18.1694 12.2136 18.1794C12.7719 18.2013 13.332 18.2041 13.8894 18.1721C14.156 18.1566 14.2942 17.9392 14.2816 17.6625C14.27 17.3867 14.1174 17.2232 13.8445 17.1876C13.726 17.1721 13.6057 17.1657 13.463 17.1538V4.07949C13.463 3.95346 13.4594 3.82834 13.4666 3.70323C13.5115 2.89316 14.0599 2.24291 14.8453 2.06482C15.5787 1.8977 16.3757 2.25296 16.7025 2.96165C16.8443 3.26851 16.9134 3.63838 16.9143 3.97994C16.9286 8.25221 16.9233 12.5245 16.9233 16.7967C16.9233 16.9082 16.9134 17.0196 16.9071 17.162C16.7428 17.1721 16.6199 17.173 16.4987 17.1894C16.2438 17.2232 16.0921 17.3748 16.0705 17.636C16.0472 17.91 16.1675 18.1465 16.4341 18.163C17.013 18.1995 17.5956 18.1959 18.1745 18.1666C18.4249 18.1539 18.5955 17.9274 18.5452 17.6853C18.5084 17.5073 18.3451 17.2616 18.1952 17.2223C17.9286 17.1547 17.9295 17.0141 17.9295 16.8123C17.9322 13.0185 17.9304 9.22484 17.9349 5.43113C17.9349 5.21651 17.9483 4.99458 18.0031 4.7891C18.2338 3.93611 19.0317 3.41829 19.9105 3.53153C20.7183 3.63564 21.3646 4.36626 21.3816 5.22747C21.3969 6.00466 21.3915 9.25498 21.396 10.1591C21.3951 10.1664 21.3951 10.1737 21.3951 10.1801C21.3816 12.3793 21.3861 14.5775 21.3861 16.7766V17.1593C21.2416 17.1684 21.1312 17.1721 21.0226 17.1821C20.7291 17.2095 20.5181 17.4132 20.528 17.6808C20.5397 17.9675 20.6968 18.1721 20.9786 18.1849C21.5145 18.2077 22.0548 18.2178 22.588 18.1721C22.7379 18.1593 22.9506 17.9538 22.9874 17.7995C23.0242 17.6452 22.8869 17.4406 22.8052 17.2689C22.7783 17.2114 22.6867 17.1849 22.6221 17.1429C22.658 17.0388 22.6858 16.9529 22.7164 16.868C23.4416 14.8003 24.1687 12.7345 24.8912 10.6669C25.2162 9.73901 26.0797 9.28329 26.9432 9.59197C27.8075 9.90157 28.2043 10.8103 27.8776 11.7372Z" fill="#EE574D"/>
<path d="M27.2986 8.63213C25.9145 8.12526 24.455 8.85497 23.9506 10.3007C23.4865 11.6295 23.0171 12.9564 22.5485 14.2834C22.518 14.3702 22.4758 14.4533 22.439 14.5382C22.4246 14.5337 22.4094 14.5282 22.3941 14.5236V13.8752C22.3941 12.7135 22.4031 11.5509 22.386 10.3893C22.3959 10.3418 22.4013 10.2906 22.4013 10.2358C22.4058 9.40384 22.413 5.96539 22.3851 5.13523C22.3358 3.68405 21.1474 2.52602 19.7238 2.49223C19.0335 2.47579 18.4348 2.71416 17.8747 3.14339C17.8271 3.01188 17.7912 2.90777 17.7535 2.80548C17.3622 1.75157 16.3712 1.02827 15.2842 1.00087C13.7134 0.962511 12.4631 2.19999 12.4577 3.82926C12.4487 6.81381 12.455 9.79837 12.455 12.7838V13.1336C12.2575 12.5692 12.1193 11.9984 11.982 11.4276C11.6023 9.85956 11.2567 8.28235 10.8349 6.72614C10.4408 5.27313 8.97682 4.46854 7.53169 4.83659C6.16106 5.18546 5.21768 6.61198 5.53184 8.02207C5.87652 9.57097 7.003 13.6113 7.43834 15.2597C7.44283 15.3035 7.4509 15.3501 7.46257 15.3985C7.68338 16.3145 7.93561 17.2251 8.11064 18.1511C8.2749 19.0169 8.35658 19.8982 8.47417 20.7731C8.42659 20.7932 8.37902 20.8142 8.33235 20.8343C7.89701 20.3767 7.48142 19.8973 7.02365 19.4644C5.83882 18.3465 4.23661 18.11 2.78788 18.8342C0.595946 19.9292 0.537602 22.2836 1.97107 23.6061C3.04011 24.5924 4.02028 25.6783 5.04624 26.7121C6.3693 28.0454 7.3764 29.5852 8.0514 31.3542C8.43288 32.1277 9.72901 33.9771 10.1608 34.4109C10.1994 34.4493 10.2362 34.4858 10.273 34.5178C10.3187 34.5799 10.3798 34.6392 10.4552 34.6959C11.0817 35.1662 11.7675 35.5224 12.5205 35.7288C12.9182 35.8374 13.3248 35.9105 13.7278 36H20.0433C20.0945 35.9799 20.1438 35.9507 20.1968 35.9425C23.6211 35.4438 26.007 32.6611 26.0168 29.1459C26.0222 27.323 26.0222 25.5002 26.0168 23.6773C26.0105 21.7065 26.2323 19.7621 26.8319 17.8872C27.4566 15.93 28.1621 14.0003 28.8353 12.0596C29.3335 10.623 28.6674 9.13351 27.2986 8.63213ZM27.8776 11.7372C27.4476 12.9574 27.0383 14.1866 26.5778 15.3949C25.4549 18.3411 24.9182 21.3832 25.0025 24.5458C25.0438 26.06 25.0115 27.576 25.0097 29.0911C25.0043 32.4611 22.544 34.9707 19.24 34.9753C17.706 34.9771 16.172 34.9607 14.638 34.9799C13.3194 34.9954 12.1193 34.6575 11.0449 33.8684C11 33.8356 10.956 33.8082 10.912 33.7872C10.1051 32.9743 9.54231 31.8921 8.95169 30.8729C8.28747 29.2099 7.38897 27.6984 6.15208 26.4107C4.95468 25.1641 3.73305 23.9421 2.52937 22.701C1.79155 21.9412 1.82745 20.9156 2.59939 20.1968C3.69625 19.1767 5.30205 19.1968 6.39353 20.2662C7.12777 20.985 7.84136 21.7256 8.55854 22.4626C9.20571 23.1275 9.98393 23.5202 10.8968 23.6106C11.4192 23.6627 11.9488 23.6398 12.4721 23.6901C15.1738 23.9467 17.057 25.5659 17.6754 28.2473C17.8801 29.1377 17.9151 30.0692 18.0094 30.9843C18.0515 31.388 18.249 31.6118 18.5883 31.5652C18.8693 31.5259 19.0497 31.3076 19.0138 30.935C18.924 29.9843 18.8827 29.0199 18.6781 28.0938C18.214 25.9888 17.0893 24.3476 15.1379 23.3823C13.9459 22.7923 12.6713 22.5868 11.3564 22.606C10.7559 22.6142 10.1985 22.4709 9.71555 22.1083C9.60245 22.0234 9.50102 21.8425 9.49743 21.7028C9.44268 19.553 9.09261 17.4543 8.50469 15.3949C8.50558 15.3949 8.50469 15.393 8.50469 15.393C8.49391 15.3081 8.47506 15.214 8.44724 15.1108C8.04871 13.6177 6.93299 9.49699 6.53805 8.0038C6.38546 7.42388 6.50304 6.89235 6.87465 6.43207C7.31986 5.88228 7.90778 5.67132 8.58637 5.81744C9.32599 5.97817 9.76043 6.47956 9.93725 7.22113C10.369 9.02209 10.8025 10.8231 11.2334 12.624C11.5933 14.1254 11.9506 15.6278 12.3132 17.1447C12.2342 17.1703 12.1471 17.1703 12.1157 17.2132C11.9972 17.3757 11.8267 17.5429 11.8052 17.7237C11.7764 17.9675 11.9622 18.1694 12.2136 18.1794C12.7719 18.2013 13.332 18.2041 13.8894 18.1721C14.156 18.1566 14.2942 17.9392 14.2816 17.6625C14.27 17.3867 14.1174 17.2232 13.8445 17.1876C13.726 17.1721 13.6057 17.1657 13.463 17.1538V4.07949C13.463 3.95346 13.4594 3.82834 13.4666 3.70323C13.5115 2.89316 14.0599 2.24291 14.8453 2.06482C15.5787 1.8977 16.3757 2.25296 16.7025 2.96165C16.8443 3.26851 16.9134 3.63838 16.9143 3.97994C16.9286 8.25221 16.9233 12.5245 16.9233 16.7967C16.9233 16.9082 16.9134 17.0196 16.9071 17.162C16.7428 17.1721 16.6199 17.173 16.4987 17.1894C16.2438 17.2232 16.0921 17.3748 16.0705 17.636C16.0472 17.91 16.1675 18.1465 16.4341 18.163C17.013 18.1995 17.5956 18.1959 18.1745 18.1666C18.4249 18.1539 18.5955 17.9274 18.5452 17.6853C18.5084 17.5073 18.3451 17.2616 18.1952 17.2223C17.9286 17.1547 17.9295 17.0141 17.9295 16.8123C17.9322 13.0185 17.9304 9.22484 17.9349 5.43113C17.9349 5.21651 17.9483 4.99458 18.0031 4.7891C18.2338 3.93611 19.0317 3.41829 19.9105 3.53153C20.7183 3.63564 21.3646 4.36626 21.3816 5.22747C21.3969 6.00466 21.3915 9.25498 21.396 10.1591C21.3951 10.1664 21.3951 10.1737 21.3951 10.1801C21.3816 12.3793 21.3861 14.5775 21.3861 16.7766V17.1593C21.2416 17.1684 21.1312 17.1721 21.0226 17.1821C20.7291 17.2095 20.5181 17.4132 20.528 17.6808C20.5397 17.9675 20.6968 18.1721 20.9786 18.1849C21.5145 18.2077 22.0548 18.2178 22.588 18.1721C22.7379 18.1593 22.9506 17.9538 22.9874 17.7995C23.0242 17.6452 22.8869 17.4406 22.8052 17.2689C22.7783 17.2114 22.6867 17.1849 22.6221 17.1429C22.658 17.0388 22.6858 16.9529 22.7164 16.868C23.4416 14.8003 24.1687 12.7345 24.8912 10.6669C25.2162 9.73901 26.0797 9.28329 26.9432 9.59197C27.8075 9.90157 28.2043 10.8103 27.8776 11.7372Z" stroke="#EE574D" stroke-width="1.5" mask="url(#path-1-outside-1_366_16)"/>
</svg>
