<svg width="35" height="33" viewBox="0 0 35 33" fill="none" xmlns="http://www.w3.org/2000/svg">
<path d="M2.35001 31.9C2.35001 31.9 6.03 29.96 6.03 27.35C6.03 24.74 7.68 21.54 11.06 22.22C12.96 22.6 13.61 24.07 13.82 25.28C14 26.32 13.68 27.38 13 28.19C11.44 30.05 7.80001 33.32 2.35001 31.9Z" stroke="#EE574D" stroke-width="1" stroke-miterlimit="10"/>
<path d="M11.06 22.22C11.06 22.22 10.96 20.87 14.74 17.19C18.51 13.51 29.84 1.22 32.45 1.22C35.06 1.22 36.11 4.79 18.21 21.39C18.21 21.39 15.59 24.47 13.47 24.11" stroke="#EE574D" stroke-width="1" stroke-miterlimit="10"/>
<path d="M18.21 21.4L14.37 17.56" stroke="#EE574D" stroke-width="1" stroke-miterlimit="10"/>
</svg>
