<svg width="32" height="33" viewBox="0 0 32 33" fill="none" xmlns="http://www.w3.org/2000/svg">
<path d="M15.83 31.57C24.1474 31.57 30.89 24.8274 30.89 16.51C30.89 8.1926 24.1474 1.45001 15.83 1.45001C7.51261 1.45001 0.77002 8.1926 0.77002 16.51C0.77002 24.8274 7.51261 31.57 15.83 31.57Z" stroke="#EE574D" stroke-width="1" stroke-miterlimit="10"/>
<path d="M16.28 20.46C19.3673 20.46 21.87 17.3529 21.87 13.52C21.87 9.68716 19.3673 6.58002 16.28 6.58002C13.1928 6.58002 10.69 9.68716 10.69 13.52C10.69 17.3529 13.1928 20.46 16.28 20.46Z" stroke="#EE574D" stroke-width="1" stroke-miterlimit="10"/>
<path d="M14.82 20.22C14.82 20.22 15.13 23.56 12.08 23.85C9.03002 24.14 5.46002 27.42 5.46002 27.42" stroke="#EE574D" stroke-width="1" stroke-miterlimit="10"/>
<path d="M17.48 20.22C17.48 20.22 17.17 23.56 20.22 23.85C23.27 24.14 26.84 27.42 26.84 27.42" stroke="#EE574D" stroke-width="1" stroke-miterlimit="10"/>
</svg>
