<?xml version="1.0" encoding="UTF-8" standalone="no"?>
<svg
   xmlns:dc="http://purl.org/dc/elements/1.1/"
   xmlns:cc="http://creativecommons.org/ns#"
   xmlns:rdf="http://www.w3.org/1999/02/22-rdf-syntax-ns#"
   xmlns:svg="http://www.w3.org/2000/svg"
   xmlns="http://www.w3.org/2000/svg"
   xmlns:sodipodi="http://sodipodi.sourceforge.net/DTD/sodipodi-0.dtd"
   xmlns:inkscape="http://www.inkscape.org/namespaces/inkscape"
   inkscape:version="1.0 (4035a4fb49, 2020-05-01)"
   sodipodi:docname="Doel.svg"
   id="svg8"
   version="1.1"
   fill="none"
   viewBox="0 0 37 37"
   height="37"
   width="37">
  <metadata
     id="metadata14">
    <rdf:RDF>
      <cc:Work
         rdf:about="">
        <dc:format>image/svg+xml</dc:format>
        <dc:type
           rdf:resource="http://purl.org/dc/dcmitype/StillImage" />
        <dc:title></dc:title>
      </cc:Work>
    </rdf:RDF>
  </metadata>
  <defs
     id="defs12" />
  <sodipodi:namedview
     inkscape:current-layer="svg8"
     inkscape:window-maximized="1"
     inkscape:window-y="-8"
     inkscape:window-x="-8"
     inkscape:cy="21.429402"
     inkscape:cx="25.173953"
     inkscape:zoom="22.627417"
     inkscape:pagecheckerboard="true"
     showgrid="false"
     id="namedview10"
     inkscape:window-height="1377"
     inkscape:window-width="2560"
     inkscape:pageshadow="2"
     inkscape:pageopacity="0"
     guidetolerance="10"
     gridtolerance="10"
     objecttolerance="10"
     borderopacity="1"
     bordercolor="#666666"
     pagecolor="#ffffff" />
  <path
     sodipodi:nodetypes="sscccccccccccccccsscccsscccccss"
     style="fill:#ffffff;fill-opacity:1"
     id="path6"
     stroke-width="0.3"
     stroke="#ffffff"
     fill="white"
     d="m 18.142093,15.092395 v 0 c 0.2421,0.1042 0.4661,0.1508 0.6613,0.1063 0.2059,-0.0469 0.3499,-0.1877 0.4394,-0.3895 0.0895,-0.2003 0.0883,-0.4016 -0.0191,-0.5828 -0.1019,-0.1721 -0.2881,-0.3063 -0.5269,-0.4117 -0.8553,-0.3773 -1.7458,-0.6077 -2.6752,-0.7033 -4.9769,-0.5136 -9.4179498,3.2054 -9.7905298,8.2025 -0.38142,5.1151 3.68113,9.5055 8.8239298,9.627 l 0.0127,0.0127 0.076,-0.0125 c 0.2341,-0.0388 0.4738,-0.0718 0.7158,-0.1052 0.5386,-0.0742 1.0886,-0.15 1.6132,-0.2936 h 10e-5 c 4.3219,-1.185 7.0804,-5.3531 6.4531,-9.7898 v -10e-5 c -0.0896,-0.6323 -0.3024,-1.2535 -0.5092,-1.8576 -0.0745,-0.2175 -0.1482,-0.4328 -0.2151,-0.6456 l -10e-5,-3e-4 c -0.0516,-0.1631 -0.1493,-0.295 -0.2862,-0.3773 -0.1365,-0.0821 -0.2999,-0.1078 -0.471,-0.0809 -0.1467,0.0229 -0.2847,0.0812 -0.3896,0.1824 -0.1069,0.1031 -0.1707,0.2426 -0.1783,0.4083 v 10e-5 c -0.0087,0.1931 0.0485,0.3931 0.1191,0.5559 l 2e-4,4e-4 c 0.3667,0.839 0.5805,1.7133 0.6243,2.6228 0.2257,4.6905 -3.7676,8.4068 -8.4266,7.8498 -4.8372998,-0.5783 -7.8617798,-5.6425 -6.0745998,-10.1699 0.5051857,-1.279451 1.309549,-2.3398 2.2996738,-3.134027 2.099693,-1.684266 5.034773,-2.171758 7.723626,-1.014073 z" />
  <path
     d="m 19.540681,11.733817 v 0 c 0.362704,0.156108 0.69829,0.225922 0.99073,0.159254 0.30847,-0.07026 0.524204,-0.281203 0.658289,-0.583531 0.134085,-0.30008 0.132287,-0.601659 -0.02861,-0.873125 C 21.008424,10.178583 20.729467,9.9775301 20.371708,9.8196251 19.090336,9.2543711 17.756229,8.9091961 16.363844,8.7659727 8.9076779,7.9965204 2.254297,13.568158 1.6961145,21.054587 1.1246883,28.717801 7.2110169,35.2953 14.915727,35.477326 l 0.01903,0.01903 0.11386,-0.01873 c 0.350718,-0.05813 0.709826,-0.107567 1.072379,-0.157606 0.806906,-0.111163 1.630891,-0.224723 2.416823,-0.439858 h 1.5e-4 c 6.474876,-1.775313 10.607536,-8.019773 9.667743,-14.666638 v -1.49e-4 C 28.071475,19.26609 27.752667,18.335436 27.442849,17.430402 27.331236,17.104553 27.220822,16.782 27.120596,16.463193 l -1.5e-4,-4.49e-4 c -0.0773,-0.244349 -0.223675,-0.441956 -0.428772,-0.565254 -0.204498,-0.122999 -0.449297,-0.161501 -0.705631,-0.121201 -0.219779,0.03431 -0.426525,0.12165 -0.583681,0.273264 -0.160153,0.154459 -0.255735,0.363452 -0.267121,0.611696 v 1.5e-4 c -0.01303,0.289294 0.07266,0.588925 0.17843,0.832824 l 3e-4,5.99e-4 c 0.549373,1.256952 0.869679,2.566788 0.935298,3.92936 C 26.587402,28.451279 20.604821,34.018872 13.624917,33.1844 6.3778935,32.318017 1.846754,24.731061 4.5242265,17.948314 5.2810729,16.031498 6.4861337,14.442931 7.9694939,13.253056 11.115159,10.729764 15.512363,9.9994261 19.540681,11.733817 Z"
     fill="white"
     stroke="#ffffff"
     stroke-width="0.449446"
     id="path6-6"
     style="fill:#ffffff;fill-opacity:1"
     sodipodi:nodetypes="sscccccccccccccccsscccsscccccss" />
  <path
     sodipodi:nodetypes="ccccccc"
     id="path869"
     d="m 24.306535,12.44701 -1.382646,-5.074559 5.521466,-5.6076497 0.907107,5.519912 6.039424,0.6578846 -6.006619,6.0006081 z"
     style="fill:#ffffff;fill-opacity:0;fill-rule:evenodd;stroke:#ffffff;stroke-width:1.86217;stroke-linecap:round;stroke-linejoin:round;stroke-miterlimit:4;stroke-dasharray:none;stroke-opacity:1" />
  <path
     id="path871"
     d="m 24.306535,12.44701 -9.544892,9.473485 0.09528,-0.02553"
     style="fill:none;fill-rule:evenodd;stroke:#ffffff;stroke-width:2;stroke-linecap:round;stroke-linejoin:round;stroke-miterlimit:4;stroke-dasharray:none;stroke-opacity:1" />
</svg>
