<svg width="35" height="35" viewBox="0 0 35 35" fill="none" xmlns="http://www.w3.org/2000/svg">
<path d="M19.67 15.64L31.93 15.7C31.93 15.7 35.48 17.18 32.25 20.15C32.25 20.15 35.09 23.57 31.48 24.92C31.48 24.92 33.87 27.37 30.71 29.31C30.71 29.31 33.16 31.31 30.58 33.37H11.16C11.16 33.37 10.51 31.11 4 32.14C4 32.14 -1.61001 22.79 3.73999 15.69H10.71C10.71 15.69 16.71 10.01 16.77 7.23998C16.83 4.46999 16.45 2.39999 17.52 1.62999C18.59 0.859985 24.52 0.529984 19.68 15.63L19.67 15.64Z" stroke="white" stroke-width="2" stroke-miterlimit="10"/>
<path d="M10.7 15.71C10.7 15.71 6.82002 19.13 8.95002 32.06" stroke="white" stroke-width="2" stroke-miterlimit="10"/>
<path d="M5.78 29.45C6.39303 29.45 6.89001 28.953 6.89001 28.34C6.89001 27.7269 6.39303 27.23 5.78 27.23C5.16696 27.23 4.67001 27.7269 4.67001 28.34C4.67001 28.953 5.16696 29.45 5.78 29.45Z" fill="white" stroke="white" stroke-width="2" stroke-miterlimit="10"/>
</svg>
