<?xml version="1.0" encoding="UTF-8" standalone="no"?>
<svg
   xmlns:dc="http://purl.org/dc/elements/1.1/"
   xmlns:cc="http://creativecommons.org/ns#"
   xmlns:rdf="http://www.w3.org/1999/02/22-rdf-syntax-ns#"
   xmlns:svg="http://www.w3.org/2000/svg"
   xmlns="http://www.w3.org/2000/svg"
   xmlns:sodipodi="http://sodipodi.sourceforge.net/DTD/sodipodi-0.dtd"
   xmlns:inkscape="http://www.inkscape.org/namespaces/inkscape"
   inkscape:version="1.0 (4035a4fb49, 2020-05-01)"
   sodipodi:docname="Hoofd.svg"
   id="svg4"
   version="1.1"
   fill="none"
   viewBox="0 0 34 37"
   height="37"
   width="34">
  <metadata
     id="metadata10">
    <rdf:RDF>
      <cc:Work
         rdf:about="">
        <dc:format>image/svg+xml</dc:format>
        <dc:type
           rdf:resource="http://purl.org/dc/dcmitype/StillImage" />
        <dc:title></dc:title>
      </cc:Work>
    </rdf:RDF>
  </metadata>
  <defs
     id="defs8" />
  <sodipodi:namedview
     inkscape:current-layer="svg4"
     inkscape:window-maximized="1"
     inkscape:window-y="-8"
     inkscape:window-x="-8"
     inkscape:cy="17.613488"
     inkscape:cx="2.8332504"
     inkscape:zoom="27.243243"
     inkscape:pagecheckerboard="true"
     showgrid="false"
     id="namedview6"
     inkscape:window-height="1377"
     inkscape:window-width="2560"
     inkscape:pageshadow="2"
     inkscape:pageopacity="0"
     guidetolerance="10"
     gridtolerance="10"
     objecttolerance="10"
     borderopacity="1"
     bordercolor="#666666"
     pagecolor="#ffffff" />
  <path
     sodipodi:nodetypes="ccccsscccccccccccccccccccccssscsccccccccccccsscccccccccccc"
     style="fill:#ffffff;fill-opacity:0;stroke-width:2;stroke-linejoin:round;stroke-miterlimit:4;stroke-dasharray:none"
     id="path2"
     stroke-width="0.3"
     stroke="#ffffff"
     fill="white"
     d="m 22.1161,33.9607 v 10e-5 c -0.0554,0.2583 -0.095,0.4391 -0.1409,0.5718 -0.045,0.1304 -0.0893,0.1928 -0.1406,0.2304 -0.0536,0.0394 -0.1365,0.0677 -0.2937,0.0827 -0.1572,0.015 -0.3649,0.0151 -0.6556,0.0151 H 7.85461 C 7.91439,34.5446 7.97275,34.2329 8.0305,33.9245 8.19223,33.0606 8.34913,32.2226 8.51864,31.3858 L 8.37162,31.356 8.51864,31.3858 C 8.88518,29.5759 9.01709,27.7556 8.2699,25.9553 7.77822,24.7686 6.97053,23.7906 6.03387,22.8964 h -6e-5 C 4.23947,21.1852 3.05506,19.1758 2.50025,16.8641 0.978442,10.5196 5.52957,3.9446 12.5098,2.47072 v -1e-5 c 6.4782,-1.36918 13.0045,1.59677 15.5005,7.01349 0.6299,1.3682 0.9252,2.7988 0.9674,4.2858 0.0112,0.4013 0.1078,0.8209 0.27,1.1935 v 10e-5 c 0.5623,1.2887 1.1429,2.5719 1.7229,3.8539 0.2067,0.4569 0.4134,0.9136 0.6191,1.3703 l 3e-4,8e-4 0.0081,0.0175 c 0.0622,0.1361 0.1191,0.2604 0.1566,0.3886 v 2e-4 c 0.0522,0.1774 0.0433,0.3001 -0.0037,0.388 -0.0471,0.0881 -0.1501,0.1747 -0.3602,0.2403 l -3e-4,10e-5 c -0.3236,0.1016 -0.6427,0.2145 -0.959,0.3264 l -0.0266,0.0094 c -0.3259,0.1152 -0.6489,0.2291 -0.976,0.3304 l -2e-4,10e-5 c -0.2066,0.0644 -0.3717,0.157 -0.4932,0.295 -0.1219,0.1383 -0.1884,0.3089 -0.2215,0.5083 v 10e-5 c -0.1543,0.9344 -0.3162,1.8725 -0.4781,2.8112 -0.1827,1.0589 -0.3655,2.1186 -0.5377,3.1743 l -10e-5,2e-4 c -0.0309,0.1913 -0.0981,0.3384 -0.197,0.4554 -0.0996,0.1179 -0.2382,0.2133 -0.4236,0.2901 -1.1658,0.4818 -2.3853,0.6299 -3.6088,0.3339 -1.2785,-0.3096 -2.5433,-0.6425 -3.8097,-0.9758 -1.0456,-0.2751 -2.0924,-0.5506 -3.149,-0.8136 v 0 c -1.1448,-0.2843 -1.9908,-0.859 -2.5519,-1.792 -0.0495,-0.0828 -0.1026,-0.1658 -0.1606,-0.2458 l -2e-4,-4e-4 c -0.1123,-0.1541 -0.2555,-0.2692 -0.4278,-0.3142 -0.1745,-0.0456 -0.201968,0.01206 -0.381068,0.112455 0.236544,0.47133 0.275582,0.396507 0.386272,0.61427 0.780252,0.750547 1.282495,1.428875 2.800995,1.823375 1.5175,0.3947 3.243339,0.846164 4.77733,1.174876 0.37592,0.07937 1.555265,0.68105 1.799339,0.926817 0.3088,0.081 -0.325965,0.565307 -0.0071,0.648807 -0.0585,0.2847 -0.1162,0.5678 -0.1736,0.8498 -0.1501,0.7371 -0.2986,1.4662 -0.4556,2.194 z" />
</svg>
