<svg width="36" height="36" viewBox="0 0 36 36" fill="none" xmlns="http://www.w3.org/2000/svg">
<path d="M34.83 34.97C34.83 34.97 24.64 14.64 23.35 12.64C22.06 10.64 24.9 10.83 26.45 11.54C28 12.25 30.45 14.89 31.61 14.38C32.77 13.87 34.38 12.51 31.93 10.32C29.48 8.13002 24.64 5.35002 19.16 6.38002C13.68 7.41002 16 10.9 7.67999 8.90002C7.67999 8.90002 2.72999 5.16002 1.41999 6.16002C0.109994 7.16002 0.769994 9.29002 3.09999 10.58C5.42999 11.87 8.38999 13.87 9.93999 14C11.49 14.13 15.49 14.13 15.81 15.68C15.81 15.68 18.63 19.29 17.8 20.2C16.97 21.11 11.1 25.43 11.87 26.52L12.64 27.62C12.64 27.62 24.19 34.14 25.09 33.62C25.99 33.1 26.38 31.49 25.28 30.65C24.18 29.81 19.41 27.1 19.22 26.26C19.03 25.42 22.96 23.55 23.48 24C24 24.45 30.45 37.16 34.83 34.97V34.97Z" stroke="white" stroke-width="2" stroke-miterlimit="10"/>
<path d="M14.25 8.71001C16.299 8.71001 17.96 7.04899 17.96 5.00001C17.96 2.95103 16.299 1.29001 14.25 1.29001C12.201 1.29001 10.54 2.95103 10.54 5.00001C10.54 7.04899 12.201 8.71001 14.25 8.71001Z" stroke="white" stroke-width="2" stroke-miterlimit="10"/>
</svg>
