<svg width="36" height="35" viewBox="0 0 36 35" fill="none" xmlns="http://www.w3.org/2000/svg">
<path d="M15.7 23.51V6.60999L33.25 1.76999V20.96" stroke="white" stroke-width="2" stroke-miterlimit="10"/>
<path d="M10.7409 31.8167C14.5356 30.61 16.8575 27.2596 15.927 24.3333C14.9964 21.407 11.1658 20.0129 7.37111 21.2196C3.57637 22.4263 1.25447 25.7767 2.185 28.703C3.11553 31.6294 6.94612 33.0234 10.7409 31.8167Z" stroke="white" stroke-width="2" stroke-miterlimit="10"/>
<path d="M28.2944 29.1059C32.1049 27.8942 34.4356 24.5269 33.5 21.5848C32.5644 18.6427 28.717 17.2399 24.9065 18.4516C21.0959 19.6633 18.7653 23.0306 19.7009 25.9727C20.6364 28.9148 24.4839 30.3176 28.2944 29.1059Z" stroke="white" stroke-width="2" stroke-miterlimit="10"/>
</svg>
