<svg width="38" height="38" viewBox="0 0 38 38" fill="none" xmlns="http://www.w3.org/2000/svg">
<path d="M14.99 0.75H5.12C3.19804 0.75 1.64001 2.30805 1.64001 4.23V14.1C1.64001 16.022 3.19804 17.58 5.12 17.58H14.99C16.9119 17.58 18.47 16.022 18.47 14.1V4.23C18.47 2.30805 16.9119 0.75 14.99 0.75Z" stroke="white" stroke-width="2" stroke-miterlimit="10"/>
<path d="M33.77 1.17001H23.9C21.9781 1.17001 20.42 2.72806 20.42 4.65001V14.52C20.42 16.442 21.9781 18 23.9 18H33.77C35.692 18 37.25 16.442 37.25 14.52V4.65001C37.25 2.72806 35.692 1.17001 33.77 1.17001Z" stroke="white" stroke-width="2" stroke-miterlimit="10"/>
<path d="M33.77 20H23.9C21.9781 20 20.42 21.558 20.42 23.48V33.35C20.42 35.2719 21.9781 36.83 23.9 36.83H33.77C35.692 36.83 37.25 35.2719 37.25 33.35V23.48C37.25 21.558 35.692 20 33.77 20Z" stroke="white" stroke-width="2" stroke-miterlimit="10"/>
<path d="M14.99 20H5.12C3.19804 20 1.64001 21.558 1.64001 23.48V33.35C1.64001 35.2719 3.19804 36.83 5.12 36.83H14.99C16.9119 36.83 18.47 35.2719 18.47 33.35V23.48C18.47 21.558 16.9119 20 14.99 20Z" stroke="white" stroke-width="2" stroke-miterlimit="10"/>
<path d="M6.77002 9.17001H14.12" stroke="white" stroke-width="2" stroke-miterlimit="10"/>
<path d="M28.84 5.09V13.32" stroke="white" stroke-width="2" stroke-miterlimit="10"/>
<path d="M24.48 9.20999H33.28" stroke="white" stroke-width="2" stroke-miterlimit="10"/>
<path d="M31.83 25.06L25.83 31.06" stroke="white" stroke-width="2" stroke-miterlimit="10"/>
<path d="M25.83 25.06L32.12 31.35" stroke="white" stroke-width="2" stroke-miterlimit="10"/>
<path d="M14.12 26.42H6.77002" stroke="white" stroke-width="2" stroke-miterlimit="10"/>
<path d="M14.12 30.29H6.77002" stroke="white" stroke-width="2" stroke-miterlimit="10"/>
</svg>
