<svg width="31" height="30" viewBox="0 0 31 30" fill="none" xmlns="http://www.w3.org/2000/svg">
<path d="M8.29999 13.17L5.92999 12.34L3.89001 13.82L3.95001 11.3L1.90997 9.82002L4.32001 9.10002L5.09998 6.71002L6.53003 8.78001L9.04999 8.77002L7.52002 10.78L8.29999 13.17Z" stroke="white" stroke-width="2" stroke-miterlimit="10"/>
<path d="M25.32 14.96L21.64 12.33L17.39 13.88L18.75 9.56001L15.96 6.00002L20.49 5.95001L23.02 2.20001L24.46 6.49002L28.8 7.74002L25.17 10.44L25.32 14.96Z" stroke="white" stroke-width="2" stroke-miterlimit="10"/>
<path d="M13.04 13.33L15.51 18.34L21.04 19.14L17.04 23.04L17.98 28.55L13.04 25.95L8.09003 28.55L9.03998 23.04L5.03998 19.14L10.57 18.34L13.04 13.33Z" stroke="white" stroke-width="2" stroke-miterlimit="10"/>
</svg>
