<?xml version="1.0" encoding="UTF-8"?><svg id="Layer_1" xmlns="http://www.w3.org/2000/svg" viewBox="0 0 21.5 21.5"><defs><style>.cls-1,.cls-2,.cls-3{fill:#fff;}.cls-2{stroke-width:.5px;}.cls-2,.cls-4,.cls-3{stroke:#fff;stroke-miterlimit:10;}.cls-4{fill:none;stroke-width:1.5px;}</style></defs><circle class="cls-4" cx="10.75" cy="10.75" r="10"/><path class="cls-2" d="M5.75,2.75s-.85,.32-1,1c-.1,.46,.19,.81,0,1,0,0-.93-.13-1,0-.04,.08,.16,.31,1,1,.81,.66,1.01,.79,1,1-.03,.4-.79,.39-1,1-.15,.42,.16,.59,0,1-.2,.52-.75,.44-1,1-.19,.44-.04,.88,0,1,.23,.68,.88,.95,1,1,.7,.29,.97-.1,2,0,.3,.03,1.64,.15,2,1,.2,.47,.01,.96,0,1-.23,.57-.7,.51-1,1-.34,.55,.1,.9,0,2-.02,.24-.15,1.57-1,2-.33,.17-.82,.21-1,0-.19-.22,.13-.53,0-1-.09-.34-.31-.38-1-1-.51-.46-.91-.9-1-1-.58-.65-.65-.87-1-1-.48-.17-.71,.1-1,0-1.21-.42-.17-6.07,0-7,.34-1.84,.58-2.43,1-3,1.16-1.57,2.98-2.04,3-2Z"/><path class="cls-1" d="M7.74,2.36c.07,.16,.2,.3,.37,.33,.27,.05,.5-.19,.68-.4,.13-.16,.26-.32,.37-.49,.16-.25,.28-.52,.36-.81-.49-.1-1-.07-1.47,.08-.19,.06-.37,.14-.51,.28-.26,.27-.09,.26-.01,.44,.07,.16,.14,.39,.22,.58Z"/><path class="cls-3" d="M14.48,8.25l1.23,.23,.82,.15c.28,.05,.58,.1,.85,.03s.54-.31,.53-.6l.58-.1c-.16-.22-.04-.57,.2-.7s.55-.07,.78,.09,.38,.39,.51,.64c.31,.6,.5,1.26,.54,1.94,.02,.35-.02,.75-.28,.97-.25,.21-.62,.2-.94,.27-.88,.17-1.54,.95-1.88,1.78-.45,.43-.76,1.01-.86,1.62-.06,.38-.06,.79-.27,1.1-.27,.4-.8,.52-1.28,.61-.2-.81-.27-1.65-.2-2.48,.04-.48,.11-1.03-.21-1.4-.12-.14-.27-.23-.39-.37s-.18-.35-.07-.49l-.51-.03c-.07-.32-.42-.52-.75-.56s-.66,.06-.99,.1-.69,.04-.96-.16c-.52-.38-.46-1.21-.42-1.77,.02-.42,.01-1.02,.3-1.36,.36-.43,1.01-.23,1.46-.09,.74,.23,1.47,.41,2.23,.55Z"/><path class="cls-3" d="M15.95,3.28c-.12,.1-.28,.15-.44,.19-.68,.15-1.42,.03-2.01-.34-.22-.14-.42-.3-.66-.39-.11-.04-.24-.06-.35-.02s-.21,.13-.23,.25c-.02,.2,.19,.34,.37,.43s.4,.23,.37,.43c.26,.03,.5,.24,.56,.5s-.05,.55-.27,.7c-.15,.1-.33,.14-.51,.19-.25,.07-.5,.16-.74,.27-.11,.05-.23,.12-.28,.24-.08,.18,.06,.4,.25,.48s.39,.05,.59,.02c.06-.2,.36-.18,.51-.04s.2,.35,.33,.52c.2,.26,.58,.37,.89,.26,.4-.15,.69-.64,1.12-.59,.26,.03,.45,.25,.64,.42s.5,.29,.71,.13c.16-.13,.23-.42,.43-.41,.25,.02,.26,.48,.51,.52,.17,.02,.27-.16,.33-.32l.28-.72c.08-.2,.16-.41,.16-.63,0-.33-.18-.63-.37-.89-.31-.42-.68-.78-1.1-1.09-.2-.15-.43-.33-.67-.42-.32-.12-.22,.17-.43,.35Z"/></svg>