<svg width="36" height="26" viewBox="0 0 36 26" fill="none" xmlns="http://www.w3.org/2000/svg">
<path d="M30.72 4H4.78003C2.6703 4 0.960022 5.71028 0.960022 7.82001V21.28C0.960022 23.3897 2.6703 25.1 4.78003 25.1H30.72C32.8297 25.1 34.54 23.3897 34.54 21.28V7.82001C34.54 5.71028 32.8297 4 30.72 4Z" stroke="#02808A" stroke-width="1" stroke-miterlimit="10"/>
<path d="M8.98999 4C8.98999 4 6.83998 1.17 4.47998 4.01" stroke="#02808A" stroke-width="1" stroke-miterlimit="10"/>
<path d="M11.9 4.00001C11.9 4.00001 12.19 0.76001 14.75 0.76001H20.94C20.94 0.76001 24.04 0.950008 24.33 4.00001" stroke="#02808A" stroke-width="1" stroke-miterlimit="10"/>
<path d="M17.78 22.09C21.9608 22.09 25.35 18.7008 25.35 14.52C25.35 10.3392 21.9608 6.95001 17.78 6.95001C13.5992 6.95001 10.21 10.3392 10.21 14.52C10.21 18.7008 13.5992 22.09 17.78 22.09Z" stroke="#02808A" stroke-width="1" stroke-miterlimit="10"/>
<path d="M17.73 17.26C19.4531 17.26 20.85 15.8631 20.85 14.14C20.85 12.4169 19.4531 11.02 17.73 11.02C16.0069 11.02 14.61 12.4169 14.61 14.14C14.61 15.8631 16.0069 17.26 17.73 17.26Z" stroke="#02808A" stroke-width="1" stroke-miterlimit="10"/>
<path d="M7.02002 6.61002H4.88C4.29458 6.61002 3.82001 7.08459 3.82001 7.67001V7.68001C3.82001 8.26543 4.29458 8.74002 4.88 8.74002H7.02002C7.60544 8.74002 8.08002 8.26543 8.08002 7.68001V7.67001C8.08002 7.08459 7.60544 6.61002 7.02002 6.61002Z" stroke="#02808A" stroke-width="1" stroke-miterlimit="10"/>
</svg>
