<svg width="42" height="35" viewBox="0 0 42 35" fill="none" xmlns="http://www.w3.org/2000/svg">
<path d="M41.7023 7.59254C41.6022 7.98533 41.5304 8.389 41.3977 8.77092C40.7133 10.7425 39.2825 12.0232 37.4687 12.9121C35.3992 13.9262 33.2056 14.2047 30.9305 13.9066C30.8423 13.8946 30.7531 13.8935 30.7531 13.8935C31.0795 14.5257 31.5278 15.147 31.7324 15.8412C32.2427 17.5712 31.6029 18.9846 30.2939 20.1314C29.5736 20.7625 28.7271 21.1401 27.7849 21.3109C27.6532 21.3348 27.4758 21.4034 27.4214 21.5057C26.6304 22.9974 25.5413 24.2247 24.0365 25.3291C24.2008 25.4162 24.3411 25.4553 24.4336 25.5446C26.3345 27.3878 27.5226 29.6183 28.0003 32.2231C28.269 33.6877 27.2898 34.9107 25.8002 34.9846C25.3128 35.0086 24.8231 34.9988 24.3346 34.9879C23.8994 34.9781 23.623 34.7202 23.6306 34.3601C23.6382 34.001 23.9113 33.7747 24.3596 33.7693C24.8079 33.7638 25.2562 33.778 25.7034 33.7649C26.452 33.7432 26.9188 33.2416 26.7969 32.5136C26.3573 29.8783 25.0864 27.7098 23.0985 25.9754C22.425 26.2736 21.7776 26.5478 21.1422 26.8492C21.0095 26.9123 20.9017 27.057 20.8158 27.1865C19.8855 28.6031 18.7572 29.8054 17.2567 30.6389C16.3656 31.1329 15.5212 31.1274 14.6345 30.6313C13.1503 29.8011 12.0329 28.6053 11.0972 27.2104C10.9731 27.0243 10.762 26.8742 10.5586 26.7686C10.0787 26.5184 9.57277 26.3171 9.09076 26.0712C8.90361 25.9754 8.78828 25.9885 8.63377 26.1289C6.72639 27.8589 5.53495 29.9861 5.10082 32.53C4.99963 33.1251 5.37936 33.6431 5.97453 33.7432C6.14645 33.7725 6.32598 33.7671 6.50225 33.7671C11.4562 33.7682 19.3893 33.7769 24.3433 33.7769C24.438 33.7769 24.5337 33.7769 24.6284 33.7769C25.1844 33.7802 25.4629 33.9847 25.4597 34.3862C25.4564 34.7877 25.1724 34.9999 24.6218 34.9999C19.5188 35.001 11.4366 34.9944 6.3336 34.9901C4.6101 34.989 3.60146 33.7399 3.93985 32.0469C4.45341 29.4779 5.65138 27.2855 7.54353 25.476C7.61208 25.4107 7.69912 25.3661 7.7285 25.3455C7.01799 24.6339 6.31401 23.9941 5.69272 23.2825C5.25967 22.7863 4.95284 22.1814 4.56113 21.6449C4.45015 21.4926 4.2543 21.3425 4.07586 21.3109C2.04878 20.9595 0.370984 19.385 0.0532683 17.4406C-0.164345 16.1088 0.295907 14.9479 1.23056 14.0306C1.74086 13.5301 2.40894 13.183 3.02696 12.8022C3.21193 12.688 3.33706 12.6172 3.37405 12.3746C3.68959 10.329 4.5459 8.57397 6.16821 7.23565C6.25743 7.16166 6.32489 7.01151 6.33033 6.89291C6.39888 5.42728 7.30633 4.52854 8.42051 3.77451C8.70994 3.57866 8.99827 3.65373 9.21589 3.9214C9.42806 4.18036 9.38454 4.5231 9.11579 4.75812C8.81983 5.01708 8.49123 5.24231 8.22031 5.52303C7.39229 6.38152 7.32918 7.43477 8.03751 8.40424C8.67294 9.27469 9.58039 9.7665 10.5629 10.1103C13.8793 11.2724 17.0445 10.8774 20.0715 9.13542C21.1052 8.54025 22.1552 7.97662 23.191 7.38472C23.2803 7.33358 23.3499 7.18886 23.3673 7.07897C23.4489 6.55779 23.4772 6.02572 23.5904 5.51215C23.6502 5.24013 23.5816 5.1248 23.3662 4.99532C21.7374 4.01388 19.9072 3.64285 18.0216 3.4742C15.9597 3.28923 11.3191 4.06285 9.07117 4.78206C8.64574 4.91807 8.30953 4.77227 8.2029 4.43388C8.0843 4.06067 8.27362 3.7756 8.72408 3.61783C13.4006 1.9792 19.8441 1.5505 24.0267 3.97254C24.0724 3.99865 24.1202 4.02041 24.1235 4.0215C24.6567 3.45244 25.1321 2.854 25.6969 2.35893C27.2702 0.981437 29.1526 0.309011 31.2079 0.0761648C31.3407 0.0609318 31.4712 0.0261136 31.6029 0H33.5571C33.6724 0.0261136 33.7866 0.064196 33.9041 0.0772528C35.582 0.274193 37.152 0.782321 38.5622 1.72785C39.8776 2.61027 40.9004 3.7386 41.4075 5.27169C41.5337 5.6536 41.6055 6.05401 41.7012 6.44571V7.58819L41.7023 7.59254ZM4.8288 14.9958C4.8103 15.0654 4.79072 15.1296 4.77657 15.1938C4.75807 15.2732 4.74066 15.3526 4.7287 15.4332C4.20098 19.1783 5.52734 22.1465 8.57719 24.302C12.6161 27.1571 18.6995 27.2648 22.8722 24.6197C25.1289 23.1889 26.6467 21.2162 27.157 18.545C27.3703 17.4276 27.3507 16.309 27.12 15.159C26.9035 15.1992 26.7196 15.2242 26.539 15.2689C25.8535 15.4342 25.2453 15.3494 24.7774 14.7586C24.7306 14.6987 24.649 14.6574 24.5761 14.6291C22.6492 13.8968 21.3446 12.4899 20.3588 10.736C20.3087 10.6467 20.2435 10.5662 20.1901 10.489C20.1314 10.5096 20.1042 10.5162 20.0802 10.5292C17.2948 11.9753 14.3777 12.367 11.3224 11.6162C11.0885 11.5585 10.996 11.6674 10.8556 11.8175C10.2452 12.4682 9.6707 13.1721 8.9776 13.7227C7.79378 14.6639 6.40758 15.0969 4.82989 14.9958H4.8288ZM32.2601 1.21428C31.8978 1.25454 31.258 1.28501 30.6345 1.40034C28.6912 1.76049 26.9568 2.53629 25.674 4.10854C24.7785 5.20532 24.401 6.46095 24.6828 7.87543C24.8808 8.86666 25.39 9.69142 26.1081 10.3856C26.4683 10.7327 26.6043 11.1244 26.4607 11.5999C26.2496 12.2995 26.0309 12.9981 25.8013 13.6912C25.686 14.0404 25.76 14.1579 26.1212 14.1014C27.1875 13.936 28.1679 13.5671 28.9632 12.8098C29.3049 12.4845 29.6792 12.4061 30.122 12.5139C31.4984 12.8457 32.8879 12.8914 34.2795 12.6466C36.1934 12.3093 37.9256 11.5879 39.2466 10.0984C40.2149 9.00594 40.6632 7.73072 40.401 6.26183C40.1595 4.90501 39.3847 3.87896 38.3206 3.06182C36.6167 1.75397 34.6462 1.26107 32.2612 1.21537L32.2601 1.21428ZM6.64152 8.45211C5.41853 9.60982 4.79398 11.021 4.57093 12.6227C4.44362 13.5399 4.8473 13.9012 5.77651 13.7662C7.2084 13.5584 8.36502 12.8555 9.32034 11.7914C9.49552 11.5966 9.6522 11.3855 9.83609 11.1592C8.47165 10.5575 7.31721 9.80784 6.64152 8.45102V8.45211ZM24.6741 13.3549C24.8732 12.6923 25.0625 12.0765 25.2377 11.4574C25.2584 11.3823 25.2246 11.2582 25.1702 11.2017C24.4488 10.4455 23.9179 9.57609 23.574 8.52284C22.7895 8.96459 22.0388 9.38785 21.2586 9.82852C22.0486 11.3453 23.0713 12.5607 24.6741 13.356V13.3549ZM3.60363 13.9109C2.11625 14.3897 1.09999 15.8325 1.23273 17.1382C1.36113 18.4014 2.64613 19.7941 3.81037 19.9291C3.81472 19.9029 3.82778 19.8736 3.82016 19.8507C3.29462 18.0804 3.26524 16.2971 3.66239 14.4974C3.70047 14.3266 3.62866 14.1307 3.60363 13.9109ZM28.0993 19.9454L28.1864 20.0498C28.6564 19.7419 29.1765 19.4895 29.5889 19.1174C31.1187 17.7399 31.0088 15.7705 29.4061 14.4767C29.0013 14.1492 28.8066 14.5137 28.5204 14.6062C28.231 14.7009 28.3485 14.9229 28.3539 15.1144C28.3833 16.1284 28.4518 17.1436 28.4181 18.1555C28.3974 18.755 28.2114 19.348 28.0993 19.9443V19.9454ZM19.1521 27.4117C16.9771 27.8382 14.913 27.8426 12.7565 27.4095C13.5899 28.4247 14.4528 29.2386 15.5822 29.7032C15.8052 29.7946 16.1327 29.7869 16.3569 29.6934C17.47 29.2266 18.3176 28.4149 19.1532 27.4128L19.1521 27.4117Z" fill="#02808A" stroke-width="1"/>
<path d="M15.9086 15.5289C16.1882 15.5485 16.556 15.5528 16.9172 15.604C17.9204 15.7443 18.483 16.4168 18.4906 17.4526C18.5026 19.2294 16.9847 20.5503 15.382 20.1597C13.9588 19.8126 13.0241 18.0445 13.5486 16.6725C13.8108 15.9881 14.3657 15.6889 15.0523 15.5942C15.3069 15.5594 15.5659 15.5539 15.9086 15.5278V15.5289ZM15.9184 16.7508C15.6638 16.7747 15.3668 16.7584 15.1024 16.8433C14.9293 16.8988 14.7085 17.0794 14.6715 17.2404C14.4919 18.0369 15.0588 18.8889 15.7976 19.0031C16.4896 19.1097 17.1664 18.495 17.2611 17.6724C17.3329 17.0468 17.186 16.8629 16.5571 16.8009C16.3547 16.7813 16.1512 16.7693 15.9184 16.7519V16.7508Z" fill="#02808A" stroke-width="1"/>
<path d="M22.6448 16.173C22.6448 16.3352 22.6557 16.4984 22.6427 16.6605C22.6155 17.0141 22.3739 17.2513 22.0431 17.2459C21.6939 17.2393 21.473 17.0435 21.4404 16.7084C21.4055 16.346 21.4077 15.9761 21.4393 15.6138C21.4686 15.2754 21.6917 15.0795 22.0355 15.0654C22.363 15.0512 22.6144 15.2961 22.6416 15.6464C22.6557 15.8216 22.6438 15.9979 22.6438 16.1741L22.6448 16.173Z" fill="#02808A" stroke-width="1"/>
<path d="M9.27246 16.135C9.27246 15.9587 9.2594 15.7824 9.27573 15.6083C9.30619 15.2776 9.50748 15.0915 9.82955 15.0708C10.132 15.0502 10.3975 15.1916 10.4302 15.4952C10.478 15.9337 10.4791 16.3852 10.4302 16.8226C10.3964 17.1251 10.1331 17.2633 9.82738 17.2437C9.52054 17.223 9.32034 17.0533 9.28225 16.7443C9.25723 16.5452 9.2779 16.3395 9.2779 16.1371H9.27355L9.27246 16.135Z" fill="#02808A" stroke-width="1"/>
<path d="M32.5473 6.06272C31.2449 6.06272 29.9425 6.06598 28.6401 6.06054C28.1537 6.05837 27.885 5.78852 27.9318 5.37941C27.9698 5.04755 28.2136 4.84952 28.6303 4.84191C29.1994 4.83211 29.7695 4.83864 30.3397 4.83864C32.2797 4.83864 34.2197 4.83864 36.1597 4.83864C36.2816 4.83864 36.4045 4.83211 36.5253 4.84408C36.9105 4.88216 37.1477 5.12807 37.1401 5.4719C37.1314 5.81355 36.8855 6.05184 36.4938 6.05837C35.7887 6.06925 35.0825 6.06272 34.3775 6.06272C33.7671 6.06272 33.1567 6.06272 32.5463 6.06272H32.5473Z" fill="#02808A" stroke-width="1"/>
<path d="M32.531 9.17024C31.6758 9.17024 30.8217 9.1735 29.9664 9.16915C29.4703 9.16588 29.2189 8.95589 29.2211 8.56309C29.2222 8.17574 29.4801 7.9516 29.9708 7.94942C31.6801 7.94398 33.3895 7.94398 35.0989 7.94942C35.5885 7.9516 35.8453 8.17792 35.8453 8.56636C35.8453 8.95589 35.5918 9.16588 35.0945 9.16915C34.2393 9.1735 33.3851 9.17024 32.5299 9.17024H32.531Z" fill="#02808A" stroke-width="1"/>
</svg>
