<svg width="23" height="8" viewBox="0 0 23 8" fill="none" xmlns="http://www.w3.org/2000/svg">
<path d="M3.59998 6.59999C4.94204 6.59999 6.02998 5.51204 6.02998 4.16999C6.02998 2.82794 4.94204 1.73999 3.59998 1.73999C2.25793 1.73999 1.16998 2.82794 1.16998 4.16999C1.16998 5.51204 2.25793 6.59999 3.59998 6.59999Z" fill="#02808A" stroke="#02808A" stroke-width="1" stroke-miterlimit="10"/>
<path d="M11.38 6.59999C12.722 6.59999 13.81 5.51204 13.81 4.16999C13.81 2.82794 12.722 1.73999 11.38 1.73999C10.0379 1.73999 8.94998 2.82794 8.94998 4.16999C8.94998 5.51204 10.0379 6.59999 11.38 6.59999Z" fill="#02808A" stroke="#02808A" stroke-width="1" stroke-miterlimit="10"/>
<path d="M19.16 6.59999C20.502 6.59999 21.59 5.51204 21.59 4.16999C21.59 2.82794 20.502 1.73999 19.16 1.73999C17.8179 1.73999 16.73 2.82794 16.73 4.16999C16.73 5.51204 17.8179 6.59999 19.16 6.59999Z" fill="#02808A" stroke="#02808A" stroke-width="1" stroke-miterlimit="10"/>
</svg>
