<svg width="29" height="33" viewBox="0 0 29 33" fill="none" xmlns="http://www.w3.org/2000/svg">
<path d="M12.99 19.47V29.09H7.09003" stroke="#02808A" stroke-width="1" stroke-miterlimit="10"/>
<path d="M6.40997 11.77C6.40997 11.77 1.33002 11.94 1.33002 8.75V5.56H6.40997" stroke="#02808A" stroke-width="1" stroke-miterlimit="10"/>
<path d="M16.08 29.09H14.54H12.99" stroke="#02808A" stroke-width="1" stroke-miterlimit="10"/>
<path d="M25.95 1.03H22.66H14.54H6.40997H3.12" stroke="#02808A" stroke-width="1" stroke-miterlimit="10"/>
<path d="M22.66 1.03V13.86C22.66 14.57 22.42 15.25 21.97 15.79C20.81 17.17 18.23 19.61 14.54 19.61C10.85 19.61 8.26999 17.17 7.10999 15.79C6.65999 15.25 6.41998 14.57 6.41998 13.86V1.03" stroke="#02808A" stroke-width="1" stroke-miterlimit="10"/>
<path d="M16.08 19.47V29.09H21.98" stroke="#02808A" stroke-width="1" stroke-miterlimit="10"/>
<path d="M24.06 31.68H14.54H5.01001" stroke="#02808A" stroke-width="1" stroke-miterlimit="10"/>
<path d="M22.66 11.77C22.66 11.77 27.74 11.94 27.74 8.75V5.56H22.66" stroke="#02808A" stroke-width="1" stroke-miterlimit="10"/>
</svg>
